<ttFont>
    <TTGlyph name=".notdef" xMin="47" yMin="23" xMax="465" yMax="458">
      <contour>
        <pt x="47" y="23" on="1"/>
        <pt x="47" y="458" on="1"/>
        <pt x="465" y="458" on="1"/>
        <pt x="465" y="23" on="1"/>
      </contour>
      <contour>
        <pt x="121" y="377" on="1"/>
        <pt x="121" y="105" on="1"/>
        <pt x="393" y="105" on="1"/>
        <pt x="393" y="377" on="1"/>
      </contour>
    </TTGlyph>
    <TTGlyph name="A" xMin="-20" yMin="0" xMax="711" yMax="678">
      <contour>
        <pt x="431" y="260" on="1"/>
        <pt x="331" y="519" on="1"/>
        <pt x="230" y="260" on="1"/>
      </contour>
      <contour>
        <pt x="-14" y="0" on="1"/>
        <pt x="-20" y="32" on="1"/>
        <pt x="-1" y="42" on="0"/>
        <pt x="41" y="60" on="0"/>
        <pt x="63" y="67" on="1"/>
        <pt x="291" y="622" on="1"/>
        <pt x="281" y="647" on="1"/>
        <pt x="386" y="678" on="1"/>
        <pt x="639" y="58" on="1"/>
        <pt x="711" y="49" on="1"/>
        <pt x="710" y="0" on="1"/>
        <pt x="419" y="0" on="1"/>
        <pt x="413" y="32" on="1"/>
        <pt x="434" y="43" on="0"/>
        <pt x="481" y="62" on="0"/>
        <pt x="505" y="70" on="1"/>
        <pt x="458" y="191" on="1"/>
        <pt x="204" y="191" on="1"/>
        <pt x="154" y="62" on="1"/>
        <pt x="252" y="49" on="1"/>
        <pt x="251" y="0" on="1"/>
      </contour>
    </TTGlyph>
    <TTGlyph name="AE" xMin="6" yMin="0" xMax="882" yMax="654">
      <contour>
        <pt x="454" y="260" on="1"/>
        <pt x="454" y="580" on="1"/>
        <pt x="289" y="260" on="1"/>
      </contour>
      <contour>
        <pt x="12" y="0" on="1"/>
        <pt x="6" y="35" on="1"/>
        <pt x="24" y="45" on="0"/>
        <pt x="88" y="70" on="0"/>
        <pt x="101" y="74" on="1"/>
        <pt x="381" y="598" on="1"/>
        <pt x="320" y="604" on="1"/>
        <pt x="321" y="654" on="1"/>
        <pt x="871" y="654" on="1"/>
        <pt x="871" y="654" on="1"/>
        <pt x="872" y="654" on="1"/>
        <pt x="874" y="627" on="0"/>
        <pt x="868" y="524" on="0"/>
        <pt x="859" y="477" on="1"/>
        <pt x="790" y="477" on="1"/>
        <pt x="775" y="571" on="1"/>
        <pt x="574" y="581" on="1"/>
        <pt x="574" y="359" on="1"/>
        <pt x="798" y="377" on="1"/>
        <pt x="798" y="283" on="1"/>
        <pt x="574" y="292" on="1"/>
        <pt x="574" y="76" on="1"/>
        <pt x="783" y="86" on="1"/>
        <pt x="813" y="194" on="1"/>
        <pt x="881" y="189" on="1"/>
        <pt x="882" y="148" on="0"/>
        <pt x="875" y="36" on="0"/>
        <pt x="869" y="0" on="1"/>
        <pt x="865" y="1" on="1"/>
        <pt x="865" y="0" on="1"/>
        <pt x="375" y="0" on="1"/>
        <pt x="369" y="35" on="1"/>
        <pt x="385" y="44" on="0"/>
        <pt x="438" y="64" on="0"/>
        <pt x="454" y="71" on="1"/>
        <pt x="454" y="191" on="1"/>
        <pt x="253" y="191" on="1"/>
        <pt x="186" y="61" on="1"/>
        <pt x="278" y="49" on="1"/>
        <pt x="277" y="0" on="1"/>
      </contour>
    </TTGlyph>
    <TTGlyph name="Aacute" xMin="-20" yMin="0" xMax="711" yMax="886">
      <component glyphName="A" x="0" y="0" flags="0x204"/>
      <component glyphName="acutecomb.case" x="340" y="0" flags="0x4"/>
    </TTGlyph>
    <TTGlyph name="Abreve" xMin="-20" yMin="0" xMax="711" yMax="864">
      <component glyphName="A" x="0" y="0" flags="0x204"/>
      <component glyphName="uni0306.case" x="342" y="0" flags="0x4"/>
    </TTGlyph>
    <TTGlyph name="Acircumflex" xMin="-20" yMin="0" xMax="711" yMax="891">
      <component glyphName="A" x="0" y="0" flags="0x204"/>
      <component glyphName="uni0302.case" x="342" y="35" flags="0x4"/>
    </TTGlyph>
    <TTGlyph name="Adieresis" xMin="-20" yMin="0" xMax="711" yMax="878">
      <component glyphName="A" x="0" y="0" flags="0x204"/>
      <component glyphName="uni0308.case" x="341" y="180" flags="0x4"/>
    </TTGlyph>
    <TTGlyph name="Agrave" xMin="-20" yMin="0" xMax="711" yMax="886">
      <component glyphName="A" x="0" y="0" flags="0x204"/>
      <component glyphName="gravecomb.case" x="343" y="0" flags="0x4"/>
    </TTGlyph>
    <TTGlyph name="Amacron" xMin="-20" yMin="0" xMax="711" yMax="821">
      <component glyphName="A" x="0" y="0" flags="0x204"/>
      <component glyphName="uni0304.case" x="340" y="0" flags="0x4"/>
    </TTGlyph>
    <TTGlyph name="Aogonek" xMin="-20" yMin="-268" xMax="711" yMax="678">
      <component glyphName="A" x="0" y="0" flags="0x204"/>
      <component glyphName="uni0328.case" x="652" y="-9" flags="0x4"/>
    </TTGlyph>
    <TTGlyph name="Aring" xMin="-20" yMin="0" xMax="711" yMax="937">
      <component glyphName="A" x="0" y="0" flags="0x204"/>
      <component glyphName="uni030A.case" x="341" y="0" flags="0x4"/>
    </TTGlyph>
    <TTGlyph name="Atilde" xMin="-20" yMin="0" xMax="711" yMax="875">
      <component glyphName="A" x="0" y="0" flags="0x204"/>
      <component glyphName="tildecomb.case" x="342" y="0" flags="0x4"/>
    </TTGlyph>
    <TTGlyph name="B" xMin="28" yMin="0" xMax="610" yMax="662">
      <contour>
        <pt x="359" y="594" on="1"/>
        <pt x="235" y="579" on="1"/>
        <pt x="235" y="372" on="1"/>
        <pt x="284" y="372" on="1"/>
        <pt x="373" y="372" on="0"/>
        <pt x="448" y="441" on="0"/>
        <pt x="448" y="483" on="1"/>
        <pt x="448" y="520" on="0"/>
        <pt x="399" y="586" on="0"/>
      </contour>
      <contour>
        <pt x="325" y="69" on="1"/>
        <pt x="401" y="62" on="0"/>
        <pt x="476" y="135" on="0"/>
        <pt x="476" y="181" on="1"/>
        <pt x="476" y="228" on="0"/>
        <pt x="398" y="312" on="0"/>
        <pt x="325" y="312" on="1"/>
        <pt x="235" y="312" on="1"/>
        <pt x="235" y="77" on="1"/>
      </contour>
      <contour>
        <pt x="34" y="0" on="1"/>
        <pt x="28" y="32" on="1"/>
        <pt x="47" y="42" on="0"/>
        <pt x="91" y="60" on="0"/>
        <pt x="113" y="68" on="1"/>
        <pt x="113" y="597" on="1"/>
        <pt x="42" y="604" on="1"/>
        <pt x="43" y="654" on="1"/>
        <pt x="108" y="657" on="0"/>
        <pt x="267" y="662" on="0"/>
        <pt x="330" y="662" on="1"/>
        <pt x="460" y="662" on="0"/>
        <pt x="577" y="557" on="0"/>
        <pt x="577" y="494" on="1"/>
        <pt x="577" y="446" on="0"/>
        <pt x="511" y="358" on="0"/>
        <pt x="442" y="348" on="1"/>
        <pt x="524" y="336" on="0"/>
        <pt x="610" y="240" on="0"/>
        <pt x="610" y="181" on="1"/>
        <pt x="610" y="111" on="0"/>
        <pt x="480" y="0" on="0"/>
        <pt x="339" y="0" on="1"/>
      </contour>
    </TTGlyph>
    <TTGlyph name="C" xMin="13" yMin="-18" xMax="552" yMax="674">
      <contour>
        <pt x="351" y="-16" on="1"/>
        <pt x="261" y="-18" on="0"/>
        <pt x="133" y="39" on="0"/>
        <pt x="51" y="133" on="0"/>
        <pt x="13" y="256" on="0"/>
        <pt x="13" y="319" on="1"/>
        <pt x="13" y="385" on="0"/>
        <pt x="53" y="513" on="0"/>
        <pt x="133" y="612" on="0"/>
        <pt x="255" y="674" on="0"/>
        <pt x="336" y="674" on="1"/>
        <pt x="408" y="674" on="0"/>
        <pt x="507" y="632" on="0"/>
        <pt x="535" y="612" on="1"/>
        <pt x="534" y="609" on="1"/>
        <pt x="537" y="581" on="0"/>
        <pt x="528" y="486" on="0"/>
        <pt x="515" y="444" on="1"/>
        <pt x="439" y="444" on="1"/>
        <pt x="423" y="559" on="1"/>
        <pt x="385" y="578" on="0"/>
        <pt x="299" y="596" on="0"/>
        <pt x="250" y="593" on="1"/>
        <pt x="190" y="555" on="0"/>
        <pt x="142" y="412" on="0"/>
        <pt x="142" y="343" on="1"/>
        <pt x="142" y="287" on="0"/>
        <pt x="171" y="187" on="0"/>
        <pt x="229" y="115" on="0"/>
        <pt x="315" y="76" on="0"/>
        <pt x="371" y="79" on="1"/>
        <pt x="530" y="133" on="1"/>
        <pt x="552" y="73" on="1"/>
      </contour>
    </TTGlyph>
    <TTGlyph name="Cacute" xMin="13" yMin="-18" xMax="552" yMax="886">
      <component glyphName="C" x="0" y="0" flags="0x204"/>
      <component glyphName="acutecomb.case" x="320" y="0" flags="0x4"/>
    </TTGlyph>
    <TTGlyph name="Ccaron" xMin="13" yMin="-18" xMax="552" yMax="892">
      <component glyphName="C" x="0" y="0" flags="0x204"/>
      <component glyphName="uni030C.case" x="322" y="35" flags="0x4"/>
    </TTGlyph>
    <TTGlyph name="Ccedilla" xMin="13" yMin="-267" xMax="552" yMax="674">
      <component glyphName="C" x="0" y="0" flags="0x204"/>
      <component glyphName="uni0327.case" x="321" y="0" flags="0x4"/>
    </TTGlyph>
    <TTGlyph name="D" xMin="28" yMin="0" xMax="664" yMax="662">
      <contour>
        <pt x="320" y="75" on="1"/>
        <pt x="374" y="75" on="0"/>
        <pt x="454" y="119" on="0"/>
        <pt x="506" y="190" on="0"/>
        <pt x="531" y="282" on="0"/>
        <pt x="531" y="329" on="1"/>
        <pt x="531" y="415" on="0"/>
        <pt x="457" y="562" on="0"/>
        <pt x="400" y="594" on="1"/>
        <pt x="235" y="579" on="1"/>
        <pt x="235" y="87" on="1"/>
        <pt x="258" y="80" on="0"/>
        <pt x="301" y="75" on="0"/>
      </contour>
      <contour>
        <pt x="34" y="0" on="1"/>
        <pt x="28" y="32" on="1"/>
        <pt x="47" y="42" on="0"/>
        <pt x="91" y="60" on="0"/>
        <pt x="113" y="68" on="1"/>
        <pt x="113" y="597" on="1"/>
        <pt x="42" y="604" on="1"/>
        <pt x="43" y="654" on="1"/>
        <pt x="121" y="658" on="0"/>
        <pt x="275" y="662" on="0"/>
        <pt x="352" y="662" on="1"/>
        <pt x="426" y="662" on="0"/>
        <pt x="543" y="604" on="0"/>
        <pt x="622" y="512" on="0"/>
        <pt x="664" y="393" on="0"/>
        <pt x="664" y="332" on="1"/>
        <pt x="664" y="270" on="0"/>
        <pt x="624" y="150" on="0"/>
        <pt x="541" y="57" on="0"/>
        <pt x="412" y="0" on="0"/>
        <pt x="324" y="0" on="1"/>
      </contour>
    </TTGlyph>
    <TTGlyph name="Dcaron" xMin="28" yMin="0" xMax="664" yMax="892">
      <component glyphName="D" x="0" y="0" flags="0x204"/>
      <component glyphName="uni030C.case" x="323" y="35" flags="0x4"/>
    </TTGlyph>
    <TTGlyph name="Dcroat" xMin="16" yMin="0" xMax="664" yMax="662">
      <contour>
        <pt x="320" y="75" on="1"/>
        <pt x="374" y="75" on="0"/>
        <pt x="454" y="119" on="0"/>
        <pt x="506" y="190" on="0"/>
        <pt x="531" y="282" on="0"/>
        <pt x="531" y="329" on="1"/>
        <pt x="531" y="415" on="0"/>
        <pt x="457" y="562" on="0"/>
        <pt x="400" y="594" on="1"/>
        <pt x="235" y="579" on="1"/>
        <pt x="235" y="354" on="1"/>
        <pt x="381" y="354" on="1"/>
        <pt x="387" y="323" on="1"/>
        <pt x="344" y="280" on="1"/>
        <pt x="235" y="280" on="1"/>
        <pt x="235" y="87" on="1"/>
        <pt x="258" y="80" on="0"/>
        <pt x="301" y="75" on="0"/>
      </contour>
      <contour>
        <pt x="34" y="0" on="1"/>
        <pt x="28" y="32" on="1"/>
        <pt x="47" y="42" on="0"/>
        <pt x="91" y="60" on="0"/>
        <pt x="113" y="68" on="1"/>
        <pt x="113" y="280" on="1"/>
        <pt x="22" y="280" on="1"/>
        <pt x="16" y="311" on="1"/>
        <pt x="59" y="354" on="1"/>
        <pt x="113" y="354" on="1"/>
        <pt x="113" y="597" on="1"/>
        <pt x="42" y="604" on="1"/>
        <pt x="43" y="654" on="1"/>
        <pt x="121" y="658" on="0"/>
        <pt x="275" y="662" on="0"/>
        <pt x="352" y="662" on="1"/>
        <pt x="426" y="662" on="0"/>
        <pt x="543" y="604" on="0"/>
        <pt x="622" y="512" on="0"/>
        <pt x="664" y="393" on="0"/>
        <pt x="664" y="332" on="1"/>
        <pt x="664" y="270" on="0"/>
        <pt x="624" y="150" on="0"/>
        <pt x="541" y="57" on="0"/>
        <pt x="412" y="0" on="0"/>
        <pt x="324" y="0" on="1"/>
      </contour>
    </TTGlyph>
    <TTGlyph name="E" xMin="28" yMin="0" xMax="541" yMax="654">
      <contour>
        <pt x="34" y="0" on="1"/>
        <pt x="28" y="32" on="1"/>
        <pt x="47" y="42" on="0"/>
        <pt x="91" y="60" on="0"/>
        <pt x="113" y="68" on="1"/>
        <pt x="113" y="597" on="1"/>
        <pt x="41" y="604" on="1"/>
        <pt x="42" y="654" on="1"/>
        <pt x="531" y="654" on="1"/>
        <pt x="533" y="627" on="0"/>
        <pt x="527" y="524" on="0"/>
        <pt x="518" y="477" on="1"/>
        <pt x="449" y="477" on="1"/>
        <pt x="434" y="573" on="1"/>
        <pt x="235" y="586" on="1"/>
        <pt x="235" y="359" on="1"/>
        <pt x="458" y="377" on="1"/>
        <pt x="458" y="283" on="1"/>
        <pt x="235" y="292" on="1"/>
        <pt x="235" y="74" on="1"/>
        <pt x="442" y="86" on="1"/>
        <pt x="472" y="194" on="1"/>
        <pt x="540" y="189" on="1"/>
        <pt x="541" y="148" on="0"/>
        <pt x="534" y="36" on="0"/>
        <pt x="528" y="0" on="1"/>
      </contour>
    </TTGlyph>
    <TTGlyph name="Eacute" xMin="28" yMin="0" xMax="541" yMax="886">
      <component glyphName="E" x="0" y="0" flags="0x204"/>
      <component glyphName="acutecomb.case" x="300" y="0" flags="0x4"/>
    </TTGlyph>
    <TTGlyph name="Ecaron" xMin="28" yMin="0" xMax="541" yMax="892">
      <component glyphName="E" x="0" y="0" flags="0x204"/>
      <component glyphName="uni030C.case" x="302" y="35" flags="0x4"/>
    </TTGlyph>
    <TTGlyph name="Ecircumflex" xMin="28" yMin="0" xMax="541" yMax="891">
      <component glyphName="E" x="0" y="0" flags="0x204"/>
      <component glyphName="uni0302.case" x="302" y="35" flags="0x4"/>
    </TTGlyph>
    <TTGlyph name="Edieresis" xMin="28" yMin="0" xMax="541" yMax="878">
      <component glyphName="E" x="0" y="0" flags="0x204"/>
      <component glyphName="uni0308.case" x="301" y="180" flags="0x4"/>
    </TTGlyph>
    <TTGlyph name="Edotaccent" xMin="28" yMin="0" xMax="541" yMax="878">
      <component glyphName="E" x="0" y="0" flags="0x204"/>
      <component glyphName="uni0307.case" x="301" y="180" flags="0x4"/>
    </TTGlyph>
    <TTGlyph name="Egrave" xMin="28" yMin="0" xMax="541" yMax="886">
      <component glyphName="E" x="0" y="0" flags="0x204"/>
      <component glyphName="gravecomb.case" x="303" y="0" flags="0x4"/>
    </TTGlyph>
    <TTGlyph name="Emacron" xMin="28" yMin="0" xMax="541" yMax="821">
      <component glyphName="E" x="0" y="0" flags="0x204"/>
      <component glyphName="uni0304.case" x="300" y="0" flags="0x4"/>
    </TTGlyph>
    <TTGlyph name="Eogonek" xMin="28" yMin="-269" xMax="567" yMax="654">
      <component glyphName="E" x="0" y="0" flags="0x204"/>
      <component glyphName="uni0328.case" x="538" y="-10" flags="0x4"/>
    </TTGlyph>
    <TTGlyph name="Eth" xMin="16" yMin="0" xMax="664" yMax="662">
      <component glyphName="Dcroat" x="0" y="0" flags="0x204"/>
    </TTGlyph>
    <TTGlyph name="Euro" xMin="-30" yMin="-21" xMax="593" yMax="670">
      <contour>
        <pt x="592" y="56" on="1"/>
        <pt x="407" y="-21" on="1"/>
        <pt x="275" y="-19" on="0"/>
        <pt x="122" y="112" on="0"/>
        <pt x="97" y="206" on="1"/>
        <pt x="-24" y="206" on="1"/>
        <pt x="-30" y="227" on="1"/>
        <pt x="6" y="267" on="1"/>
        <pt x="86" y="267" on="1"/>
        <pt x="85" y="278" on="0"/>
        <pt x="84" y="301" on="0"/>
        <pt x="84" y="312" on="1"/>
        <pt x="84" y="321" on="0"/>
        <pt x="85" y="340" on="0"/>
        <pt x="86" y="349" on="1"/>
        <pt x="2" y="349" on="1"/>
        <pt x="-4" y="370" on="1"/>
        <pt x="32" y="410" on="1"/>
        <pt x="95" y="410" on="1"/>
        <pt x="107" y="461" on="0"/>
        <pt x="156" y="556" on="0"/>
        <pt x="231" y="627" on="0"/>
        <pt x="336" y="670" on="0"/>
        <pt x="403" y="670" on="1"/>
        <pt x="460" y="670" on="0"/>
        <pt x="555" y="638" on="0"/>
        <pt x="592" y="609" on="1"/>
        <pt x="592" y="609" on="1"/>
        <pt x="593" y="609" on="1"/>
        <pt x="590" y="568" on="0"/>
        <pt x="576" y="487" on="0"/>
        <pt x="568" y="462" on="1"/>
        <pt x="505" y="462" on="1"/>
        <pt x="495" y="560" on="1"/>
        <pt x="455" y="582" on="0"/>
        <pt x="375" y="601" on="0"/>
        <pt x="335" y="597" on="1"/>
        <pt x="292" y="569" on="0"/>
        <pt x="232" y="471" on="0"/>
        <pt x="219" y="410" on="1"/>
        <pt x="536" y="410" on="1"/>
        <pt x="542" y="389" on="1"/>
        <pt x="507" y="349" on="1"/>
        <pt x="211" y="349" on="1"/>
        <pt x="210" y="342" on="0"/>
        <pt x="210" y="326" on="0"/>
        <pt x="210" y="319" on="1"/>
        <pt x="210" y="306" on="0"/>
        <pt x="212" y="280" on="0"/>
        <pt x="213" y="267" on="1"/>
        <pt x="496" y="267" on="1"/>
        <pt x="502" y="246" on="1"/>
        <pt x="466" y="206" on="1"/>
        <pt x="227" y="206" on="1"/>
        <pt x="247" y="150" on="0"/>
        <pt x="343" y="77" on="0"/>
        <pt x="425" y="73" on="1"/>
        <pt x="571" y="114" on="1"/>
      </contour>
    </TTGlyph>
    <TTGlyph name="F" xMin="28" yMin="0" xMax="531" yMax="654">
      <contour>
        <pt x="34" y="0" on="1"/>
        <pt x="28" y="32" on="1"/>
        <pt x="47" y="42" on="0"/>
        <pt x="89" y="60" on="0"/>
        <pt x="111" y="67" on="1"/>
        <pt x="111" y="597" on="1"/>
        <pt x="39" y="604" on="1"/>
        <pt x="40" y="654" on="1"/>
        <pt x="529" y="654" on="1"/>
        <pt x="531" y="627" on="0"/>
        <pt x="525" y="522" on="0"/>
        <pt x="516" y="475" on="1"/>
        <pt x="447" y="475" on="1"/>
        <pt x="432" y="572" on="1"/>
        <pt x="233" y="586" on="1"/>
        <pt x="233" y="340" on="1"/>
        <pt x="460" y="357" on="1"/>
        <pt x="460" y="261" on="1"/>
        <pt x="233" y="270" on="1"/>
        <pt x="233" y="65" on="1"/>
        <pt x="352" y="49" on="1"/>
        <pt x="351" y="0" on="1"/>
      </contour>
    </TTGlyph>
    <TTGlyph name="G" xMin="13" yMin="-25" xMax="657" yMax="674">
      <contour>
        <pt x="377" y="-20" on="1"/>
        <pt x="282" y="-25" on="0"/>
        <pt x="143" y="31" on="0"/>
        <pt x="55" y="127" on="0"/>
        <pt x="13" y="251" on="0"/>
        <pt x="13" y="314" on="1"/>
        <pt x="13" y="382" on="0"/>
        <pt x="58" y="512" on="0"/>
        <pt x="146" y="612" on="0"/>
        <pt x="280" y="674" on="0"/>
        <pt x="368" y="674" on="1"/>
        <pt x="443" y="674" on="0"/>
        <pt x="549" y="631" on="0"/>
        <pt x="574" y="613" on="1"/>
        <pt x="573" y="610" on="1"/>
        <pt x="576" y="583" on="0"/>
        <pt x="567" y="499" on="0"/>
        <pt x="555" y="456" on="1"/>
        <pt x="480" y="456" on="1"/>
        <pt x="463" y="557" on="1"/>
        <pt x="426" y="575" on="0"/>
        <pt x="320" y="599" on="0"/>
        <pt x="257" y="593" on="1"/>
        <pt x="197" y="556" on="0"/>
        <pt x="141" y="408" on="0"/>
        <pt x="141" y="328" on="1"/>
        <pt x="141" y="278" on="0"/>
        <pt x="168" y="184" on="0"/>
        <pt x="222" y="112" on="0"/>
        <pt x="303" y="67" on="0"/>
        <pt x="356" y="66" on="1"/>
        <pt x="382" y="65" on="0"/>
        <pt x="439" y="74" on="0"/>
        <pt x="464" y="80" on="1"/>
        <pt x="464" y="226" on="1"/>
        <pt x="439" y="234" on="0"/>
        <pt x="384" y="255" on="0"/>
        <pt x="359" y="268" on="1"/>
        <pt x="365" y="302" on="1"/>
        <pt x="656" y="302" on="1"/>
        <pt x="657" y="254" on="1"/>
        <pt x="580" y="241" on="1"/>
        <pt x="580" y="71" on="1"/>
        <pt x="581" y="70" on="1"/>
      </contour>
    </TTGlyph>
    <TTGlyph name="Gbreve" xMin="13" yMin="-25" xMax="657" yMax="864">
      <component glyphName="G" x="0" y="0" flags="0x204"/>
      <component glyphName="uni0306.case" x="345" y="0" flags="0x4"/>
    </TTGlyph>
    <TTGlyph name="Gcommaaccent" xMin="13" yMin="-281" xMax="657" yMax="674">
      <component glyphName="G" x="0" y="0" flags="0x204"/>
      <component glyphName="uni0326.case" x="344" y="0" flags="0x4"/>
    </TTGlyph>
    <TTGlyph name="H" xMin="28" yMin="0" xMax="749" yMax="654">
      <contour>
        <pt x="34" y="0" on="1"/>
        <pt x="28" y="32" on="1"/>
        <pt x="47" y="42" on="0"/>
        <pt x="91" y="60" on="0"/>
        <pt x="113" y="68" on="1"/>
        <pt x="113" y="595" on="1"/>
        <pt x="36" y="605" on="1"/>
        <pt x="37" y="654" on="1"/>
        <pt x="314" y="654" on="1"/>
        <pt x="320" y="622" on="1"/>
        <pt x="301" y="612" on="0"/>
        <pt x="257" y="594" on="0"/>
        <pt x="235" y="586" on="1"/>
        <pt x="235" y="364" on="1"/>
        <pt x="532" y="364" on="1"/>
        <pt x="532" y="595" on="1"/>
        <pt x="455" y="605" on="1"/>
        <pt x="456" y="654" on="1"/>
        <pt x="733" y="654" on="1"/>
        <pt x="739" y="622" on="1"/>
        <pt x="720" y="612" on="0"/>
        <pt x="676" y="594" on="0"/>
        <pt x="654" y="586" on="1"/>
        <pt x="654" y="61" on="1"/>
        <pt x="749" y="49" on="1"/>
        <pt x="748" y="0" on="1"/>
        <pt x="453" y="0" on="1"/>
        <pt x="447" y="32" on="1"/>
        <pt x="466" y="42" on="0"/>
        <pt x="510" y="60" on="0"/>
        <pt x="532" y="68" on="1"/>
        <pt x="532" y="286" on="1"/>
        <pt x="235" y="286" on="1"/>
        <pt x="235" y="61" on="1"/>
        <pt x="330" y="49" on="1"/>
        <pt x="329" y="0" on="1"/>
      </contour>
    </TTGlyph>
    <TTGlyph name="I" xMin="28" yMin="0" xMax="330" yMax="654">
      <contour>
        <pt x="34" y="0" on="1"/>
        <pt x="28" y="32" on="1"/>
        <pt x="47" y="42" on="0"/>
        <pt x="91" y="60" on="0"/>
        <pt x="113" y="68" on="1"/>
        <pt x="113" y="595" on="1"/>
        <pt x="36" y="605" on="1"/>
        <pt x="37" y="654" on="1"/>
        <pt x="314" y="654" on="1"/>
        <pt x="320" y="622" on="1"/>
        <pt x="301" y="612" on="0"/>
        <pt x="257" y="594" on="0"/>
        <pt x="235" y="586" on="1"/>
        <pt x="235" y="61" on="1"/>
        <pt x="330" y="49" on="1"/>
        <pt x="329" y="0" on="1"/>
      </contour>
    </TTGlyph>
    <TTGlyph name="Iacute" xMin="28" yMin="0" xMax="340" yMax="886">
      <component glyphName="I" x="0" y="0" flags="0x204"/>
      <component glyphName="acutecomb.case" x="174" y="0" flags="0x4"/>
    </TTGlyph>
    <TTGlyph name="Icircumflex" xMin="-19" yMin="0" xMax="374" yMax="891">
      <component glyphName="I" x="0" y="0" flags="0x204"/>
      <component glyphName="uni0302.case" x="176" y="35" flags="0x4"/>
    </TTGlyph>
    <TTGlyph name="Idieresis" xMin="-2" yMin="0" xMax="353" yMax="878">
      <component glyphName="I" x="0" y="0" flags="0x204"/>
      <component glyphName="uni0308.case" x="175" y="180" flags="0x4"/>
    </TTGlyph>
    <TTGlyph name="Idotaccent" xMin="28" yMin="0" xMax="330" yMax="878">
      <component glyphName="I" x="0" y="0" flags="0x204"/>
      <component glyphName="uni0307.case" x="175" y="180" flags="0x4"/>
    </TTGlyph>
    <TTGlyph name="Igrave" xMin="28" yMin="0" xMax="330" yMax="886">
      <component glyphName="I" x="0" y="0" flags="0x204"/>
      <component glyphName="gravecomb.case" x="177" y="0" flags="0x4"/>
    </TTGlyph>
    <TTGlyph name="Imacron" xMin="31" yMin="0" xMax="352" yMax="800">
      <contour>
        <pt x="31" y="775" on="1"/>
        <pt x="60" y="790" on="0"/>
        <pt x="121" y="800" on="0"/>
        <pt x="144" y="800" on="1"/>
        <pt x="347" y="800" on="1"/>
        <pt x="352" y="759" on="1"/>
        <pt x="305" y="721" on="1"/>
        <pt x="37" y="721" on="1"/>
      </contour>
      <contour>
        <pt x="45" y="0" on="1"/>
        <pt x="39" y="32" on="1"/>
        <pt x="58" y="42" on="0"/>
        <pt x="102" y="60" on="0"/>
        <pt x="124" y="68" on="1"/>
        <pt x="124" y="595" on="1"/>
        <pt x="47" y="605" on="1"/>
        <pt x="48" y="654" on="1"/>
        <pt x="325" y="654" on="1"/>
        <pt x="331" y="622" on="1"/>
        <pt x="312" y="612" on="0"/>
        <pt x="268" y="594" on="0"/>
        <pt x="246" y="586" on="1"/>
        <pt x="246" y="61" on="1"/>
        <pt x="341" y="49" on="1"/>
        <pt x="340" y="0" on="1"/>
      </contour>
    </TTGlyph>
    <TTGlyph name="Iogonek" xMin="28" yMin="-268" xMax="330" yMax="654">
      <component glyphName="I" x="0" y="0" flags="0x204"/>
      <component glyphName="uni0328.case" x="263" y="-9" flags="0x4"/>
    </TTGlyph>
    <TTGlyph name="J" xMin="-11" yMin="-184" xMax="339" yMax="654">
      <contour>
        <pt x="25" y="-184" on="1"/>
        <pt x="-11" y="-131" on="1"/>
        <pt x="52" y="-91" on="0"/>
        <pt x="133" y="22" on="0"/>
        <pt x="133" y="134" on="1"/>
        <pt x="133" y="593" on="1"/>
        <pt x="39" y="605" on="1"/>
        <pt x="40" y="654" on="1"/>
        <pt x="333" y="654" on="1"/>
        <pt x="339" y="622" on="1"/>
        <pt x="320" y="612" on="0"/>
        <pt x="277" y="594" on="0"/>
        <pt x="255" y="586" on="1"/>
        <pt x="255" y="105" on="1"/>
        <pt x="255" y="-8" on="0"/>
        <pt x="117" y="-141" on="0"/>
      </contour>
    </TTGlyph>
    <TTGlyph name="K" xMin="28" yMin="0" xMax="674" yMax="654">
      <contour>
        <pt x="34" y="0" on="1"/>
        <pt x="28" y="32" on="1"/>
        <pt x="47" y="42" on="0"/>
        <pt x="91" y="60" on="0"/>
        <pt x="113" y="68" on="1"/>
        <pt x="113" y="595" on="1"/>
        <pt x="35" y="605" on="1"/>
        <pt x="36" y="654" on="1"/>
        <pt x="314" y="654" on="1"/>
        <pt x="320" y="622" on="1"/>
        <pt x="301" y="612" on="0"/>
        <pt x="257" y="594" on="0"/>
        <pt x="235" y="586" on="1"/>
        <pt x="235" y="345" on="1"/>
        <pt x="469" y="596" on="1"/>
        <pt x="401" y="605" on="1"/>
        <pt x="402" y="654" on="1"/>
        <pt x="635" y="654" on="1"/>
        <pt x="641" y="622" on="1"/>
        <pt x="625" y="613" on="0"/>
        <pt x="585" y="598" on="0"/>
        <pt x="565" y="591" on="1"/>
        <pt x="370" y="384" on="1"/>
        <pt x="615" y="57" on="1"/>
        <pt x="674" y="50" on="1"/>
        <pt x="673" y="0" on="1"/>
        <pt x="504" y="0" on="1"/>
        <pt x="289" y="297" on="1"/>
        <pt x="235" y="240" on="1"/>
        <pt x="235" y="61" on="1"/>
        <pt x="326" y="49" on="1"/>
        <pt x="325" y="0" on="1"/>
      </contour>
    </TTGlyph>
    <TTGlyph name="Kcommaaccent" xMin="28" yMin="-281" xMax="674" yMax="654">
      <component glyphName="K" x="0" y="0" flags="0x204"/>
      <component glyphName="uni0326.case" x="376" y="0" flags="0x4"/>
    </TTGlyph>
    <TTGlyph name="L" xMin="28" yMin="0" xMax="562" yMax="654">
      <contour>
        <pt x="34" y="0" on="1"/>
        <pt x="28" y="32" on="1"/>
        <pt x="47" y="42" on="0"/>
        <pt x="91" y="60" on="0"/>
        <pt x="113" y="68" on="1"/>
        <pt x="113" y="595" on="1"/>
        <pt x="36" y="605" on="1"/>
        <pt x="37" y="654" on="1"/>
        <pt x="314" y="654" on="1"/>
        <pt x="320" y="622" on="1"/>
        <pt x="301" y="612" on="0"/>
        <pt x="257" y="594" on="0"/>
        <pt x="235" y="586" on="1"/>
        <pt x="235" y="75" on="1"/>
        <pt x="456" y="89" on="1"/>
        <pt x="489" y="220" on="1"/>
        <pt x="561" y="215" on="1"/>
        <pt x="562" y="166" on="0"/>
        <pt x="555" y="40" on="0"/>
        <pt x="548" y="0" on="1"/>
      </contour>
    </TTGlyph>
    <TTGlyph name="Lacute" xMin="28" yMin="0" xMax="562" yMax="886">
      <component glyphName="L" x="0" y="0" flags="0x204"/>
      <component glyphName="acutecomb.case" x="177" y="0" flags="0x4"/>
    </TTGlyph>
    <TTGlyph name="Lcaron" xMin="28" yMin="0" xMax="571" yMax="761">
      <component glyphName="L" x="0" y="0" flags="0x204"/>
      <component glyphName="uni030C.calt" x="422" y="1" flags="0x4"/>
    </TTGlyph>
    <TTGlyph name="Lcommaaccent" xMin="28" yMin="-281" xMax="562" yMax="654">
      <component glyphName="L" x="0" y="0" flags="0x204"/>
      <component glyphName="uni0326.case" x="287" y="0" flags="0x4"/>
    </TTGlyph>
    <TTGlyph name="Lslash" xMin="29" yMin="0" xMax="579" yMax="654">
      <contour>
        <pt x="51" y="0" on="1"/>
        <pt x="45" y="32" on="1"/>
        <pt x="64" y="42" on="0"/>
        <pt x="108" y="60" on="0"/>
        <pt x="130" y="68" on="1"/>
        <pt x="130" y="242" on="1"/>
        <pt x="61" y="205" on="1"/>
        <pt x="29" y="264" on="1"/>
        <pt x="130" y="319" on="1"/>
        <pt x="130" y="595" on="1"/>
        <pt x="53" y="605" on="1"/>
        <pt x="54" y="654" on="1"/>
        <pt x="331" y="654" on="1"/>
        <pt x="337" y="622" on="1"/>
        <pt x="318" y="612" on="0"/>
        <pt x="274" y="594" on="0"/>
        <pt x="252" y="586" on="1"/>
        <pt x="252" y="386" on="1"/>
        <pt x="385" y="458" on="1"/>
        <pt x="402" y="435" on="1"/>
        <pt x="390" y="382" on="1"/>
        <pt x="252" y="308" on="1"/>
        <pt x="252" y="75" on="1"/>
        <pt x="473" y="89" on="1"/>
        <pt x="506" y="220" on="1"/>
        <pt x="578" y="215" on="1"/>
        <pt x="579" y="166" on="0"/>
        <pt x="572" y="40" on="0"/>
        <pt x="565" y="0" on="1"/>
      </contour>
    </TTGlyph>
    <TTGlyph name="M" xMin="28" yMin="-7" xMax="899" yMax="650">
      <contour>
        <pt x="500" y="16" on="1"/>
        <pt x="399" y="-7" on="1"/>
        <pt x="200" y="545" on="1"/>
        <pt x="217" y="381" on="1"/>
        <pt x="210" y="61" on="1"/>
        <pt x="295" y="47" on="1"/>
        <pt x="294" y="0" on="1"/>
        <pt x="34" y="0" on="1"/>
        <pt x="28" y="32" on="1"/>
        <pt x="48" y="42" on="0"/>
        <pt x="94" y="61" on="0"/>
        <pt x="116" y="69" on="1"/>
        <pt x="133" y="590" on="1"/>
        <pt x="52" y="603" on="1"/>
        <pt x="53" y="650" on="1"/>
        <pt x="286" y="650" on="1"/>
        <pt x="471" y="133" on="1"/>
        <pt x="658" y="650" on="1"/>
        <pt x="866" y="650" on="1"/>
        <pt x="872" y="618" on="1"/>
        <pt x="855" y="608" on="0"/>
        <pt x="814" y="592" on="0"/>
        <pt x="794" y="585" on="1"/>
        <pt x="803" y="62" on="1"/>
        <pt x="899" y="47" on="1"/>
        <pt x="898" y="0" on="1"/>
        <pt x="605" y="0" on="1"/>
        <pt x="599" y="32" on="1"/>
        <pt x="618" y="42" on="0"/>
        <pt x="663" y="61" on="0"/>
        <pt x="685" y="68" on="1"/>
        <pt x="681" y="381" on="1"/>
        <pt x="695" y="550" on="1"/>
        <pt x="500" y="18" on="1"/>
      </contour>
    </TTGlyph>
    <TTGlyph name="N" xMin="28" yMin="-12" xMax="731" yMax="654">
      <contour>
        <pt x="525" y="-12" on="1"/>
        <pt x="525" y="-12" on="1"/>
        <pt x="524" y="-12" on="1"/>
        <pt x="525" y="-11" on="1"/>
        <pt x="189" y="514" on="1"/>
        <pt x="205" y="384" on="1"/>
        <pt x="205" y="60" on="1"/>
        <pt x="293" y="49" on="1"/>
        <pt x="292" y="0" on="1"/>
        <pt x="34" y="0" on="1"/>
        <pt x="28" y="32" on="1"/>
        <pt x="47" y="42" on="0"/>
        <pt x="91" y="60" on="0"/>
        <pt x="113" y="68" on="1"/>
        <pt x="113" y="596" on="1"/>
        <pt x="45" y="605" on="1"/>
        <pt x="46" y="654" on="1"/>
        <pt x="247" y="654" on="1"/>
        <pt x="572" y="139" on="1"/>
        <pt x="556" y="267" on="1"/>
        <pt x="556" y="592" on="1"/>
        <pt x="458" y="605" on="1"/>
        <pt x="459" y="654" on="1"/>
        <pt x="725" y="654" on="1"/>
        <pt x="731" y="622" on="1"/>
        <pt x="712" y="612" on="0"/>
        <pt x="670" y="594" on="0"/>
        <pt x="648" y="587" on="1"/>
        <pt x="646" y="0" on="1"/>
      </contour>
    </TTGlyph>
    <TTGlyph name="Nacute" xMin="28" yMin="-12" xMax="731" yMax="886">
      <component glyphName="N" x="0" y="0" flags="0x204"/>
      <component glyphName="acutecomb.case" x="359" y="0" flags="0x4"/>
    </TTGlyph>
    <TTGlyph name="Ncaron" xMin="28" yMin="-12" xMax="731" yMax="892">
      <component glyphName="N" x="0" y="0" flags="0x204"/>
      <component glyphName="uni030C.case" x="361" y="35" flags="0x4"/>
    </TTGlyph>
    <TTGlyph name="Ncommaaccent" xMin="28" yMin="-281" xMax="731" yMax="654">
      <component glyphName="N" x="0" y="0" flags="0x204"/>
      <component glyphName="uni0326.case" x="386" y="0" flags="0x4"/>
    </TTGlyph>
    <TTGlyph name="Ntilde" xMin="28" yMin="-12" xMax="731" yMax="875">
      <component glyphName="N" x="0" y="0" flags="0x204"/>
      <component glyphName="tildecomb.case" x="361" y="0" flags="0x4"/>
    </TTGlyph>
    <TTGlyph name="O" xMin="17" yMin="-20" xMax="647" yMax="674">
      <contour>
        <pt x="17" y="323" on="1"/>
        <pt x="17" y="402" on="0"/>
        <pt x="65" y="532" on="0"/>
        <pt x="148" y="624" on="0"/>
        <pt x="262" y="674" on="0"/>
        <pt x="328" y="674" on="1"/>
        <pt x="391" y="674" on="0"/>
        <pt x="507" y="627" on="0"/>
        <pt x="595" y="537" on="0"/>
        <pt x="647" y="404" on="0"/>
        <pt x="647" y="319" on="1"/>
        <pt x="647" y="233" on="0"/>
        <pt x="594" y="105" on="0"/>
        <pt x="507" y="21" on="0"/>
        <pt x="394" y="-20" on="0"/>
        <pt x="335" y="-20" on="1"/>
        <pt x="275" y="-20" on="0"/>
        <pt x="160" y="23" on="0"/>
        <pt x="71" y="108" on="0"/>
        <pt x="17" y="238" on="0"/>
      </contour>
      <contour>
        <pt x="315" y="596" on="1"/>
        <pt x="296" y="596" on="0"/>
        <pt x="252" y="588" on="0"/>
        <pt x="230" y="580" on="1"/>
        <pt x="193" y="551" on="0"/>
        <pt x="148" y="418" on="0"/>
        <pt x="148" y="339" on="1"/>
        <pt x="148" y="284" on="0"/>
        <pt x="172" y="182" on="0"/>
        <pt x="222" y="106" on="0"/>
        <pt x="300" y="60" on="0"/>
        <pt x="353" y="60" on="1"/>
        <pt x="369" y="60" on="0"/>
        <pt x="403" y="65" on="0"/>
        <pt x="420" y="69" on="1"/>
        <pt x="462" y="99" on="0"/>
        <pt x="514" y="231" on="0"/>
        <pt x="514" y="314" on="1"/>
        <pt x="514" y="367" on="0"/>
        <pt x="490" y="469" on="0"/>
        <pt x="442" y="548" on="0"/>
        <pt x="366" y="596" on="0"/>
      </contour>
    </TTGlyph>
    <TTGlyph name="OE" xMin="38" yMin="-13" xMax="887" yMax="669">
      <contour>
        <pt x="370" y="66" on="1"/>
        <pt x="393" y="66" on="0"/>
        <pt x="441" y="72" on="0"/>
        <pt x="460" y="81" on="1"/>
        <pt x="460" y="572" on="1"/>
        <pt x="438" y="581" on="0"/>
        <pt x="385" y="589" on="0"/>
        <pt x="359" y="589" on="1"/>
        <pt x="333" y="589" on="0"/>
        <pt x="282" y="581" on="0"/>
        <pt x="260" y="573" on="1"/>
        <pt x="216" y="539" on="0"/>
        <pt x="166" y="404" on="0"/>
        <pt x="166" y="330" on="1"/>
        <pt x="166" y="280" on="0"/>
        <pt x="190" y="185" on="0"/>
        <pt x="240" y="111" on="0"/>
        <pt x="317" y="66" on="0"/>
      </contour>
      <contour>
        <pt x="874" y="0" on="1"/>
        <pt x="464" y="0" on="1"/>
        <pt x="439" y="-7" on="0"/>
        <pt x="385" y="-13" on="0"/>
        <pt x="358" y="-13" on="1"/>
        <pt x="299" y="-13" on="0"/>
        <pt x="184" y="27" on="0"/>
        <pt x="94" y="111" on="0"/>
        <pt x="38" y="242" on="0"/>
        <pt x="38" y="333" on="1"/>
        <pt x="38" y="421" on="0"/>
        <pt x="100" y="548" on="0"/>
        <pt x="197" y="630" on="0"/>
        <pt x="318" y="669" on="0"/>
        <pt x="377" y="669" on="1"/>
        <pt x="404" y="669" on="0"/>
        <pt x="457" y="661" on="0"/>
        <pt x="482" y="654" on="1"/>
        <pt x="877" y="654" on="1"/>
        <pt x="879" y="627" on="0"/>
        <pt x="873" y="524" on="0"/>
        <pt x="864" y="477" on="1"/>
        <pt x="795" y="477" on="1"/>
        <pt x="780" y="571" on="1"/>
        <pt x="582" y="580" on="1"/>
        <pt x="582" y="360" on="1"/>
        <pt x="798" y="377" on="1"/>
        <pt x="798" y="283" on="1"/>
        <pt x="582" y="292" on="1"/>
        <pt x="582" y="77" on="1"/>
        <pt x="788" y="87" on="1"/>
        <pt x="818" y="194" on="1"/>
        <pt x="886" y="189" on="1"/>
        <pt x="887" y="148" on="0"/>
        <pt x="880" y="36" on="0"/>
      </contour>
    </TTGlyph>
    <TTGlyph name="Oacute" xMin="17" yMin="-20" xMax="647" yMax="886">
      <component glyphName="O" x="0" y="0" flags="0x204"/>
      <component glyphName="acutecomb.case" x="330" y="0" flags="0x4"/>
    </TTGlyph>
    <TTGlyph name="Ocircumflex" xMin="17" yMin="-20" xMax="647" yMax="891">
      <component glyphName="O" x="0" y="0" flags="0x204"/>
      <component glyphName="uni0302.case" x="332" y="35" flags="0x4"/>
    </TTGlyph>
    <TTGlyph name="Odieresis" xMin="17" yMin="-20" xMax="647" yMax="878">
      <component glyphName="O" x="0" y="0" flags="0x204"/>
      <component glyphName="uni0308.case" x="331" y="180" flags="0x4"/>
    </TTGlyph>
    <TTGlyph name="Ograve" xMin="17" yMin="-20" xMax="647" yMax="886">
      <component glyphName="O" x="0" y="0" flags="0x204"/>
      <component glyphName="gravecomb.case" x="333" y="0" flags="0x4"/>
    </TTGlyph>
    <TTGlyph name="Ohungarumlaut" xMin="17" yMin="-20" xMax="647" yMax="921">
      <component glyphName="O" x="0" y="0" flags="0x204"/>
      <component glyphName="uni030B.case" x="331" y="180" flags="0x4"/>
    </TTGlyph>
    <TTGlyph name="Omacron" xMin="17" yMin="-20" xMax="647" yMax="821">
      <component glyphName="O" x="0" y="0" flags="0x204"/>
      <component glyphName="uni0304.case" x="330" y="0" flags="0x4"/>
    </TTGlyph>
    <TTGlyph name="Oslash" xMin="17" yMin="-84" xMax="647" yMax="735">
      <contour>
        <pt x="148" y="339" on="1"/>
        <pt x="148" y="279" on="0"/>
        <pt x="177" y="170" on="0"/>
        <pt x="206" y="131" on="1"/>
        <pt x="429" y="553" on="1"/>
        <pt x="407" y="573" on="0"/>
        <pt x="350" y="596" on="0"/>
        <pt x="315" y="596" on="1"/>
        <pt x="296" y="596" on="0"/>
        <pt x="252" y="588" on="0"/>
        <pt x="230" y="580" on="1"/>
        <pt x="193" y="551" on="0"/>
        <pt x="148" y="418" on="0"/>
      </contour>
      <contour>
        <pt x="353" y="60" on="1"/>
        <pt x="369" y="60" on="0"/>
        <pt x="403" y="65" on="0"/>
        <pt x="420" y="69" on="1"/>
        <pt x="462" y="99" on="0"/>
        <pt x="514" y="231" on="0"/>
        <pt x="514" y="314" on="1"/>
        <pt x="514" y="360" on="0"/>
        <pt x="497" y="448" on="0"/>
        <pt x="479" y="485" on="1"/>
        <pt x="265" y="81" on="1"/>
        <pt x="284" y="71" on="0"/>
        <pt x="328" y="60" on="0"/>
      </contour>
      <contour>
        <pt x="335" y="-20" on="1"/>
        <pt x="306" y="-20" on="0"/>
        <pt x="249" y="-10" on="0"/>
        <pt x="222" y="0" on="1"/>
        <pt x="178" y="-84" on="1"/>
        <pt x="112" y="-48" on="1"/>
        <pt x="155" y="34" on="1"/>
        <pt x="95" y="74" on="0"/>
        <pt x="17" y="220" on="0"/>
        <pt x="17" y="323" on="1"/>
        <pt x="17" y="402" on="0"/>
        <pt x="65" y="532" on="0"/>
        <pt x="148" y="624" on="0"/>
        <pt x="262" y="674" on="0"/>
        <pt x="328" y="674" on="1"/>
        <pt x="367" y="674" on="0"/>
        <pt x="441" y="656" on="0"/>
        <pt x="474" y="639" on="1"/>
        <pt x="525" y="735" on="1"/>
        <pt x="590" y="696" on="1"/>
        <pt x="537" y="595" on="1"/>
        <pt x="586" y="550" on="0"/>
        <pt x="647" y="411" on="0"/>
        <pt x="647" y="319" on="1"/>
        <pt x="647" y="233" on="0"/>
        <pt x="594" y="105" on="0"/>
        <pt x="507" y="21" on="0"/>
        <pt x="394" y="-20" on="0"/>
      </contour>
    </TTGlyph>
    <TTGlyph name="Otilde" xMin="17" yMin="-20" xMax="647" yMax="875">
      <component glyphName="O" x="0" y="0" flags="0x204"/>
      <component glyphName="tildecomb.case" x="332" y="0" flags="0x4"/>
    </TTGlyph>
    <TTGlyph name="P" xMin="28" yMin="0" xMax="589" yMax="662">
      <contour>
        <pt x="324" y="311" on="1"/>
        <pt x="396" y="311" on="0"/>
        <pt x="460" y="399" on="0"/>
        <pt x="460" y="453" on="1"/>
        <pt x="460" y="496" on="0"/>
        <pt x="424" y="576" on="0"/>
        <pt x="390" y="594" on="1"/>
        <pt x="233" y="579" on="1"/>
        <pt x="233" y="319" on="1"/>
        <pt x="259" y="315" on="0"/>
        <pt x="311" y="311" on="0"/>
      </contour>
      <contour>
        <pt x="34" y="0" on="1"/>
        <pt x="28" y="32" on="1"/>
        <pt x="47" y="42" on="0"/>
        <pt x="89" y="60" on="0"/>
        <pt x="111" y="67" on="1"/>
        <pt x="111" y="597" on="1"/>
        <pt x="39" y="604" on="1"/>
        <pt x="40" y="654" on="1"/>
        <pt x="341" y="662" on="1"/>
        <pt x="403" y="662" on="0"/>
        <pt x="496" y="626" on="0"/>
        <pt x="558" y="566" on="0"/>
        <pt x="589" y="490" on="0"/>
        <pt x="589" y="450" on="1"/>
        <pt x="589" y="369" on="0"/>
        <pt x="465" y="242" on="0"/>
        <pt x="350" y="241" on="1"/>
        <pt x="233" y="241" on="1"/>
        <pt x="233" y="65" on="1"/>
        <pt x="352" y="49" on="1"/>
        <pt x="351" y="0" on="1"/>
      </contour>
    </TTGlyph>
    <TTGlyph name="Q" xMin="17" yMin="-172" xMax="747" yMax="674">
      <contour>
        <pt x="694" y="-172" on="1"/>
        <pt x="386" y="-16" on="1"/>
        <pt x="373" y="-18" on="0"/>
        <pt x="348" y="-20" on="0"/>
        <pt x="335" y="-20" on="1"/>
        <pt x="275" y="-20" on="0"/>
        <pt x="160" y="23" on="0"/>
        <pt x="71" y="108" on="0"/>
        <pt x="17" y="238" on="0"/>
        <pt x="17" y="323" on="1"/>
        <pt x="17" y="402" on="0"/>
        <pt x="65" y="532" on="0"/>
        <pt x="148" y="624" on="0"/>
        <pt x="262" y="674" on="0"/>
        <pt x="328" y="674" on="1"/>
        <pt x="391" y="674" on="0"/>
        <pt x="507" y="627" on="0"/>
        <pt x="595" y="537" on="0"/>
        <pt x="647" y="404" on="0"/>
        <pt x="647" y="319" on="1"/>
        <pt x="647" y="203" on="0"/>
        <pt x="553" y="51" on="0"/>
        <pt x="482" y="15" on="1"/>
        <pt x="747" y="-56" on="1"/>
      </contour>
      <contour>
        <pt x="315" y="596" on="1"/>
        <pt x="296" y="596" on="0"/>
        <pt x="252" y="588" on="0"/>
        <pt x="230" y="580" on="1"/>
        <pt x="193" y="551" on="0"/>
        <pt x="148" y="418" on="0"/>
        <pt x="148" y="339" on="1"/>
        <pt x="148" y="284" on="0"/>
        <pt x="172" y="182" on="0"/>
        <pt x="222" y="106" on="0"/>
        <pt x="300" y="60" on="0"/>
        <pt x="353" y="60" on="1"/>
        <pt x="369" y="60" on="0"/>
        <pt x="403" y="65" on="0"/>
        <pt x="420" y="69" on="1"/>
        <pt x="462" y="99" on="0"/>
        <pt x="514" y="231" on="0"/>
        <pt x="514" y="314" on="1"/>
        <pt x="514" y="367" on="0"/>
        <pt x="490" y="469" on="0"/>
        <pt x="442" y="548" on="0"/>
        <pt x="366" y="596" on="0"/>
      </contour>
    </TTGlyph>
    <TTGlyph name="R" xMin="28" yMin="0" xMax="653" yMax="662">
      <contour>
        <pt x="311" y="324" on="1"/>
        <pt x="401" y="324" on="0"/>
        <pt x="461" y="414" on="0"/>
        <pt x="461" y="463" on="1"/>
        <pt x="461" y="503" on="0"/>
        <pt x="428" y="574" on="0"/>
        <pt x="392" y="594" on="1"/>
        <pt x="235" y="579" on="1"/>
        <pt x="235" y="332" on="1"/>
        <pt x="256" y="328" on="0"/>
        <pt x="295" y="324" on="0"/>
      </contour>
      <contour>
        <pt x="34" y="0" on="1"/>
        <pt x="28" y="32" on="1"/>
        <pt x="47" y="42" on="0"/>
        <pt x="91" y="60" on="0"/>
        <pt x="113" y="68" on="1"/>
        <pt x="113" y="597" on="1"/>
        <pt x="41" y="604" on="1"/>
        <pt x="42" y="654" on="1"/>
        <pt x="341" y="662" on="1"/>
        <pt x="463" y="662" on="0"/>
        <pt x="591" y="540" on="0"/>
        <pt x="591" y="464" on="1"/>
        <pt x="591" y="407" on="0"/>
        <pt x="519" y="300" on="0"/>
        <pt x="453" y="275" on="1"/>
        <pt x="587" y="57" on="1"/>
        <pt x="653" y="49" on="1"/>
        <pt x="652" y="0" on="1"/>
        <pt x="476" y="0" on="1"/>
        <pt x="336" y="257" on="1"/>
        <pt x="235" y="256" on="1"/>
        <pt x="235" y="62" on="1"/>
        <pt x="334" y="49" on="1"/>
        <pt x="333" y="0" on="1"/>
      </contour>
    </TTGlyph>
    <TTGlyph name="Racute" xMin="28" yMin="0" xMax="653" yMax="886">
      <component glyphName="R" x="0" y="0" flags="0x204"/>
      <component glyphName="acutecomb.case" x="298" y="0" flags="0x4"/>
    </TTGlyph>
    <TTGlyph name="Rcaron" xMin="28" yMin="0" xMax="653" yMax="892">
      <component glyphName="R" x="0" y="0" flags="0x204"/>
      <component glyphName="uni030C.case" x="300" y="35" flags="0x4"/>
    </TTGlyph>
    <TTGlyph name="Rcommaaccent" xMin="28" yMin="-281" xMax="653" yMax="662">
      <component glyphName="R" x="0" y="0" flags="0x204"/>
      <component glyphName="uni0326.case" x="319" y="0" flags="0x4"/>
    </TTGlyph>
    <TTGlyph name="S" xMin="52" yMin="-20" xMax="513" yMax="674">
      <contour>
        <pt x="279" y="-20" on="1"/>
        <pt x="228" y="-20" on="0"/>
        <pt x="94" y="14" on="0"/>
        <pt x="54" y="47" on="1"/>
        <pt x="55" y="50" on="1"/>
        <pt x="52" y="78" on="0"/>
        <pt x="58" y="181" on="0"/>
        <pt x="67" y="224" on="1"/>
        <pt x="130" y="224" on="1"/>
        <pt x="162" y="92" on="1"/>
        <pt x="204" y="67" on="0"/>
        <pt x="295" y="53" on="0"/>
        <pt x="334" y="55" on="1"/>
        <pt x="363" y="70" on="0"/>
        <pt x="390" y="122" on="0"/>
        <pt x="390" y="148" on="1"/>
        <pt x="390" y="197" on="0"/>
        <pt x="306" y="253" on="0"/>
        <pt x="241" y="284" on="1"/>
        <pt x="209" y="299" on="0"/>
        <pt x="143" y="335" on="0"/>
        <pt x="90" y="382" on="0"/>
        <pt x="57" y="444" on="0"/>
        <pt x="57" y="485" on="1"/>
        <pt x="57" y="530" on="0"/>
        <pt x="97" y="600" on="0"/>
        <pt x="163" y="649" on="0"/>
        <pt x="253" y="674" on="0"/>
        <pt x="302" y="674" on="1"/>
        <pt x="352" y="674" on="0"/>
        <pt x="449" y="652" on="0"/>
        <pt x="483" y="641" on="1"/>
        <pt x="484" y="610" on="0"/>
        <pt x="479" y="510" on="0"/>
        <pt x="470" y="464" on="1"/>
        <pt x="403" y="464" on="1"/>
        <pt x="384" y="568" on="1"/>
        <pt x="347" y="590" on="0"/>
        <pt x="262" y="604" on="0"/>
        <pt x="222" y="600" on="1"/>
        <pt x="198" y="586" on="0"/>
        <pt x="175" y="537" on="0"/>
        <pt x="175" y="514" on="1"/>
        <pt x="175" y="468" on="0"/>
        <pt x="264" y="414" on="0"/>
        <pt x="327" y="384" on="1"/>
        <pt x="396" y="352" on="0"/>
        <pt x="513" y="264" on="0"/>
        <pt x="513" y="177" on="1"/>
        <pt x="513" y="130" on="0"/>
        <pt x="474" y="56" on="0"/>
        <pt x="410" y="6" on="0"/>
        <pt x="325" y="-20" on="0"/>
      </contour>
    </TTGlyph>
    <TTGlyph name="Sacute" xMin="52" yMin="-20" xMax="513" yMax="886">
      <component glyphName="S" x="0" y="0" flags="0x204"/>
      <component glyphName="acutecomb.case" x="282" y="0" flags="0x4"/>
    </TTGlyph>
    <TTGlyph name="Scaron" xMin="52" yMin="-20" xMax="513" yMax="892">
      <component glyphName="S" x="0" y="0" flags="0x204"/>
      <component glyphName="uni030C.case" x="284" y="35" flags="0x4"/>
    </TTGlyph>
    <TTGlyph name="Scedilla" xMin="52" yMin="-267" xMax="513" yMax="674">
      <component glyphName="S" x="0" y="0" flags="0x204"/>
      <component glyphName="uni0327.case" x="271" y="0" flags="0x4"/>
    </TTGlyph>
    <TTGlyph name="Scommaaccent" xMin="52" yMin="-281" xMax="513" yMax="674">
      <component glyphName="S" x="0" y="0" flags="0x204"/>
      <component glyphName="uni0326.case" x="271" y="0" flags="0x4"/>
    </TTGlyph>
    <TTGlyph name="T" xMin="7" yMin="0" xMax="613" yMax="660">
      <contour>
        <pt x="150" y="0" on="1"/>
        <pt x="144" y="32" on="1"/>
        <pt x="165" y="43" on="0"/>
        <pt x="224" y="62" on="0"/>
        <pt x="249" y="71" on="1"/>
        <pt x="249" y="591" on="1"/>
        <pt x="103" y="583" on="1"/>
        <pt x="90" y="470" on="1"/>
        <pt x="23" y="470" on="1"/>
        <pt x="14" y="517" on="0"/>
        <pt x="7" y="633" on="0"/>
        <pt x="10" y="660" on="1"/>
        <pt x="169" y="656" on="0"/>
        <pt x="454" y="656" on="0"/>
        <pt x="611" y="660" on="1"/>
        <pt x="613" y="633" on="0"/>
        <pt x="606" y="517" on="0"/>
        <pt x="598" y="470" on="1"/>
        <pt x="530" y="470" on="1"/>
        <pt x="517" y="583" on="1"/>
        <pt x="371" y="591" on="1"/>
        <pt x="371" y="63" on="1"/>
        <pt x="480" y="49" on="1"/>
        <pt x="479" y="0" on="1"/>
      </contour>
    </TTGlyph>
    <TTGlyph name="Tcaron" xMin="7" yMin="0" xMax="613" yMax="892">
      <component glyphName="T" x="0" y="0" flags="0x204"/>
      <component glyphName="uni030C.case" x="312" y="35" flags="0x4"/>
    </TTGlyph>
    <TTGlyph name="Thorn" xMin="29" yMin="0" xMax="574" yMax="650">
      <contour>
        <pt x="294" y="222" on="1"/>
        <pt x="379" y="222" on="0"/>
        <pt x="447" y="290" on="0"/>
        <pt x="447" y="335" on="1"/>
        <pt x="447" y="370" on="0"/>
        <pt x="412" y="433" on="0"/>
        <pt x="375" y="453" on="1"/>
        <pt x="240" y="431" on="1"/>
        <pt x="240" y="226" on="1"/>
        <pt x="252" y="225" on="0"/>
        <pt x="278" y="222" on="0"/>
      </contour>
      <contour>
        <pt x="35" y="0" on="1"/>
        <pt x="29" y="35" on="1"/>
        <pt x="45" y="45" on="0"/>
        <pt x="102" y="66" on="0"/>
        <pt x="118" y="72" on="1"/>
        <pt x="118" y="590" on="1"/>
        <pt x="37" y="601" on="1"/>
        <pt x="38" y="650" on="1"/>
        <pt x="323" y="650" on="1"/>
        <pt x="329" y="616" on="1"/>
        <pt x="313" y="606" on="0"/>
        <pt x="256" y="585" on="0"/>
        <pt x="240" y="579" on="1"/>
        <pt x="240" y="519" on="1"/>
        <pt x="339" y="519" on="1"/>
        <pt x="399" y="519" on="0"/>
        <pt x="488" y="486" on="0"/>
        <pt x="546" y="434" on="0"/>
        <pt x="574" y="367" on="0"/>
        <pt x="574" y="334" on="1"/>
        <pt x="574" y="263" on="0"/>
        <pt x="449" y="152" on="0"/>
        <pt x="327" y="151" on="1"/>
        <pt x="240" y="151" on="1"/>
        <pt x="240" y="61" on="1"/>
        <pt x="335" y="49" on="1"/>
        <pt x="334" y="0" on="1"/>
      </contour>
    </TTGlyph>
    <TTGlyph name="U" xMin="9" yMin="-19" xMax="709" yMax="654">
      <contour>
        <pt x="374" y="-19" on="1"/>
        <pt x="249" y="-19" on="0"/>
        <pt x="86" y="138" on="0"/>
        <pt x="86" y="289" on="1"/>
        <pt x="86" y="595" on="1"/>
        <pt x="9" y="605" on="1"/>
        <pt x="10" y="654" on="1"/>
        <pt x="287" y="654" on="1"/>
        <pt x="293" y="622" on="1"/>
        <pt x="274" y="612" on="0"/>
        <pt x="230" y="594" on="0"/>
        <pt x="208" y="586" on="1"/>
        <pt x="208" y="269" on="1"/>
        <pt x="208" y="169" on="0"/>
        <pt x="302" y="65" on="0"/>
        <pt x="383" y="65" on="1"/>
        <pt x="411" y="65" on="0"/>
        <pt x="455" y="76" on="0"/>
        <pt x="474" y="86" on="1"/>
        <pt x="503" y="110" on="0"/>
        <pt x="533" y="207" on="0"/>
        <pt x="533" y="279" on="1"/>
        <pt x="533" y="594" on="1"/>
        <pt x="446" y="605" on="1"/>
        <pt x="447" y="654" on="1"/>
        <pt x="703" y="654" on="1"/>
        <pt x="709" y="622" on="1"/>
        <pt x="690" y="612" on="0"/>
        <pt x="646" y="594" on="0"/>
        <pt x="624" y="586" on="1"/>
        <pt x="624" y="292" on="1"/>
        <pt x="624" y="125" on="0"/>
        <pt x="487" y="-19" on="0"/>
      </contour>
    </TTGlyph>
    <TTGlyph name="Uacute" xMin="9" yMin="-19" xMax="709" yMax="886">
      <component glyphName="U" x="0" y="0" flags="0x204"/>
      <component glyphName="acutecomb.case" x="362" y="0" flags="0x4"/>
    </TTGlyph>
    <TTGlyph name="Ucircumflex" xMin="9" yMin="-19" xMax="709" yMax="891">
      <component glyphName="U" x="0" y="0" flags="0x204"/>
      <component glyphName="uni0302.case" x="364" y="35" flags="0x4"/>
    </TTGlyph>
    <TTGlyph name="Udieresis" xMin="9" yMin="-19" xMax="709" yMax="878">
      <component glyphName="U" x="0" y="0" flags="0x204"/>
      <component glyphName="uni0308.case" x="363" y="180" flags="0x4"/>
    </TTGlyph>
    <TTGlyph name="Ugrave" xMin="9" yMin="-19" xMax="709" yMax="886">
      <component glyphName="U" x="0" y="0" flags="0x204"/>
      <component glyphName="gravecomb.case" x="365" y="0" flags="0x4"/>
    </TTGlyph>
    <TTGlyph name="Uhungarumlaut" xMin="9" yMin="-19" xMax="709" yMax="921">
      <component glyphName="U" x="0" y="0" flags="0x204"/>
      <component glyphName="uni030B.case" x="363" y="180" flags="0x4"/>
    </TTGlyph>
    <TTGlyph name="Umacron" xMin="9" yMin="-19" xMax="709" yMax="821">
      <component glyphName="U" x="0" y="0" flags="0x204"/>
      <component glyphName="uni0304.case" x="362" y="0" flags="0x4"/>
    </TTGlyph>
    <TTGlyph name="Uogonek" xMin="9" yMin="-268" xMax="709" yMax="654">
      <component glyphName="U" x="0" y="0" flags="0x204"/>
      <component glyphName="uni0328.case" x="482" y="-9" flags="0x4"/>
    </TTGlyph>
    <TTGlyph name="Uring" xMin="9" yMin="-19" xMax="709" yMax="937">
      <component glyphName="U" x="0" y="0" flags="0x204"/>
      <component glyphName="uni030A.case" x="363" y="0" flags="0x4"/>
    </TTGlyph>
    <TTGlyph name="V" xMin="-1" yMin="-12" xMax="695" yMax="654">
      <contour>
        <pt x="286" y="-12" on="1"/>
        <pt x="75" y="595" on="1"/>
        <pt x="-1" y="605" on="1"/>
        <pt x="0" y="654" on="1"/>
        <pt x="288" y="654" on="1"/>
        <pt x="294" y="622" on="1"/>
        <pt x="275" y="612" on="0"/>
        <pt x="229" y="593" on="0"/>
        <pt x="207" y="585" on="1"/>
        <pt x="334" y="205" on="1"/>
        <pt x="347" y="80" on="1"/>
        <pt x="353" y="80" on="1"/>
        <pt x="528" y="593" on="1"/>
        <pt x="438" y="605" on="1"/>
        <pt x="439" y="654" on="1"/>
        <pt x="689" y="654" on="1"/>
        <pt x="695" y="622" on="1"/>
        <pt x="678" y="612" on="0"/>
        <pt x="638" y="596" on="0"/>
        <pt x="618" y="589" on="1"/>
        <pt x="407" y="0" on="1"/>
        <pt x="408" y="-1" on="1"/>
        <pt x="381" y="-6" on="0"/>
        <pt x="317" y="-12" on="0"/>
      </contour>
    </TTGlyph>
    <TTGlyph name="W" xMin="1" yMin="-13" xMax="952" yMax="654">
      <contour>
        <pt x="377" y="-2" on="1"/>
        <pt x="348" y="-7" on="0"/>
        <pt x="287" y="-13" on="0"/>
        <pt x="253" y="-12" on="1"/>
        <pt x="73" y="596" on="1"/>
        <pt x="1" y="605" on="1"/>
        <pt x="2" y="654" on="1"/>
        <pt x="282" y="654" on="1"/>
        <pt x="288" y="622" on="1"/>
        <pt x="269" y="612" on="0"/>
        <pt x="225" y="594" on="0"/>
        <pt x="203" y="586" on="1"/>
        <pt x="307" y="205" on="1"/>
        <pt x="317" y="80" on="1"/>
        <pt x="321" y="80" on="1"/>
        <pt x="438" y="479" on="1"/>
        <pt x="398" y="616" on="1"/>
        <pt x="518" y="645" on="1"/>
        <pt x="632" y="209" on="1"/>
        <pt x="644" y="80" on="1"/>
        <pt x="647" y="80" on="1"/>
        <pt x="786" y="592" on="1"/>
        <pt x="687" y="605" on="1"/>
        <pt x="688" y="654" on="1"/>
        <pt x="946" y="654" on="1"/>
        <pt x="952" y="622" on="1"/>
        <pt x="935" y="613" on="0"/>
        <pt x="895" y="596" on="0"/>
        <pt x="876" y="589" on="1"/>
        <pt x="708" y="-2" on="1"/>
        <pt x="679" y="-7" on="0"/>
        <pt x="616" y="-13" on="0"/>
        <pt x="582" y="-12" on="1"/>
        <pt x="474" y="357" on="1"/>
        <pt x="453" y="241" on="1"/>
        <pt x="378" y="-2" on="1"/>
        <pt x="377" y="-1" on="1"/>
      </contour>
    </TTGlyph>
    <TTGlyph name="X" xMin="6" yMin="0" xMax="682" yMax="654">
      <contour>
        <pt x="12" y="0" on="1"/>
        <pt x="6" y="32" on="1"/>
        <pt x="25" y="42" on="0"/>
        <pt x="67" y="60" on="0"/>
        <pt x="88" y="67" on="1"/>
        <pt x="278" y="341" on="1"/>
        <pt x="108" y="596" on="1"/>
        <pt x="40" y="605" on="1"/>
        <pt x="41" y="654" on="1"/>
        <pt x="295" y="654" on="1"/>
        <pt x="301" y="622" on="1"/>
        <pt x="288" y="615" on="0"/>
        <pt x="260" y="603" on="0"/>
        <pt x="246" y="597" on="1"/>
        <pt x="370" y="413" on="1"/>
        <pt x="480" y="595" on="1"/>
        <pt x="406" y="605" on="1"/>
        <pt x="407" y="654" on="1"/>
        <pt x="642" y="654" on="1"/>
        <pt x="648" y="622" on="1"/>
        <pt x="631" y="612" on="0"/>
        <pt x="591" y="596" on="0"/>
        <pt x="570" y="589" on="1"/>
        <pt x="414" y="349" on="1"/>
        <pt x="611" y="57" on="1"/>
        <pt x="682" y="49" on="1"/>
        <pt x="681" y="0" on="1"/>
        <pt x="405" y="0" on="1"/>
        <pt x="399" y="32" on="1"/>
        <pt x="414" y="40" on="0"/>
        <pt x="448" y="54" on="0"/>
        <pt x="465" y="61" on="1"/>
        <pt x="325" y="271" on="1"/>
        <pt x="187" y="60" on="1"/>
        <pt x="272" y="49" on="1"/>
        <pt x="271" y="0" on="1"/>
      </contour>
    </TTGlyph>
    <TTGlyph name="Y" xMin="-1" yMin="0" xMax="624" yMax="654">
      <contour>
        <pt x="175" y="0" on="1"/>
        <pt x="169" y="32" on="1"/>
        <pt x="187" y="42" on="0"/>
        <pt x="228" y="59" on="0"/>
        <pt x="248" y="66" on="1"/>
        <pt x="248" y="250" on="1"/>
        <pt x="62" y="597" on="1"/>
        <pt x="-1" y="605" on="1"/>
        <pt x="0" y="654" on="1"/>
        <pt x="247" y="654" on="1"/>
        <pt x="253" y="622" on="1"/>
        <pt x="240" y="615" on="0"/>
        <pt x="208" y="601" on="0"/>
        <pt x="192" y="595" on="1"/>
        <pt x="293" y="404" on="1"/>
        <pt x="320" y="321" on="1"/>
        <pt x="325" y="321" on="1"/>
        <pt x="462" y="595" on="1"/>
        <pt x="385" y="605" on="1"/>
        <pt x="386" y="654" on="1"/>
        <pt x="618" y="654" on="1"/>
        <pt x="624" y="622" on="1"/>
        <pt x="608" y="613" on="0"/>
        <pt x="569" y="597" on="0"/>
        <pt x="549" y="590" on="1"/>
        <pt x="368" y="255" on="1"/>
        <pt x="368" y="60" on="1"/>
        <pt x="451" y="49" on="1"/>
        <pt x="450" y="0" on="1"/>
      </contour>
    </TTGlyph>
    <TTGlyph name="Yacute" xMin="-1" yMin="0" xMax="624" yMax="886">
      <component glyphName="Y" x="0" y="0" flags="0x204"/>
      <component glyphName="acutecomb.case" x="320" y="0" flags="0x4"/>
    </TTGlyph>
    <TTGlyph name="Ydieresis" xMin="-1" yMin="0" xMax="624" yMax="878">
      <component glyphName="Y" x="0" y="0" flags="0x204"/>
      <component glyphName="uni0308.case" x="321" y="180" flags="0x4"/>
    </TTGlyph>
    <TTGlyph name="Z" xMin="34" yMin="0" xMax="567" yMax="654">
      <contour>
        <pt x="541" y="0" on="1"/>
        <pt x="64" y="0" on="1"/>
        <pt x="34" y="56" on="1"/>
        <pt x="413" y="586" on="1"/>
        <pt x="163" y="573" on="1"/>
        <pt x="141" y="455" on="1"/>
        <pt x="72" y="455" on="1"/>
        <pt x="64" y="504" on="0"/>
        <pt x="60" y="621" on="0"/>
        <pt x="63" y="654" on="1"/>
        <pt x="532" y="654" on="1"/>
        <pt x="531" y="652" on="1"/>
        <pt x="533" y="654" on="1"/>
        <pt x="560" y="598" on="1"/>
        <pt x="189" y="81" on="1"/>
        <pt x="454" y="86" on="1"/>
        <pt x="493" y="208" on="1"/>
        <pt x="567" y="198" on="1"/>
        <pt x="564" y="148" on="0"/>
        <pt x="551" y="52" on="0"/>
      </contour>
    </TTGlyph>
    <TTGlyph name="Zacute" xMin="34" yMin="0" xMax="567" yMax="886">
      <component glyphName="Z" x="0" y="0" flags="0x204"/>
      <component glyphName="acutecomb.case" x="304" y="0" flags="0x4"/>
    </TTGlyph>
    <TTGlyph name="Zcaron" xMin="34" yMin="0" xMax="567" yMax="892">
      <component glyphName="Z" x="0" y="0" flags="0x204"/>
      <component glyphName="uni030C.case" x="306" y="35" flags="0x4"/>
    </TTGlyph>
    <TTGlyph name="Zdotaccent" xMin="34" yMin="0" xMax="567" yMax="879">
      <component glyphName="Z" x="0" y="0" flags="0x204"/>
      <component glyphName="uni0307.case" x="305" y="181" flags="0x4"/>
    </TTGlyph>
    <TTGlyph name="a" xMin="43" yMin="-19" xMax="513" yMax="496">
      <contour>
        <pt x="402" y="-16" on="1"/>
        <pt x="383" y="-15" on="0"/>
        <pt x="333" y="27" on="0"/>
        <pt x="320" y="55" on="1"/>
        <pt x="210" y="-14" on="1"/>
        <pt x="167" y="-19" on="0"/>
        <pt x="104" y="0" on="0"/>
        <pt x="63" y="37" on="0"/>
        <pt x="43" y="84" on="0"/>
        <pt x="43" y="107" on="1"/>
        <pt x="43" y="136" on="0"/>
        <pt x="77" y="197" on="0"/>
        <pt x="117" y="218" on="1"/>
        <pt x="310" y="223" on="1"/>
        <pt x="310" y="319" on="1"/>
        <pt x="310" y="365" on="0"/>
        <pt x="286" y="411" on="0"/>
        <pt x="262" y="424" on="1"/>
        <pt x="238" y="423" on="0"/>
        <pt x="185" y="414" on="0"/>
        <pt x="168" y="408" on="1"/>
        <pt x="155" y="302" on="1"/>
        <pt x="87" y="299" on="1"/>
        <pt x="74" y="327" on="0"/>
        <pt x="61" y="396" on="0"/>
        <pt x="62" y="429" on="1"/>
        <pt x="87" y="442" on="0"/>
        <pt x="154" y="466" on="0"/>
        <pt x="221" y="485" on="0"/>
        <pt x="280" y="496" on="0"/>
        <pt x="297" y="496" on="1"/>
        <pt x="332" y="496" on="0"/>
        <pt x="400" y="451" on="0"/>
        <pt x="416" y="425" on="1"/>
        <pt x="423" y="412" on="0"/>
        <pt x="428" y="371" on="0"/>
        <pt x="428" y="322" on="1"/>
        <pt x="428" y="98" on="1"/>
        <pt x="428" y="87" on="0"/>
        <pt x="442" y="77" on="0"/>
        <pt x="453" y="77" on="1"/>
        <pt x="464" y="77" on="0"/>
        <pt x="489" y="82" on="0"/>
        <pt x="501" y="84" on="1"/>
        <pt x="513" y="40" on="1"/>
      </contour>
      <contour>
        <pt x="186" y="66" on="1"/>
        <pt x="217" y="66" on="0"/>
        <pt x="285" y="86" on="0"/>
        <pt x="310" y="96" on="1"/>
        <pt x="310" y="168" on="1"/>
        <pt x="286" y="170" on="0"/>
        <pt x="234" y="168" on="0"/>
        <pt x="191" y="156" on="0"/>
        <pt x="163" y="132" on="0"/>
        <pt x="163" y="111" on="1"/>
        <pt x="163" y="98" on="0"/>
        <pt x="174" y="74" on="0"/>
      </contour>
    </TTGlyph>
    <TTGlyph name="aacute" xMin="43" yMin="-19" xMax="513" yMax="751">
      <component glyphName="a" x="0" y="0" flags="0x204"/>
      <component glyphName="acutecomb" x="252" y="-2" flags="0x4"/>
    </TTGlyph>
    <TTGlyph name="abreve" xMin="43" yMin="-19" xMax="513" yMax="715">
      <component glyphName="a" x="0" y="0" flags="0x204"/>
      <component glyphName="uni0306" x="253" y="-2" flags="0x4"/>
    </TTGlyph>
    <TTGlyph name="acircumflex" xMin="43" yMin="-19" xMax="513" yMax="724">
      <component glyphName="a" x="0" y="0" flags="0x204"/>
      <component glyphName="uni0302" x="252" y="-2" flags="0x4"/>
    </TTGlyph>
    <TTGlyph name="acute" xMin="25" yMin="532" xMax="256" yMax="753">
      <component glyphName="acutecomb" x="114" y="0" flags="0x4"/>
    </TTGlyph>
    <TTGlyph name="acutecomb" xMin="-89" yMin="532" xMax="142" yMax="753">
      <contour>
        <pt x="142" y="681" on="1"/>
        <pt x="97" y="644" on="0"/>
        <pt x="17" y="572" on="0"/>
        <pt x="-25" y="532" on="1"/>
        <pt x="-89" y="583" on="1"/>
        <pt x="57" y="753" on="1"/>
      </contour>
    </TTGlyph>
    <TTGlyph name="acutecomb.case" xMin="-120" yMin="690" xMax="166" yMax="886">
      <contour>
        <pt x="-81" y="690" on="1"/>
        <pt x="-120" y="755" on="1"/>
        <pt x="112" y="886" on="1"/>
        <pt x="166" y="789" on="1"/>
        <pt x="103" y="765" on="0"/>
        <pt x="-18" y="716" on="0"/>
      </contour>
    </TTGlyph>
    <TTGlyph name="adieresis" xMin="43" yMin="-19" xMax="513" yMax="696">
      <component glyphName="a" x="0" y="0" flags="0x204"/>
      <component glyphName="uni0308" x="252" y="-2" flags="0x4"/>
    </TTGlyph>
    <TTGlyph name="ae" xMin="43" yMin="-19" xMax="742" yMax="495">
      <contour>
        <pt x="506" y="424" on="1"/>
        <pt x="475" y="406" on="0"/>
        <pt x="437" y="348" on="0"/>
        <pt x="430" y="312" on="1"/>
        <pt x="630" y="322" on="1"/>
        <pt x="622" y="367" on="0"/>
        <pt x="553" y="425" on="0"/>
      </contour>
      <contour>
        <pt x="186" y="66" on="1"/>
        <pt x="217" y="66" on="0"/>
        <pt x="309" y="95" on="0"/>
        <pt x="340" y="108" on="1"/>
        <pt x="333" y="122" on="0"/>
        <pt x="322" y="152" on="0"/>
        <pt x="318" y="168" on="1"/>
        <pt x="314" y="168" on="1"/>
        <pt x="290" y="170" on="0"/>
        <pt x="236" y="169" on="0"/>
        <pt x="192" y="157" on="0"/>
        <pt x="163" y="132" on="0"/>
        <pt x="163" y="111" on="1"/>
        <pt x="163" y="98" on="0"/>
        <pt x="174" y="74" on="0"/>
      </contour>
      <contour>
        <pt x="210" y="-14" on="1"/>
        <pt x="167" y="-19" on="0"/>
        <pt x="104" y="0" on="0"/>
        <pt x="63" y="37" on="0"/>
        <pt x="43" y="84" on="0"/>
        <pt x="43" y="107" on="1"/>
        <pt x="43" y="136" on="0"/>
        <pt x="77" y="197" on="0"/>
        <pt x="117" y="218" on="1"/>
        <pt x="311" y="223" on="1"/>
        <pt x="311" y="317" on="1"/>
        <pt x="311" y="364" on="0"/>
        <pt x="287" y="410" on="0"/>
        <pt x="263" y="422" on="1"/>
        <pt x="239" y="421" on="0"/>
        <pt x="186" y="412" on="0"/>
        <pt x="169" y="407" on="1"/>
        <pt x="156" y="301" on="1"/>
        <pt x="86" y="299" on="1"/>
        <pt x="73" y="327" on="0"/>
        <pt x="62" y="394" on="0"/>
        <pt x="63" y="428" on="1"/>
        <pt x="88" y="440" on="0"/>
        <pt x="155" y="464" on="0"/>
        <pt x="221" y="483" on="0"/>
        <pt x="282" y="495" on="0"/>
        <pt x="302" y="495" on="1"/>
        <pt x="330" y="494" on="0"/>
        <pt x="383" y="455" on="0"/>
        <pt x="399" y="433" on="1"/>
        <pt x="428" y="460" on="0"/>
        <pt x="505" y="492" on="0"/>
        <pt x="549" y="492" on="1"/>
        <pt x="625" y="492" on="0"/>
        <pt x="742" y="393" on="0"/>
        <pt x="741" y="304" on="1"/>
        <pt x="738" y="303" on="1"/>
        <pt x="681" y="248" on="1"/>
        <pt x="424" y="252" on="1"/>
        <pt x="424" y="251" on="1"/>
        <pt x="424" y="154" on="0"/>
        <pt x="518" y="73" on="0"/>
        <pt x="583" y="73" on="1"/>
        <pt x="617" y="73" on="0"/>
        <pt x="680" y="91" on="0"/>
        <pt x="714" y="107" on="1"/>
        <pt x="732" y="60" on="1"/>
        <pt x="576" y="-14" on="1"/>
        <pt x="507" y="-17" on="0"/>
        <pt x="401" y="29" on="0"/>
        <pt x="367" y="69" on="1"/>
      </contour>
    </TTGlyph>
    <TTGlyph name="agrave" xMin="43" yMin="-19" xMax="513" yMax="751">
      <component glyphName="a" x="0" y="0" flags="0x204"/>
      <component glyphName="gravecomb" x="252" y="-2" flags="0x4"/>
    </TTGlyph>
    <TTGlyph name="amacron" xMin="43" yMin="-19" xMax="513" yMax="641">
      <component glyphName="a" x="0" y="0" flags="0x204"/>
      <component glyphName="uni0304" x="251" y="-2" flags="0x4"/>
    </TTGlyph>
    <TTGlyph name="ampersand" xMin="19" yMin="-26" xMax="703" yMax="668">
      <contour>
        <pt x="576" y="222" on="1"/>
        <pt x="576" y="120" on="0"/>
        <pt x="430" y="-26" on="0"/>
        <pt x="300" y="-26" on="1"/>
        <pt x="242" y="-26" on="0"/>
        <pt x="139" y="6" on="0"/>
        <pt x="63" y="64" on="0"/>
        <pt x="19" y="147" on="0"/>
        <pt x="19" y="197" on="1"/>
        <pt x="19" y="255" on="0"/>
        <pt x="80" y="343" on="0"/>
        <pt x="129" y="364" on="1"/>
        <pt x="84" y="387" on="0"/>
        <pt x="40" y="461" on="0"/>
        <pt x="40" y="501" on="1"/>
        <pt x="40" y="563" on="0"/>
        <pt x="150" y="668" on="0"/>
        <pt x="259" y="668" on="1"/>
        <pt x="300" y="668" on="0"/>
        <pt x="399" y="649" on="0"/>
        <pt x="451" y="628" on="1"/>
        <pt x="414" y="525" on="1"/>
        <pt x="224" y="592" on="1"/>
        <pt x="190" y="576" on="0"/>
        <pt x="155" y="517" on="0"/>
        <pt x="155" y="484" on="1"/>
        <pt x="155" y="459" on="0"/>
        <pt x="176" y="411" on="0"/>
        <pt x="196" y="393" on="1"/>
        <pt x="302" y="362" on="1"/>
        <pt x="290" y="304" on="1"/>
        <pt x="215" y="305" on="0"/>
        <pt x="136" y="225" on="0"/>
        <pt x="136" y="174" on="1"/>
        <pt x="136" y="111" on="0"/>
        <pt x="234" y="47" on="0"/>
        <pt x="297" y="47" on="1"/>
        <pt x="318" y="47" on="0"/>
        <pt x="373" y="56" on="0"/>
        <pt x="399" y="68" on="1"/>
        <pt x="436" y="93" on="0"/>
        <pt x="469" y="169" on="0"/>
        <pt x="469" y="211" on="1"/>
        <pt x="469" y="243" on="0"/>
        <pt x="451" y="309" on="0"/>
        <pt x="435" y="338" on="1"/>
        <pt x="419" y="331" on="0"/>
        <pt x="386" y="311" on="0"/>
        <pt x="368" y="300" on="1"/>
        <pt x="337" y="356" on="1"/>
        <pt x="485" y="443" on="0"/>
        <pt x="643" y="474" on="0"/>
        <pt x="703" y="427" on="1"/>
        <pt x="674" y="324" on="1"/>
        <pt x="643" y="341" on="0"/>
        <pt x="581" y="370" on="0"/>
        <pt x="539" y="368" on="1"/>
        <pt x="558" y="331" on="0"/>
        <pt x="576" y="257" on="0"/>
      </contour>
    </TTGlyph>
    <TTGlyph name="aogonek" xMin="43" yMin="-250" xMax="513" yMax="496">
      <component glyphName="a" x="0" y="0" flags="0x204"/>
      <component glyphName="uni0328" x="466" y="3" flags="0x4"/>
    </TTGlyph>
    <TTGlyph name="approxequal" xMin="58" yMin="71" xMax="498" yMax="422">
      <component glyphName="tildecomb.case" x="270" y="-453" flags="0x4"/>
      <component glyphName="tildecomb.case" x="270" y="-631" flags="0x4"/>
    </TTGlyph>
    <TTGlyph name="aring" xMin="43" yMin="-19" xMax="513" yMax="755">
      <component glyphName="a" x="0" y="0" flags="0x204"/>
      <component glyphName="uni030A" x="252" y="-182" flags="0x4"/>
    </TTGlyph>
    <TTGlyph name="asciicircum" xMin="32" yMin="324" xMax="501" yMax="649">
      <contour>
        <pt x="32" y="363" on="1"/>
        <pt x="225" y="649" on="1"/>
        <pt x="298" y="649" on="1"/>
        <pt x="501" y="369" on="1"/>
        <pt x="443" y="328" on="1"/>
        <pt x="267" y="576" on="1"/>
        <pt x="260" y="576" on="1"/>
        <pt x="93" y="324" on="1"/>
      </contour>
    </TTGlyph>
    <TTGlyph name="asciitilde" xMin="83" yMin="175" xMax="523" yMax="348">
      <component glyphName="tildecomb.case" x="295" y="-527" flags="0x4"/>
    </TTGlyph>
    <TTGlyph name="asterisk" xMin="12" yMin="424" xMax="344" yMax="762">
      <contour>
        <pt x="87" y="708" on="1"/>
        <pt x="157" y="762" on="1"/>
        <pt x="179" y="618" on="1"/>
        <pt x="142" y="597" on="1"/>
      </contour>
      <contour>
        <pt x="271" y="715" on="1"/>
        <pt x="344" y="664" on="1"/>
        <pt x="214" y="599" on="1"/>
        <pt x="183" y="628" on="1"/>
      </contour>
      <contour>
        <pt x="40" y="529" on="1"/>
        <pt x="12" y="614" on="1"/>
        <pt x="155" y="589" on="1"/>
        <pt x="163" y="548" on="1"/>
      </contour>
      <contour>
        <pt x="340" y="543" on="1"/>
        <pt x="314" y="459" on="1"/>
        <pt x="212" y="561" on="1"/>
        <pt x="230" y="599" on="1"/>
      </contour>
      <contour>
        <pt x="196" y="425" on="1"/>
        <pt x="107" y="424" on="1"/>
        <pt x="174" y="553" on="1"/>
        <pt x="215" y="548" on="1"/>
      </contour>
    </TTGlyph>
    <TTGlyph name="at" xMin="84" yMin="-31" xMax="974" yMax="689">
      <contour>
        <pt x="226" y="-31" on="1"/>
        <pt x="154" y="43" on="0"/>
        <pt x="84" y="211" on="0"/>
        <pt x="84" y="292" on="1"/>
        <pt x="84" y="370" on="0"/>
        <pt x="146" y="514" on="0"/>
        <pt x="263" y="623" on="0"/>
        <pt x="434" y="689" on="0"/>
        <pt x="541" y="689" on="1"/>
        <pt x="651" y="689" on="0"/>
        <pt x="815" y="621" on="0"/>
        <pt x="921" y="512" on="0"/>
        <pt x="974" y="374" on="0"/>
        <pt x="974" y="305" on="1"/>
        <pt x="974" y="248" on="0"/>
        <pt x="939" y="140" on="0"/>
        <pt x="871" y="53" on="0"/>
        <pt x="768" y="-7" on="0"/>
        <pt x="701" y="-16" on="1"/>
        <pt x="668" y="-16" on="0"/>
        <pt x="613" y="26" on="0"/>
        <pt x="600" y="55" on="1"/>
        <pt x="490" y="-14" on="1"/>
        <pt x="447" y="-19" on="0"/>
        <pt x="384" y="0" on="0"/>
        <pt x="343" y="37" on="0"/>
        <pt x="323" y="84" on="0"/>
        <pt x="323" y="107" on="1"/>
        <pt x="323" y="136" on="0"/>
        <pt x="357" y="197" on="0"/>
        <pt x="397" y="218" on="1"/>
        <pt x="590" y="223" on="1"/>
        <pt x="590" y="317" on="1"/>
        <pt x="590" y="363" on="0"/>
        <pt x="566" y="410" on="0"/>
        <pt x="542" y="422" on="1"/>
        <pt x="518" y="421" on="0"/>
        <pt x="464" y="412" on="0"/>
        <pt x="448" y="407" on="1"/>
        <pt x="434" y="301" on="1"/>
        <pt x="366" y="298" on="1"/>
        <pt x="353" y="332" on="0"/>
        <pt x="341" y="394" on="0"/>
        <pt x="341" y="428" on="1"/>
        <pt x="366" y="440" on="0"/>
        <pt x="434" y="464" on="0"/>
        <pt x="500" y="483" on="0"/>
        <pt x="559" y="494" on="0"/>
        <pt x="577" y="494" on="1"/>
        <pt x="612" y="494" on="0"/>
        <pt x="681" y="448" on="0"/>
        <pt x="695" y="423" on="1"/>
        <pt x="702" y="411" on="0"/>
        <pt x="707" y="369" on="0"/>
        <pt x="707" y="320" on="1"/>
        <pt x="707" y="101" on="1"/>
        <pt x="707" y="66" on="0"/>
        <pt x="749" y="71" on="0"/>
        <pt x="767" y="84" on="1"/>
        <pt x="810" y="115" on="0"/>
        <pt x="856" y="237" on="0"/>
        <pt x="856" y="302" on="1"/>
        <pt x="856" y="359" on="0"/>
        <pt x="819" y="469" on="0"/>
        <pt x="742" y="554" on="0"/>
        <pt x="625" y="606" on="0"/>
        <pt x="546" y="606" on="1"/>
        <pt x="466" y="606" on="0"/>
        <pt x="339" y="553" on="0"/>
        <pt x="252" y="463" on="0"/>
        <pt x="206" y="343" on="0"/>
        <pt x="206" y="277" on="1"/>
        <pt x="206" y="212" on="0"/>
        <pt x="252" y="77" on="0"/>
        <pt x="298" y="15" on="1"/>
      </contour>
      <contour>
        <pt x="466" y="66" on="1"/>
        <pt x="497" y="65" on="0"/>
        <pt x="565" y="86" on="0"/>
        <pt x="590" y="96" on="1"/>
        <pt x="590" y="167" on="1"/>
        <pt x="566" y="169" on="0"/>
        <pt x="514" y="168" on="0"/>
        <pt x="471" y="156" on="0"/>
        <pt x="443" y="132" on="0"/>
        <pt x="443" y="111" on="1"/>
        <pt x="443" y="98" on="0"/>
        <pt x="454" y="74" on="0"/>
      </contour>
    </TTGlyph>
    <TTGlyph name="atilde" xMin="43" yMin="-19" xMax="513" yMax="715">
      <component glyphName="a" x="0" y="0" flags="0x204"/>
      <component glyphName="tildecomb" x="252" y="-2" flags="0x4"/>
    </TTGlyph>
    <TTGlyph name="b" xMin="-21" yMin="-19" xMax="515" yMax="736">
      <contour>
        <pt x="246" y="-19" on="1"/>
        <pt x="203" y="-19" on="0"/>
        <pt x="110" y="3" on="0"/>
        <pt x="62" y="23" on="1"/>
        <pt x="63" y="24" on="1"/>
        <pt x="63" y="653" on="1"/>
        <pt x="-12" y="655" on="1"/>
        <pt x="-21" y="703" on="1"/>
        <pt x="13" y="717" on="0"/>
        <pt x="97" y="735" on="0"/>
        <pt x="136" y="736" on="1"/>
        <pt x="180" y="695" on="1"/>
        <pt x="180" y="408" on="1"/>
        <pt x="293" y="484" on="1"/>
        <pt x="343" y="494" on="0"/>
        <pt x="426" y="463" on="0"/>
        <pt x="483" y="398" on="0"/>
        <pt x="515" y="305" on="0"/>
        <pt x="515" y="254" on="1"/>
        <pt x="515" y="198" on="0"/>
        <pt x="477" y="98" on="0"/>
        <pt x="408" y="24" on="0"/>
        <pt x="308" y="-19" on="0"/>
      </contour>
      <contour>
        <pt x="278" y="393" on="1"/>
        <pt x="255" y="393" on="0"/>
        <pt x="205" y="373" on="0"/>
        <pt x="180" y="358" on="1"/>
        <pt x="180" y="82" on="1"/>
        <pt x="205" y="68" on="0"/>
        <pt x="273" y="52" on="0"/>
        <pt x="316" y="59" on="1"/>
        <pt x="353" y="84" on="0"/>
        <pt x="393" y="180" on="0"/>
        <pt x="393" y="231" on="1"/>
        <pt x="393" y="294" on="0"/>
        <pt x="330" y="393" on="0"/>
      </contour>
    </TTGlyph>
    <TTGlyph name="backslash" xMin="-7" yMin="-126" xMax="388" yMax="715">
      <contour>
        <pt x="388" y="-94" on="1"/>
        <pt x="300" y="-126" on="1"/>
        <pt x="-7" y="681" on="1"/>
        <pt x="80" y="715" on="1"/>
      </contour>
    </TTGlyph>
    <TTGlyph name="bar" xMin="103" yMin="-225" xMax="197" yMax="735">
      <contour>
        <pt x="197" y="-225" on="1"/>
        <pt x="103" y="-225" on="1"/>
        <pt x="103" y="735" on="1"/>
        <pt x="197" y="735" on="1"/>
      </contour>
    </TTGlyph>
    <TTGlyph name="braceleft" xMin="67" yMin="-145" xMax="370" yMax="729">
      <contour>
        <pt x="367" y="-60" on="1"/>
        <pt x="357" y="-145" on="1"/>
        <pt x="258" y="-138" on="0"/>
        <pt x="148" y="-36" on="0"/>
        <pt x="148" y="16" on="1"/>
        <pt x="148" y="142" on="1"/>
        <pt x="148" y="202" on="0"/>
        <pt x="124" y="264" on="0"/>
        <pt x="67" y="268" on="1"/>
        <pt x="73" y="327" on="1"/>
        <pt x="124" y="331" on="0"/>
        <pt x="148" y="392" on="0"/>
        <pt x="148" y="443" on="1"/>
        <pt x="148" y="555" on="1"/>
        <pt x="148" y="614" on="0"/>
        <pt x="250" y="719" on="0"/>
        <pt x="364" y="729" on="1"/>
        <pt x="370" y="644" on="1"/>
        <pt x="269" y="644" on="1"/>
        <pt x="273" y="449" on="1"/>
        <pt x="274" y="411" on="0"/>
        <pt x="249" y="338" on="0"/>
        <pt x="221" y="304" on="1"/>
        <pt x="221" y="295" on="1"/>
        <pt x="249" y="260" on="0"/>
        <pt x="274" y="188" on="0"/>
        <pt x="273" y="149" on="1"/>
        <pt x="269" y="-48" on="1"/>
      </contour>
    </TTGlyph>
    <TTGlyph name="braceright" xMin="87" yMin="-145" xMax="390" yMax="729">
      <contour>
        <pt x="309" y="16" on="1"/>
        <pt x="309" y="-36" on="0"/>
        <pt x="199" y="-138" on="0"/>
        <pt x="100" y="-145" on="1"/>
        <pt x="90" y="-60" on="1"/>
        <pt x="188" y="-48" on="1"/>
        <pt x="184" y="149" on="1"/>
        <pt x="183" y="188" on="0"/>
        <pt x="208" y="260" on="0"/>
        <pt x="236" y="295" on="1"/>
        <pt x="236" y="304" on="1"/>
        <pt x="208" y="338" on="0"/>
        <pt x="183" y="411" on="0"/>
        <pt x="184" y="449" on="1"/>
        <pt x="188" y="644" on="1"/>
        <pt x="87" y="644" on="1"/>
        <pt x="93" y="729" on="1"/>
        <pt x="207" y="719" on="0"/>
        <pt x="309" y="614" on="0"/>
        <pt x="309" y="555" on="1"/>
        <pt x="309" y="443" on="1"/>
        <pt x="309" y="392" on="0"/>
        <pt x="333" y="331" on="0"/>
        <pt x="384" y="327" on="1"/>
        <pt x="390" y="268" on="1"/>
        <pt x="333" y="264" on="0"/>
        <pt x="309" y="202" on="0"/>
        <pt x="309" y="142" on="1"/>
      </contour>
    </TTGlyph>
    <TTGlyph name="bracketleft" xMin="95" yMin="-122" xMax="337" yMax="712">
      <contour>
        <pt x="95" y="712" on="1"/>
        <pt x="331" y="712" on="1"/>
        <pt x="337" y="654" on="1"/>
        <pt x="207" y="628" on="1"/>
        <pt x="207" y="-38" on="1"/>
        <pt x="337" y="-64" on="1"/>
        <pt x="331" y="-122" on="1"/>
        <pt x="95" y="-122" on="1"/>
      </contour>
    </TTGlyph>
    <TTGlyph name="bracketright" xMin="33" yMin="-122" xMax="275" yMax="712">
      <contour>
        <pt x="33" y="654" on="1"/>
        <pt x="39" y="712" on="1"/>
        <pt x="275" y="712" on="1"/>
        <pt x="275" y="-122" on="1"/>
        <pt x="39" y="-122" on="1"/>
        <pt x="33" y="-64" on="1"/>
        <pt x="163" y="-38" on="1"/>
        <pt x="163" y="628" on="1"/>
      </contour>
    </TTGlyph>
    <TTGlyph name="breve" xMin="36" yMin="551" xMax="342" yMax="717">
      <component glyphName="uni0306" x="188" y="0" flags="0x4"/>
    </TTGlyph>
    <TTGlyph name="brokenbar" xMin="103" yMin="-76" xMax="197" yMax="616">
      <contour>
        <pt x="197" y="358" on="1"/>
        <pt x="103" y="358" on="1"/>
        <pt x="103" y="616" on="1"/>
        <pt x="197" y="616" on="1"/>
      </contour>
      <contour>
        <pt x="197" y="-76" on="1"/>
        <pt x="103" y="-76" on="1"/>
        <pt x="103" y="182" on="1"/>
        <pt x="197" y="182" on="1"/>
      </contour>
    </TTGlyph>
    <TTGlyph name="bullet" xMin="76" yMin="122" xMax="337" yMax="400">
      <contour>
        <pt x="198" y="400" on="1"/>
        <pt x="247" y="381" on="0"/>
        <pt x="320" y="310" on="0"/>
        <pt x="337" y="261" on="1"/>
        <pt x="326" y="215" on="0"/>
        <pt x="267" y="145" on="0"/>
        <pt x="220" y="122" on="1"/>
        <pt x="169" y="136" on="0"/>
        <pt x="96" y="196" on="0"/>
        <pt x="76" y="240" on="1"/>
        <pt x="86" y="295" on="0"/>
        <pt x="149" y="375" on="0"/>
      </contour>
    </TTGlyph>
    <TTGlyph name="bulletoperator" xMin="30" yMin="175" xMax="174" yMax="318">
      <contour>
        <pt x="174" y="255" on="1"/>
        <pt x="166" y="233" on="0"/>
        <pt x="130" y="188" on="0"/>
        <pt x="111" y="175" on="1"/>
        <pt x="92" y="182" on="0"/>
        <pt x="43" y="220" on="0"/>
        <pt x="30" y="238" on="1"/>
        <pt x="42" y="262" on="0"/>
        <pt x="77" y="308" on="0"/>
        <pt x="96" y="318" on="1"/>
        <pt x="118" y="310" on="0"/>
        <pt x="162" y="271" on="0"/>
      </contour>
    </TTGlyph>
    <TTGlyph name="c" xMin="17" yMin="-21" xMax="421" yMax="492">
      <contour>
        <pt x="394" y="97" on="1"/>
        <pt x="413" y="50" on="1"/>
        <pt x="274" y="-14" on="1"/>
        <pt x="158" y="-21" on="0"/>
        <pt x="17" y="125" on="0"/>
        <pt x="17" y="236" on="1"/>
        <pt x="17" y="349" on="0"/>
        <pt x="153" y="492" on="0"/>
        <pt x="253" y="492" on="1"/>
        <pt x="306" y="492" on="0"/>
        <pt x="393" y="448" on="0"/>
        <pt x="421" y="405" on="1"/>
        <pt x="340" y="332" on="1"/>
        <pt x="308" y="366" on="0"/>
        <pt x="232" y="413" on="0"/>
        <pt x="192" y="420" on="1"/>
        <pt x="162" y="386" on="0"/>
        <pt x="135" y="302" on="0"/>
        <pt x="135" y="258" on="1"/>
        <pt x="135" y="178" on="0"/>
        <pt x="214" y="71" on="0"/>
        <pt x="288" y="71" on="1"/>
        <pt x="311" y="71" on="0"/>
        <pt x="366" y="84" on="0"/>
      </contour>
    </TTGlyph>
    <TTGlyph name="cacute" xMin="17" yMin="-21" xMax="421" yMax="751">
      <component glyphName="c" x="0" y="0" flags="0x204"/>
      <component glyphName="acutecomb" x="245" y="-2" flags="0x4"/>
    </TTGlyph>
    <TTGlyph name="caron" xMin="30" yMin="541" xMax="388" yMax="754">
      <component glyphName="uni030C" x="218" y="0" flags="0x4"/>
    </TTGlyph>
    <TTGlyph name="ccaron" xMin="17" yMin="-21" xMax="421" yMax="752">
      <component glyphName="c" x="0" y="0" flags="0x204"/>
      <component glyphName="uni030C" x="245" y="-2" flags="0x4"/>
    </TTGlyph>
    <TTGlyph name="ccedilla" xMin="17" yMin="-267" xMax="421" yMax="492">
      <component glyphName="c" x="0" y="0" flags="0x204"/>
      <component glyphName="uni0327" x="241" y="0" flags="0x4"/>
    </TTGlyph>
    <TTGlyph name="cedilla" xMin="31" yMin="-267" xMax="236" yMax="6">
      <component glyphName="uni0327" x="116" y="0" flags="0x4"/>
    </TTGlyph>
    <TTGlyph name="cent" xMin="17" yMin="-116" xMax="421" yMax="603">
      <contour>
        <pt x="413" y="72" on="1"/>
        <pt x="286" y="18" on="1"/>
        <pt x="286" y="-116" on="1"/>
        <pt x="212" y="-116" on="1"/>
        <pt x="212" y="16" on="1"/>
        <pt x="122" y="29" on="0"/>
        <pt x="17" y="156" on="0"/>
        <pt x="17" y="244" on="1"/>
        <pt x="17" y="337" on="0"/>
        <pt x="128" y="464" on="0"/>
        <pt x="212" y="477" on="1"/>
        <pt x="212" y="603" on="1"/>
        <pt x="286" y="603" on="1"/>
        <pt x="286" y="478" on="1"/>
        <pt x="328" y="473" on="0"/>
        <pt x="397" y="434" on="0"/>
        <pt x="421" y="400" on="1"/>
        <pt x="340" y="332" on="1"/>
        <pt x="308" y="363" on="0"/>
        <pt x="232" y="407" on="0"/>
        <pt x="192" y="414" on="1"/>
        <pt x="162" y="382" on="0"/>
        <pt x="135" y="305" on="0"/>
        <pt x="135" y="264" on="1"/>
        <pt x="135" y="190" on="0"/>
        <pt x="214" y="92" on="0"/>
        <pt x="288" y="92" on="1"/>
        <pt x="311" y="92" on="0"/>
        <pt x="366" y="104" on="0"/>
        <pt x="394" y="116" on="1"/>
      </contour>
    </TTGlyph>
    <TTGlyph name="circumflex" xMin="27" yMin="533" xMax="375" yMax="726">
      <component glyphName="uni0302" x="197" y="0" flags="0x4"/>
    </TTGlyph>
    <TTGlyph name="colon" xMin="86" yMin="-20" xMax="241" yMax="451">
      <contour>
        <pt x="159" y="451" on="1"/>
        <pt x="190" y="438" on="0"/>
        <pt x="235" y="397" on="0"/>
        <pt x="241" y="369" on="1"/>
        <pt x="233" y="341" on="0"/>
        <pt x="197" y="300" on="0"/>
        <pt x="172" y="288" on="1"/>
        <pt x="142" y="295" on="0"/>
        <pt x="99" y="330" on="0"/>
        <pt x="86" y="357" on="1"/>
        <pt x="91" y="389" on="0"/>
        <pt x="129" y="436" on="0"/>
      </contour>
      <contour>
        <pt x="159" y="144" on="1"/>
        <pt x="190" y="131" on="0"/>
        <pt x="235" y="89" on="0"/>
        <pt x="241" y="62" on="1"/>
        <pt x="233" y="34" on="0"/>
        <pt x="197" y="-8" on="0"/>
        <pt x="172" y="-20" on="1"/>
        <pt x="142" y="-13" on="0"/>
        <pt x="99" y="22" on="0"/>
        <pt x="86" y="49" on="1"/>
        <pt x="91" y="81" on="0"/>
        <pt x="129" y="128" on="0"/>
      </contour>
    </TTGlyph>
    <TTGlyph name="comma" xMin="44" yMin="-145" xMax="210" yMax="140">
      <contour>
        <pt x="78" y="-145" on="1"/>
        <pt x="44" y="-102" on="1"/>
        <pt x="75" y="-76" on="0"/>
        <pt x="111" y="-19" on="0"/>
        <pt x="112" y="7" on="1"/>
        <pt x="60" y="49" on="1"/>
        <pt x="65" y="81" on="0"/>
        <pt x="103" y="127" on="0"/>
        <pt x="130" y="140" on="1"/>
        <pt x="168" y="127" on="0"/>
        <pt x="210" y="71" on="0"/>
        <pt x="210" y="36" on="1"/>
        <pt x="210" y="-13" on="0"/>
        <pt x="137" y="-114" on="0"/>
      </contour>
    </TTGlyph>
    <TTGlyph name="copyright" xMin="52" yMin="-21" xMax="761" yMax="688">
      <contour>
        <pt x="761" y="332" on="1"/>
        <pt x="761" y="259" on="0"/>
        <pt x="707" y="130" on="0"/>
        <pt x="612" y="35" on="0"/>
        <pt x="482" y="-21" on="0"/>
        <pt x="407" y="-21" on="1"/>
        <pt x="334" y="-21" on="0"/>
        <pt x="204" y="33" on="0"/>
        <pt x="108" y="127" on="0"/>
        <pt x="52" y="256" on="0"/>
        <pt x="52" y="331" on="1"/>
        <pt x="52" y="406" on="0"/>
        <pt x="108" y="537" on="0"/>
        <pt x="203" y="632" on="0"/>
        <pt x="332" y="688" on="0"/>
        <pt x="405" y="688" on="1"/>
        <pt x="478" y="688" on="0"/>
        <pt x="608" y="632" on="0"/>
        <pt x="705" y="536" on="0"/>
        <pt x="761" y="406" on="0"/>
      </contour>
      <contour>
        <pt x="119" y="331" on="1"/>
        <pt x="119" y="270" on="0"/>
        <pt x="164" y="165" on="0"/>
        <pt x="241" y="89" on="0"/>
        <pt x="346" y="46" on="0"/>
        <pt x="405" y="46" on="1"/>
        <pt x="465" y="46" on="0"/>
        <pt x="571" y="91" on="0"/>
        <pt x="649" y="169" on="0"/>
        <pt x="694" y="275" on="0"/>
        <pt x="694" y="334" on="1"/>
        <pt x="694" y="393" on="0"/>
        <pt x="649" y="498" on="0"/>
        <pt x="571" y="576" on="0"/>
        <pt x="466" y="621" on="0"/>
        <pt x="407" y="621" on="1"/>
        <pt x="348" y="621" on="0"/>
        <pt x="242" y="576" on="0"/>
        <pt x="164" y="498" on="0"/>
        <pt x="119" y="391" on="0"/>
      </contour>
      <contour>
        <pt x="546" y="238" on="1"/>
        <pt x="563" y="195" on="1"/>
        <pt x="430" y="134" on="1"/>
        <pt x="332" y="133" on="0"/>
        <pt x="221" y="248" on="0"/>
        <pt x="221" y="329" on="1"/>
        <pt x="221" y="408" on="0"/>
        <pt x="326" y="529" on="0"/>
        <pt x="419" y="529" on="1"/>
        <pt x="465" y="529" on="0"/>
        <pt x="545" y="491" on="0"/>
        <pt x="574" y="445" on="1"/>
        <pt x="498" y="389" on="1"/>
        <pt x="473" y="421" on="0"/>
        <pt x="412" y="461" on="0"/>
        <pt x="370" y="467" on="1"/>
        <pt x="342" y="442" on="0"/>
        <pt x="315" y="376" on="0"/>
        <pt x="315" y="344" on="1"/>
        <pt x="315" y="293" on="0"/>
        <pt x="382" y="214" on="0"/>
        <pt x="447" y="214" on="1"/>
        <pt x="469" y="214" on="0"/>
        <pt x="518" y="226" on="0"/>
      </contour>
    </TTGlyph>
    <TTGlyph name="currency" xMin="56" yMin="127" xMax="454" yMax="581">
      <contour>
        <pt x="271" y="240" on="1"/>
        <pt x="278" y="240" on="0"/>
        <pt x="299" y="242" on="0"/>
        <pt x="309" y="244" on="1"/>
        <pt x="324" y="251" on="0"/>
        <pt x="349" y="311" on="0"/>
        <pt x="349" y="347" on="1"/>
        <pt x="349" y="390" on="0"/>
        <pt x="300" y="469" on="0"/>
        <pt x="234" y="469" on="1"/>
        <pt x="226" y="469" on="0"/>
        <pt x="209" y="467" on="0"/>
        <pt x="199" y="465" on="1"/>
        <pt x="181" y="451" on="0"/>
        <pt x="158" y="394" on="0"/>
        <pt x="158" y="360" on="1"/>
        <pt x="158" y="316" on="0"/>
        <pt x="210" y="240" on="0"/>
      </contour>
      <contour>
        <pt x="254" y="170" on="1"/>
        <pt x="229" y="170" on="0"/>
        <pt x="184" y="183" on="0"/>
        <pt x="165" y="194" on="1"/>
        <pt x="110" y="127" on="1"/>
        <pt x="62" y="170" on="1"/>
        <pt x="118" y="236" on="1"/>
        <pt x="99" y="260" on="0"/>
        <pt x="78" y="322" on="0"/>
        <pt x="78" y="356" on="1"/>
        <pt x="78" y="390" on="0"/>
        <pt x="98" y="448" on="0"/>
        <pt x="116" y="470" on="1"/>
        <pt x="56" y="538" on="1"/>
        <pt x="105" y="581" on="1"/>
        <pt x="164" y="514" on="1"/>
        <pt x="186" y="527" on="0"/>
        <pt x="235" y="541" on="0"/>
        <pt x="260" y="541" on="1"/>
        <pt x="284" y="541" on="0"/>
        <pt x="331" y="529" on="0"/>
        <pt x="351" y="516" on="1"/>
        <pt x="404" y="580" on="1"/>
        <pt x="454" y="539" on="1"/>
        <pt x="397" y="472" on="1"/>
        <pt x="413" y="450" on="0"/>
        <pt x="431" y="393" on="0"/>
        <pt x="431" y="358" on="1"/>
        <pt x="431" y="321" on="0"/>
        <pt x="411" y="260" on="0"/>
        <pt x="393" y="238" on="1"/>
        <pt x="452" y="174" on="1"/>
        <pt x="406" y="129" on="1"/>
        <pt x="345" y="195" on="1"/>
        <pt x="325" y="182" on="0"/>
        <pt x="278" y="170" on="0"/>
      </contour>
    </TTGlyph>
    <TTGlyph name="d" xMin="17" yMin="-17" xMax="550" yMax="736">
      <contour>
        <pt x="263" y="81" on="1"/>
        <pt x="281" y="81" on="0"/>
        <pt x="324" y="93" on="0"/>
        <pt x="348" y="106" on="1"/>
        <pt x="348" y="384" on="1"/>
        <pt x="319" y="403" on="0"/>
        <pt x="245" y="422" on="0"/>
        <pt x="206" y="415" on="1"/>
        <pt x="174" y="387" on="0"/>
        <pt x="140" y="296" on="0"/>
        <pt x="140" y="247" on="1"/>
        <pt x="140" y="178" on="0"/>
        <pt x="206" y="81" on="0"/>
      </contour>
      <contour>
        <pt x="244" y="-16" on="1"/>
        <pt x="193" y="-17" on="0"/>
        <pt x="109" y="23" on="0"/>
        <pt x="50" y="91" on="0"/>
        <pt x="17" y="183" on="0"/>
        <pt x="17" y="233" on="1"/>
        <pt x="17" y="345" on="0"/>
        <pt x="166" y="492" on="0"/>
        <pt x="274" y="492" on="1"/>
        <pt x="294" y="492" on="0"/>
        <pt x="332" y="486" on="0"/>
        <pt x="348" y="481" on="1"/>
        <pt x="348" y="653" on="1"/>
        <pt x="273" y="655" on="1"/>
        <pt x="263" y="703" on="1"/>
        <pt x="297" y="717" on="0"/>
        <pt x="381" y="735" on="0"/>
        <pt x="420" y="736" on="1"/>
        <pt x="465" y="695" on="1"/>
        <pt x="465" y="98" on="1"/>
        <pt x="465" y="87" on="0"/>
        <pt x="480" y="77" on="0"/>
        <pt x="491" y="77" on="1"/>
        <pt x="501" y="77" on="0"/>
        <pt x="526" y="82" on="0"/>
        <pt x="538" y="84" on="1"/>
        <pt x="550" y="40" on="1"/>
        <pt x="439" y="-16" on="1"/>
        <pt x="419" y="-15" on="0"/>
        <pt x="367" y="31" on="0"/>
        <pt x="355" y="62" on="1"/>
      </contour>
    </TTGlyph>
    <TTGlyph name="dagger" xMin="46" yMin="-180" xMax="497" yMax="689">
      <contour>
        <pt x="454" y="390" on="1"/>
        <pt x="319" y="390" on="1"/>
        <pt x="302" y="-180" on="1"/>
        <pt x="221" y="-180" on="1"/>
        <pt x="207" y="390" on="1"/>
        <pt x="52" y="390" on="1"/>
        <pt x="46" y="421" on="1"/>
        <pt x="89" y="468" on="1"/>
        <pt x="205" y="468" on="1"/>
        <pt x="200" y="653" on="1"/>
        <pt x="236" y="689" on="1"/>
        <pt x="328" y="685" on="1"/>
        <pt x="321" y="468" on="1"/>
        <pt x="491" y="468" on="1"/>
        <pt x="497" y="437" on="1"/>
      </contour>
    </TTGlyph>
    <TTGlyph name="daggerdbl" xMin="46" yMin="-180" xMax="504" yMax="689">
      <contour>
        <pt x="454" y="124" on="1"/>
        <pt x="318" y="124" on="1"/>
        <pt x="309" y="-180" on="1"/>
        <pt x="228" y="-180" on="1"/>
        <pt x="220" y="124" on="1"/>
        <pt x="52" y="124" on="1"/>
        <pt x="46" y="155" on="1"/>
        <pt x="89" y="203" on="1"/>
        <pt x="218" y="203" on="1"/>
        <pt x="214" y="390" on="1"/>
        <pt x="59" y="390" on="1"/>
        <pt x="53" y="421" on="1"/>
        <pt x="96" y="468" on="1"/>
        <pt x="212" y="468" on="1"/>
        <pt x="207" y="653" on="1"/>
        <pt x="243" y="689" on="1"/>
        <pt x="335" y="685" on="1"/>
        <pt x="328" y="468" on="1"/>
        <pt x="498" y="468" on="1"/>
        <pt x="504" y="437" on="1"/>
        <pt x="461" y="390" on="1"/>
        <pt x="326" y="390" on="1"/>
        <pt x="321" y="203" on="1"/>
        <pt x="491" y="203" on="1"/>
        <pt x="497" y="172" on="1"/>
      </contour>
    </TTGlyph>
    <TTGlyph name="dcaron" xMin="17" yMin="-17" xMax="694" yMax="805">
      <component glyphName="d" x="0" y="0" flags="0x204"/>
      <component glyphName="uni030C.calt" x="545" y="45" flags="0x4"/>
    </TTGlyph>
    <TTGlyph name="dcroat" xMin="17" yMin="-17" xMax="563" yMax="736">
      <contour>
        <pt x="263" y="81" on="1"/>
        <pt x="281" y="81" on="0"/>
        <pt x="324" y="93" on="0"/>
        <pt x="348" y="106" on="1"/>
        <pt x="348" y="384" on="1"/>
        <pt x="319" y="403" on="0"/>
        <pt x="245" y="422" on="0"/>
        <pt x="206" y="415" on="1"/>
        <pt x="174" y="387" on="0"/>
        <pt x="140" y="296" on="0"/>
        <pt x="140" y="247" on="1"/>
        <pt x="140" y="178" on="0"/>
        <pt x="206" y="81" on="0"/>
      </contour>
      <contour>
        <pt x="244" y="-16" on="1"/>
        <pt x="193" y="-17" on="0"/>
        <pt x="109" y="23" on="0"/>
        <pt x="50" y="91" on="0"/>
        <pt x="17" y="183" on="0"/>
        <pt x="17" y="233" on="1"/>
        <pt x="17" y="345" on="0"/>
        <pt x="166" y="492" on="0"/>
        <pt x="274" y="492" on="1"/>
        <pt x="294" y="492" on="0"/>
        <pt x="332" y="486" on="0"/>
        <pt x="348" y="481" on="1"/>
        <pt x="348" y="543" on="1"/>
        <pt x="227" y="543" on="1"/>
        <pt x="221" y="574" on="1"/>
        <pt x="264" y="602" on="1"/>
        <pt x="348" y="602" on="1"/>
        <pt x="348" y="653" on="1"/>
        <pt x="273" y="655" on="1"/>
        <pt x="263" y="703" on="1"/>
        <pt x="297" y="717" on="0"/>
        <pt x="381" y="735" on="0"/>
        <pt x="420" y="736" on="1"/>
        <pt x="465" y="695" on="1"/>
        <pt x="465" y="602" on="1"/>
        <pt x="557" y="602" on="1"/>
        <pt x="563" y="571" on="1"/>
        <pt x="520" y="543" on="1"/>
        <pt x="465" y="543" on="1"/>
        <pt x="465" y="98" on="1"/>
        <pt x="465" y="87" on="0"/>
        <pt x="480" y="77" on="0"/>
        <pt x="491" y="77" on="1"/>
        <pt x="501" y="77" on="0"/>
        <pt x="526" y="82" on="0"/>
        <pt x="538" y="84" on="1"/>
        <pt x="550" y="40" on="1"/>
        <pt x="439" y="-16" on="1"/>
        <pt x="419" y="-15" on="0"/>
        <pt x="367" y="31" on="0"/>
        <pt x="355" y="62" on="1"/>
      </contour>
    </TTGlyph>
    <TTGlyph name="degree" xMin="30" yMin="376" xMax="298" yMax="644">
      <contour>
        <pt x="167" y="376" on="1"/>
        <pt x="112" y="376" on="0"/>
        <pt x="30" y="449" on="0"/>
        <pt x="30" y="509" on="1"/>
        <pt x="30" y="566" on="0"/>
        <pt x="107" y="644" on="0"/>
        <pt x="163" y="644" on="1"/>
        <pt x="220" y="644" on="0"/>
        <pt x="298" y="566" on="0"/>
        <pt x="298" y="509" on="1"/>
        <pt x="298" y="449" on="0"/>
        <pt x="224" y="376" on="0"/>
      </contour>
      <contour>
        <pt x="172" y="433" on="1"/>
        <pt x="179" y="433" on="0"/>
        <pt x="195" y="435" on="0"/>
        <pt x="203" y="438" on="1"/>
        <pt x="216" y="450" on="0"/>
        <pt x="229" y="483" on="0"/>
        <pt x="229" y="500" on="1"/>
        <pt x="229" y="531" on="0"/>
        <pt x="190" y="584" on="0"/>
        <pt x="156" y="584" on="1"/>
        <pt x="147" y="584" on="0"/>
        <pt x="128" y="580" on="0"/>
        <pt x="118" y="576" on="1"/>
        <pt x="108" y="563" on="0"/>
        <pt x="97" y="531" on="0"/>
        <pt x="97" y="515" on="1"/>
        <pt x="97" y="484" on="0"/>
        <pt x="135" y="433" on="0"/>
      </contour>
    </TTGlyph>
    <TTGlyph name="dieresis" xMin="33" yMin="550" xMax="388" yMax="698">
      <component glyphName="uni0308" x="210" y="0" flags="0x4"/>
    </TTGlyph>
    <TTGlyph name="divide" xMin="58" yMin="-21" xMax="542" yMax="498">
      <contour>
        <pt x="299" y="498" on="1"/>
        <pt x="346" y="479" on="0"/>
        <pt x="374" y="428" on="0"/>
        <pt x="376" y="421" on="1"/>
        <pt x="374" y="414" on="0"/>
        <pt x="348" y="361" on="0"/>
        <pt x="312" y="345" on="1"/>
        <pt x="269" y="354" on="0"/>
        <pt x="235" y="403" on="0"/>
        <pt x="231" y="410" on="1"/>
        <pt x="236" y="452" on="0"/>
        <pt x="292" y="494" on="0"/>
      </contour>
      <contour>
        <pt x="58" y="278" on="1"/>
        <pt x="542" y="278" on="1"/>
        <pt x="542" y="201" on="1"/>
        <pt x="58" y="201" on="1"/>
      </contour>
      <contour>
        <pt x="298" y="132" on="1"/>
        <pt x="345" y="113" on="0"/>
        <pt x="373" y="63" on="0"/>
        <pt x="375" y="56" on="1"/>
        <pt x="373" y="49" on="0"/>
        <pt x="347" y="-5" on="0"/>
        <pt x="311" y="-21" on="1"/>
        <pt x="268" y="-12" on="0"/>
        <pt x="234" y="38" on="0"/>
        <pt x="230" y="44" on="1"/>
        <pt x="235" y="87" on="0"/>
        <pt x="291" y="128" on="0"/>
      </contour>
    </TTGlyph>
    <TTGlyph name="dollar" xMin="52" yMin="-145" xMax="513" yMax="785">
      <contour>
        <pt x="340" y="-145" on="1"/>
        <pt x="257" y="-145" on="1"/>
        <pt x="257" y="-19" on="1"/>
        <pt x="207" y="-16" on="0"/>
        <pt x="90" y="17" on="0"/>
        <pt x="54" y="47" on="1"/>
        <pt x="55" y="50" on="1"/>
        <pt x="52" y="78" on="0"/>
        <pt x="58" y="181" on="0"/>
        <pt x="67" y="224" on="1"/>
        <pt x="130" y="224" on="1"/>
        <pt x="162" y="92" on="1"/>
        <pt x="204" y="67" on="0"/>
        <pt x="295" y="53" on="0"/>
        <pt x="334" y="55" on="1"/>
        <pt x="363" y="70" on="0"/>
        <pt x="390" y="122" on="0"/>
        <pt x="390" y="148" on="1"/>
        <pt x="390" y="197" on="0"/>
        <pt x="306" y="253" on="0"/>
        <pt x="241" y="284" on="1"/>
        <pt x="209" y="299" on="0"/>
        <pt x="143" y="335" on="0"/>
        <pt x="90" y="382" on="0"/>
        <pt x="57" y="444" on="0"/>
        <pt x="57" y="485" on="1"/>
        <pt x="57" y="564" on="0"/>
        <pt x="173" y="661" on="0"/>
        <pt x="257" y="671" on="1"/>
        <pt x="257" y="785" on="1"/>
        <pt x="339" y="785" on="1"/>
        <pt x="339" y="672" on="1"/>
        <pt x="380" y="668" on="0"/>
        <pt x="455" y="650" on="0"/>
        <pt x="483" y="641" on="1"/>
        <pt x="484" y="610" on="0"/>
        <pt x="479" y="510" on="0"/>
        <pt x="470" y="464" on="1"/>
        <pt x="403" y="464" on="1"/>
        <pt x="384" y="568" on="1"/>
        <pt x="347" y="590" on="0"/>
        <pt x="262" y="604" on="0"/>
        <pt x="222" y="600" on="1"/>
        <pt x="198" y="586" on="0"/>
        <pt x="175" y="537" on="0"/>
        <pt x="175" y="514" on="1"/>
        <pt x="175" y="468" on="0"/>
        <pt x="264" y="414" on="0"/>
        <pt x="327" y="384" on="1"/>
        <pt x="396" y="352" on="0"/>
        <pt x="513" y="264" on="0"/>
        <pt x="513" y="177" on="1"/>
        <pt x="513" y="99" on="0"/>
        <pt x="412" y="1" on="0"/>
        <pt x="340" y="-14" on="1"/>
      </contour>
    </TTGlyph>
    <TTGlyph name="dotaccent" xMin="30" yMin="550" xMax="169" yMax="698">
      <component glyphName="uni0307" x="99" y="0" flags="0x4"/>
    </TTGlyph>
    <TTGlyph name="dotbelowcomb" xMin="-69" yMin="-246" xMax="70" yMax="-99">
      <contour>
        <pt x="-4" y="-99" on="1"/>
        <pt x="23" y="-109" on="0"/>
        <pt x="66" y="-151" on="0"/>
        <pt x="70" y="-173" on="1"/>
        <pt x="63" y="-198" on="0"/>
        <pt x="32" y="-235" on="0"/>
        <pt x="9" y="-246" on="1"/>
        <pt x="-19" y="-239" on="0"/>
        <pt x="-58" y="-209" on="0"/>
        <pt x="-69" y="-184" on="1"/>
        <pt x="-65" y="-155" on="0"/>
        <pt x="-29" y="-112" on="0"/>
      </contour>
    </TTGlyph>
    <TTGlyph name="dotbelowcomb.case" xMin="-69" yMin="-246" xMax="70" yMax="-99">
      <component glyphName="dotbelowcomb" x="0" y="0" flags="0x204"/>
    </TTGlyph>
    <TTGlyph name="dotlessi" xMin="12" yMin="0" xMax="276" yMax="487">
      <contour>
        <pt x="29" y="0" on="1"/>
        <pt x="25" y="34" on="1"/>
        <pt x="39" y="41" on="0"/>
        <pt x="78" y="56" on="0"/>
        <pt x="97" y="62" on="1"/>
        <pt x="97" y="405" on="1"/>
        <pt x="22" y="406" on="1"/>
        <pt x="12" y="454" on="1"/>
        <pt x="46" y="468" on="0"/>
        <pt x="130" y="486" on="0"/>
        <pt x="169" y="487" on="1"/>
        <pt x="214" y="447" on="1"/>
        <pt x="214" y="71" on="1"/>
        <pt x="231" y="67" on="0"/>
        <pt x="263" y="55" on="0"/>
        <pt x="276" y="48" on="1"/>
        <pt x="272" y="0" on="1"/>
      </contour>
    </TTGlyph>
    <TTGlyph name="dvKSPLa" xMin="-39" yMin="-53" xMax="2074" yMax="624">
      <component glyphName="uni0915094D" x="0" y="0" flags="0x204"/>
      <component glyphName="uni0938094D" x="589" y="0" flags="0x4"/>
      <component glyphName="uni092A094D" x="1007" y="0" flags="0x4"/>
      <component glyphName="uni0932" x="1326" y="0" flags="0x4"/>
    </TTGlyph>
    <TTGlyph name="dvKSPLa.MAR" xMin="-39" yMin="-53" xMax="2097" yMax="624">
      <component glyphName="uni0915094D" x="0" y="0" flags="0x204"/>
      <component glyphName="uni0938094D" x="618" y="0" flags="0x4"/>
      <component glyphName="uni092A094D" x="1022" y="0" flags="0x4"/>
      <component glyphName="uni0932.MAR" x="1344" y="0" flags="0x4"/>
    </TTGlyph>
    <TTGlyph name="e" xMin="17" yMin="-17" xMax="448" yMax="492">
      <contour>
        <pt x="212" y="424" on="1"/>
        <pt x="183" y="408" on="0"/>
        <pt x="148" y="346" on="0"/>
        <pt x="141" y="312" on="1"/>
        <pt x="336" y="322" on="1"/>
        <pt x="328" y="367" on="0"/>
        <pt x="259" y="425" on="0"/>
      </contour>
      <contour>
        <pt x="282" y="-14" on="1"/>
        <pt x="221" y="-17" on="0"/>
        <pt x="122" y="19" on="0"/>
        <pt x="54" y="85" on="0"/>
        <pt x="17" y="177" on="0"/>
        <pt x="17" y="229" on="1"/>
        <pt x="17" y="282" on="0"/>
        <pt x="53" y="377" on="0"/>
        <pt x="117" y="449" on="0"/>
        <pt x="204" y="492" on="0"/>
        <pt x="255" y="492" on="1"/>
        <pt x="331" y="492" on="0"/>
        <pt x="448" y="393" on="0"/>
        <pt x="447" y="304" on="1"/>
        <pt x="389" y="248" on="1"/>
        <pt x="134" y="252" on="1"/>
        <pt x="134" y="250" on="1"/>
        <pt x="134" y="166" on="0"/>
        <pt x="225" y="73" on="0"/>
        <pt x="292" y="73" on="1"/>
        <pt x="323" y="73" on="0"/>
        <pt x="386" y="91" on="0"/>
        <pt x="420" y="107" on="1"/>
        <pt x="438" y="60" on="1"/>
      </contour>
    </TTGlyph>
    <TTGlyph name="eacute" xMin="17" yMin="-17" xMax="448" yMax="751">
      <component glyphName="e" x="0" y="0" flags="0x204"/>
      <component glyphName="acutecomb" x="248" y="-2" flags="0x4"/>
    </TTGlyph>
    <TTGlyph name="ecaron" xMin="17" yMin="-17" xMax="448" yMax="752">
      <component glyphName="e" x="0" y="0" flags="0x204"/>
      <component glyphName="uni030C" x="248" y="-2" flags="0x4"/>
    </TTGlyph>
    <TTGlyph name="ecircumflex" xMin="17" yMin="-17" xMax="448" yMax="724">
      <component glyphName="e" x="0" y="0" flags="0x204"/>
      <component glyphName="uni0302" x="248" y="-2" flags="0x4"/>
    </TTGlyph>
    <TTGlyph name="edieresis" xMin="17" yMin="-17" xMax="448" yMax="696">
      <component glyphName="e" x="0" y="0" flags="0x204"/>
      <component glyphName="uni0308" x="248" y="-2" flags="0x4"/>
    </TTGlyph>
    <TTGlyph name="edotaccent" xMin="17" yMin="-17" xMax="448" yMax="696">
      <component glyphName="e" x="0" y="0" flags="0x204"/>
      <component glyphName="uni0307" x="248" y="-2" flags="0x4"/>
    </TTGlyph>
    <TTGlyph name="egrave" xMin="17" yMin="-17" xMax="448" yMax="751">
      <component glyphName="e" x="0" y="0" flags="0x204"/>
      <component glyphName="gravecomb" x="248" y="-2" flags="0x4"/>
    </TTGlyph>
    <TTGlyph name="eight" xMin="39" yMin="-21" xMax="488" yMax="668">
      <contour>
        <pt x="260" y="-21" on="1"/>
        <pt x="159" y="-21" on="0"/>
        <pt x="39" y="81" on="0"/>
        <pt x="39" y="154" on="1"/>
        <pt x="39" y="208" on="0"/>
        <pt x="108" y="298" on="0"/>
        <pt x="172" y="329" on="1"/>
        <pt x="117" y="361" on="0"/>
        <pt x="56" y="445" on="0"/>
        <pt x="56" y="496" on="1"/>
        <pt x="56" y="565" on="0"/>
        <pt x="168" y="668" on="0"/>
        <pt x="267" y="668" on="1"/>
        <pt x="361" y="668" on="0"/>
        <pt x="466" y="576" on="0"/>
        <pt x="466" y="513" on="1"/>
        <pt x="466" y="469" on="0"/>
        <pt x="409" y="384" on="0"/>
        <pt x="349" y="350" on="1"/>
        <pt x="404" y="318" on="0"/>
        <pt x="488" y="232" on="0"/>
        <pt x="488" y="166" on="1"/>
        <pt x="488" y="88" on="0"/>
        <pt x="364" y="-21" on="0"/>
      </contour>
      <contour>
        <pt x="166" y="513" on="1"/>
        <pt x="166" y="467" on="0"/>
        <pt x="241" y="408" on="0"/>
        <pt x="290" y="383" on="1"/>
        <pt x="338" y="417" on="0"/>
        <pt x="364" y="481" on="0"/>
        <pt x="364" y="502" on="1"/>
        <pt x="364" y="545" on="0"/>
        <pt x="306" y="604" on="0"/>
        <pt x="260" y="604" on="1"/>
        <pt x="245" y="604" on="0"/>
        <pt x="214" y="597" on="0"/>
        <pt x="198" y="590" on="1"/>
        <pt x="181" y="570" on="0"/>
        <pt x="166" y="530" on="0"/>
      </contour>
      <contour>
        <pt x="274" y="47" on="1"/>
        <pt x="290" y="47" on="0"/>
        <pt x="326" y="53" on="0"/>
        <pt x="346" y="60" on="1"/>
        <pt x="359" y="83" on="0"/>
        <pt x="374" y="124" on="0"/>
        <pt x="374" y="143" on="1"/>
        <pt x="374" y="186" on="0"/>
        <pt x="310" y="257" on="0"/>
        <pt x="239" y="294" on="1"/>
        <pt x="199" y="270" on="0"/>
        <pt x="160" y="197" on="0"/>
        <pt x="160" y="160" on="1"/>
        <pt x="160" y="115" on="0"/>
        <pt x="218" y="47" on="0"/>
      </contour>
    </TTGlyph>
    <TTGlyph name="ellipsis" xMin="92" yMin="-19" xMax="851" yMax="145">
      <contour>
        <pt x="769" y="145" on="1"/>
        <pt x="800" y="132" on="0"/>
        <pt x="845" y="91" on="0"/>
        <pt x="851" y="63" on="1"/>
        <pt x="843" y="35" on="0"/>
        <pt x="807" y="-6" on="0"/>
        <pt x="782" y="-19" on="1"/>
        <pt x="752" y="-12" on="0"/>
        <pt x="709" y="24" on="0"/>
        <pt x="696" y="51" on="1"/>
        <pt x="701" y="83" on="0"/>
        <pt x="739" y="130" on="0"/>
      </contour>
      <contour>
        <pt x="467" y="145" on="1"/>
        <pt x="498" y="132" on="0"/>
        <pt x="543" y="91" on="0"/>
        <pt x="549" y="63" on="1"/>
        <pt x="541" y="35" on="0"/>
        <pt x="505" y="-6" on="0"/>
        <pt x="480" y="-19" on="1"/>
        <pt x="450" y="-12" on="0"/>
        <pt x="407" y="24" on="0"/>
        <pt x="394" y="51" on="1"/>
        <pt x="399" y="83" on="0"/>
        <pt x="437" y="130" on="0"/>
      </contour>
      <contour>
        <pt x="165" y="145" on="1"/>
        <pt x="196" y="132" on="0"/>
        <pt x="241" y="91" on="0"/>
        <pt x="247" y="63" on="1"/>
        <pt x="239" y="35" on="0"/>
        <pt x="203" y="-6" on="0"/>
        <pt x="178" y="-19" on="1"/>
        <pt x="148" y="-12" on="0"/>
        <pt x="105" y="24" on="0"/>
        <pt x="92" y="51" on="1"/>
        <pt x="97" y="83" on="0"/>
        <pt x="135" y="130" on="0"/>
      </contour>
    </TTGlyph>
    <TTGlyph name="emacron" xMin="17" yMin="-17" xMax="448" yMax="641">
      <component glyphName="e" x="0" y="0" flags="0x204"/>
      <component glyphName="uni0304" x="247" y="-2" flags="0x4"/>
    </TTGlyph>
    <TTGlyph name="emdash" xMin="39" yMin="219" xMax="949" yMax="304">
      <contour>
        <pt x="39" y="276" on="1"/>
        <pt x="68" y="291" on="0"/>
        <pt x="130" y="304" on="0"/>
        <pt x="153" y="304" on="1"/>
        <pt x="945" y="304" on="1"/>
        <pt x="949" y="268" on="1"/>
        <pt x="902" y="219" on="1"/>
        <pt x="46" y="219" on="1"/>
      </contour>
    </TTGlyph>
    <TTGlyph name="endash" xMin="39" yMin="219" xMax="517" yMax="304">
      <contour>
        <pt x="39" y="276" on="1"/>
        <pt x="68" y="291" on="0"/>
        <pt x="130" y="304" on="0"/>
        <pt x="152" y="304" on="1"/>
        <pt x="513" y="304" on="1"/>
        <pt x="517" y="268" on="1"/>
        <pt x="469" y="219" on="1"/>
        <pt x="46" y="219" on="1"/>
      </contour>
    </TTGlyph>
    <TTGlyph name="eogonek" xMin="17" yMin="-233" xMax="448" yMax="492">
      <contour>
        <pt x="212" y="424" on="1"/>
        <pt x="183" y="408" on="0"/>
        <pt x="148" y="346" on="0"/>
        <pt x="141" y="312" on="1"/>
        <pt x="336" y="322" on="1"/>
        <pt x="328" y="367" on="0"/>
        <pt x="259" y="425" on="0"/>
      </contour>
      <contour>
        <pt x="310" y="-229" on="1"/>
        <pt x="250" y="-233" on="0"/>
        <pt x="181" y="-166" on="0"/>
        <pt x="181" y="-123" on="1"/>
        <pt x="181" y="-95" on="0"/>
        <pt x="212" y="-39" on="0"/>
        <pt x="241" y="-13" on="1"/>
        <pt x="137" y="-6" on="0"/>
        <pt x="17" y="134" on="0"/>
        <pt x="17" y="229" on="1"/>
        <pt x="17" y="282" on="0"/>
        <pt x="53" y="377" on="0"/>
        <pt x="117" y="449" on="0"/>
        <pt x="204" y="492" on="0"/>
        <pt x="255" y="492" on="1"/>
        <pt x="331" y="492" on="0"/>
        <pt x="448" y="393" on="0"/>
        <pt x="447" y="304" on="1"/>
        <pt x="389" y="248" on="1"/>
        <pt x="134" y="252" on="1"/>
        <pt x="134" y="250" on="1"/>
        <pt x="134" y="166" on="0"/>
        <pt x="225" y="73" on="0"/>
        <pt x="292" y="73" on="1"/>
        <pt x="323" y="73" on="0"/>
        <pt x="386" y="91" on="0"/>
        <pt x="420" y="107" on="1"/>
        <pt x="438" y="60" on="1"/>
        <pt x="393" y="36" on="1"/>
        <pt x="339" y="8" on="0"/>
        <pt x="269" y="-60" on="0"/>
        <pt x="269" y="-97" on="1"/>
        <pt x="269" y="-134" on="0"/>
        <pt x="344" y="-165" on="0"/>
        <pt x="410" y="-128" on="1"/>
        <pt x="429" y="-170" on="1"/>
      </contour>
    </TTGlyph>
    <TTGlyph name="equal" xMin="58" yMin="122" xMax="530" yMax="377">
      <contour>
        <pt x="58" y="377" on="1"/>
        <pt x="530" y="377" on="1"/>
        <pt x="530" y="304" on="1"/>
        <pt x="58" y="304" on="1"/>
      </contour>
      <contour>
        <pt x="58" y="195" on="1"/>
        <pt x="530" y="195" on="1"/>
        <pt x="530" y="122" on="1"/>
        <pt x="58" y="122" on="1"/>
      </contour>
    </TTGlyph>
    <TTGlyph name="eth" xMin="19" yMin="-25" xMax="487" yMax="766">
      <contour>
        <pt x="257" y="-25" on="1"/>
        <pt x="160" y="-25" on="0"/>
        <pt x="19" y="121" on="0"/>
        <pt x="19" y="233" on="1"/>
        <pt x="19" y="341" on="0"/>
        <pt x="151" y="481" on="0"/>
        <pt x="244" y="481" on="1"/>
        <pt x="275" y="481" on="0"/>
        <pt x="323" y="464" on="0"/>
        <pt x="345" y="448" on="1"/>
        <pt x="332" y="483" on="0"/>
        <pt x="304" y="547" on="0"/>
        <pt x="287" y="578" on="1"/>
        <pt x="204" y="537" on="1"/>
        <pt x="155" y="563" on="1"/>
        <pt x="144" y="594" on="1"/>
        <pt x="246" y="645" on="1"/>
        <pt x="234" y="663" on="0"/>
        <pt x="207" y="700" on="0"/>
        <pt x="191" y="719" on="1"/>
        <pt x="277" y="766" on="1"/>
        <pt x="293" y="748" on="0"/>
        <pt x="323" y="710" on="0"/>
        <pt x="336" y="691" on="1"/>
        <pt x="430" y="738" on="1"/>
        <pt x="467" y="668" on="1"/>
        <pt x="379" y="624" on="1"/>
        <pt x="435" y="528" on="0"/>
        <pt x="487" y="335" on="0"/>
        <pt x="487" y="260" on="1"/>
        <pt x="487" y="126" on="0"/>
        <pt x="353" y="-25" on="0"/>
      </contour>
      <contour>
        <pt x="136" y="231" on="1"/>
        <pt x="136" y="197" on="0"/>
        <pt x="156" y="130" on="0"/>
        <pt x="197" y="79" on="0"/>
        <pt x="261" y="51" on="0"/>
        <pt x="304" y="55" on="1"/>
        <pt x="350" y="98" on="0"/>
        <pt x="380" y="259" on="0"/>
        <pt x="364" y="343" on="1"/>
        <pt x="328" y="374" on="0"/>
        <pt x="256" y="407" on="0"/>
        <pt x="213" y="408" on="1"/>
        <pt x="178" y="385" on="0"/>
        <pt x="136" y="284" on="0"/>
      </contour>
    </TTGlyph>
    <TTGlyph name="exclam" xMin="80" yMin="-20" xMax="235" yMax="676">
      <contour>
        <pt x="195" y="224" on="1"/>
        <pt x="118" y="224" on="1"/>
        <pt x="82" y="656" on="1"/>
        <pt x="95" y="666" on="0"/>
        <pt x="138" y="676" on="0"/>
        <pt x="182" y="676" on="0"/>
        <pt x="222" y="665" on="0"/>
        <pt x="233" y="654" on="1"/>
      </contour>
      <contour>
        <pt x="80" y="49" on="1"/>
        <pt x="85" y="81" on="0"/>
        <pt x="123" y="128" on="0"/>
        <pt x="153" y="144" on="1"/>
        <pt x="184" y="131" on="0"/>
        <pt x="229" y="89" on="0"/>
        <pt x="235" y="62" on="1"/>
        <pt x="227" y="34" on="0"/>
        <pt x="191" y="-8" on="0"/>
        <pt x="166" y="-20" on="1"/>
        <pt x="136" y="-13" on="0"/>
        <pt x="93" y="22" on="0"/>
      </contour>
    </TTGlyph>
    <TTGlyph name="exclamdown" xMin="80" yMin="-199" xMax="235" yMax="497">
      <contour>
        <pt x="153" y="333" on="1"/>
        <pt x="123" y="349" on="0"/>
        <pt x="85" y="396" on="0"/>
        <pt x="80" y="428" on="1"/>
        <pt x="93" y="455" on="0"/>
        <pt x="136" y="490" on="0"/>
        <pt x="166" y="497" on="1"/>
        <pt x="191" y="485" on="0"/>
        <pt x="227" y="443" on="0"/>
        <pt x="235" y="415" on="1"/>
        <pt x="229" y="388" on="0"/>
        <pt x="184" y="346" on="0"/>
      </contour>
      <contour>
        <pt x="118" y="253" on="1"/>
        <pt x="195" y="253" on="1"/>
        <pt x="233" y="-177" on="1"/>
        <pt x="222" y="-188" on="0"/>
        <pt x="182" y="-199" on="0"/>
        <pt x="138" y="-199" on="0"/>
        <pt x="95" y="-189" on="0"/>
        <pt x="82" y="-179" on="1"/>
      </contour>
    </TTGlyph>
    <TTGlyph name="f" xMin="12" yMin="0" xMax="386" yMax="751">
      <contour>
        <pt x="19" y="0" on="1"/>
        <pt x="15" y="34" on="1"/>
        <pt x="28" y="41" on="0"/>
        <pt x="65" y="55" on="0"/>
        <pt x="83" y="61" on="1"/>
        <pt x="83" y="382" on="1"/>
        <pt x="17" y="381" on="1"/>
        <pt x="12" y="432" on="1"/>
        <pt x="30" y="441" on="0"/>
        <pt x="66" y="455" on="0"/>
        <pt x="83" y="461" on="1"/>
        <pt x="83" y="554" on="1"/>
        <pt x="83" y="644" on="0"/>
        <pt x="192" y="751" on="0"/>
        <pt x="261" y="751" on="1"/>
        <pt x="292" y="751" on="0"/>
        <pt x="358" y="727" on="0"/>
        <pt x="386" y="702" on="1"/>
        <pt x="319" y="598" on="1"/>
        <pt x="285" y="631" on="0"/>
        <pt x="206" y="660" on="0"/>
        <pt x="168" y="656" on="1"/>
        <pt x="203" y="470" on="1"/>
        <pt x="311" y="470" on="1"/>
        <pt x="313" y="435" on="1"/>
        <pt x="265" y="381" on="1"/>
        <pt x="200" y="381" on="1"/>
        <pt x="200" y="75" on="1"/>
        <pt x="225" y="71" on="0"/>
        <pt x="274" y="58" on="0"/>
        <pt x="291" y="48" on="1"/>
        <pt x="287" y="0" on="1"/>
      </contour>
    </TTGlyph>
    <TTGlyph name="f_b.liga" xMin="12" yMin="-19" xMax="874" yMax="736">
      <contour>
        <pt x="605" y="-19" on="1"/>
        <pt x="562" y="-19" on="0"/>
        <pt x="469" y="3" on="0"/>
        <pt x="421" y="23" on="1"/>
        <pt x="422" y="24" on="1"/>
        <pt x="422" y="638" on="1"/>
        <pt x="173" y="646" on="1"/>
        <pt x="203" y="470" on="1"/>
        <pt x="309" y="470" on="1"/>
        <pt x="311" y="435" on="1"/>
        <pt x="263" y="381" on="1"/>
        <pt x="200" y="381" on="1"/>
        <pt x="200" y="76" on="1"/>
        <pt x="224" y="72" on="0"/>
        <pt x="272" y="58" on="0"/>
        <pt x="289" y="48" on="1"/>
        <pt x="285" y="0" on="1"/>
        <pt x="19" y="0" on="1"/>
        <pt x="15" y="34" on="1"/>
        <pt x="28" y="41" on="0"/>
        <pt x="65" y="55" on="0"/>
        <pt x="83" y="61" on="1"/>
        <pt x="83" y="382" on="1"/>
        <pt x="17" y="381" on="1"/>
        <pt x="12" y="432" on="1"/>
        <pt x="30" y="441" on="0"/>
        <pt x="66" y="455" on="0"/>
        <pt x="83" y="461" on="1"/>
        <pt x="83" y="540" on="1"/>
        <pt x="83" y="636" on="0"/>
        <pt x="204" y="736" on="0"/>
        <pt x="278" y="736" on="1"/>
        <pt x="495" y="736" on="1"/>
        <pt x="539" y="695" on="1"/>
        <pt x="539" y="408" on="1"/>
        <pt x="652" y="484" on="1"/>
        <pt x="702" y="494" on="0"/>
        <pt x="785" y="463" on="0"/>
        <pt x="842" y="398" on="0"/>
        <pt x="874" y="305" on="0"/>
        <pt x="874" y="254" on="1"/>
        <pt x="874" y="198" on="0"/>
        <pt x="836" y="98" on="0"/>
        <pt x="767" y="24" on="0"/>
        <pt x="667" y="-19" on="0"/>
      </contour>
      <contour>
        <pt x="637" y="393" on="1"/>
        <pt x="614" y="393" on="0"/>
        <pt x="564" y="373" on="0"/>
        <pt x="539" y="358" on="1"/>
        <pt x="539" y="82" on="1"/>
        <pt x="564" y="68" on="0"/>
        <pt x="632" y="52" on="0"/>
        <pt x="675" y="59" on="1"/>
        <pt x="712" y="84" on="0"/>
        <pt x="752" y="180" on="0"/>
        <pt x="752" y="231" on="1"/>
        <pt x="752" y="294" on="0"/>
        <pt x="689" y="393" on="0"/>
      </contour>
    </TTGlyph>
    <TTGlyph name="f_f.liga" xMin="12" yMin="0" xMax="732" yMax="751">
      <component glyphName="f" x="0" y="0" flags="0x204"/>
      <component glyphName="f" x="346" y="0" flags="0x4"/>
    </TTGlyph>
    <TTGlyph name="f_h.liga" xMin="12" yMin="0" xMax="935" yMax="736">
      <contour>
        <pt x="19" y="0" on="1"/>
        <pt x="15" y="34" on="1"/>
        <pt x="28" y="41" on="0"/>
        <pt x="65" y="55" on="0"/>
        <pt x="83" y="61" on="1"/>
        <pt x="83" y="382" on="1"/>
        <pt x="17" y="381" on="1"/>
        <pt x="12" y="432" on="1"/>
        <pt x="30" y="441" on="0"/>
        <pt x="66" y="455" on="0"/>
        <pt x="83" y="461" on="1"/>
        <pt x="83" y="540" on="1"/>
        <pt x="83" y="636" on="0"/>
        <pt x="204" y="736" on="0"/>
        <pt x="278" y="736" on="1"/>
        <pt x="515" y="736" on="1"/>
        <pt x="560" y="696" on="1"/>
        <pt x="560" y="392" on="1"/>
        <pt x="615" y="432" on="0"/>
        <pt x="713" y="483" on="0"/>
        <pt x="743" y="488" on="1"/>
        <pt x="771" y="484" on="0"/>
        <pt x="834" y="447" on="0"/>
        <pt x="850" y="419" on="1"/>
        <pt x="857" y="406" on="0"/>
        <pt x="863" y="354" on="0"/>
        <pt x="863" y="299" on="1"/>
        <pt x="863" y="72" on="1"/>
        <pt x="883" y="68" on="0"/>
        <pt x="921" y="55" on="0"/>
        <pt x="935" y="48" on="1"/>
        <pt x="931" y="0" on="1"/>
        <pt x="694" y="0" on="1"/>
        <pt x="690" y="34" on="1"/>
        <pt x="701" y="40" on="0"/>
        <pt x="731" y="52" on="0"/>
        <pt x="746" y="57" on="1"/>
        <pt x="746" y="292" on="1"/>
        <pt x="746" y="348" on="0"/>
        <pt x="709" y="396" on="0"/>
        <pt x="681" y="395" on="1"/>
        <pt x="656" y="395" on="0"/>
        <pt x="591" y="364" on="0"/>
        <pt x="560" y="344" on="1"/>
        <pt x="560" y="71" on="1"/>
        <pt x="577" y="67" on="0"/>
        <pt x="609" y="55" on="0"/>
        <pt x="622" y="48" on="1"/>
        <pt x="618" y="0" on="1"/>
        <pt x="372" y="0" on="1"/>
        <pt x="368" y="34" on="1"/>
        <pt x="383" y="41" on="0"/>
        <pt x="424" y="57" on="0"/>
        <pt x="443" y="63" on="1"/>
        <pt x="443" y="637" on="1"/>
        <pt x="173" y="646" on="1"/>
        <pt x="203" y="470" on="1"/>
        <pt x="309" y="470" on="1"/>
        <pt x="311" y="435" on="1"/>
        <pt x="263" y="381" on="1"/>
        <pt x="200" y="381" on="1"/>
        <pt x="200" y="76" on="1"/>
        <pt x="224" y="72" on="0"/>
        <pt x="272" y="58" on="0"/>
        <pt x="289" y="48" on="1"/>
        <pt x="285" y="0" on="1"/>
      </contour>
    </TTGlyph>
    <TTGlyph name="f_i.liga" xMin="12" yMin="0" xMax="631" yMax="751">
      <component glyphName="f" x="0" y="0" flags="0x204"/>
      <component glyphName="i" x="346" y="0" flags="0x4"/>
    </TTGlyph>
    <TTGlyph name="f_j.liga" xMin="12" yMin="-213" xMax="580" yMax="751">
      <component glyphName="f" x="0" y="0" flags="0x204"/>
      <component glyphName="j" x="346" y="0" flags="0x4"/>
    </TTGlyph>
    <TTGlyph name="f_k.liga" xMin="12" yMin="-12" xMax="903" yMax="736">
      <contour>
        <pt x="775" y="-12" on="1"/>
        <pt x="754" y="-5" on="0"/>
        <pt x="726" y="25" on="0"/>
        <pt x="710" y="50" on="1"/>
        <pt x="618" y="195" on="1"/>
        <pt x="557" y="187" on="1"/>
        <pt x="557" y="69" on="1"/>
        <pt x="572" y="65" on="0"/>
        <pt x="600" y="55" on="0"/>
        <pt x="611" y="48" on="1"/>
        <pt x="607" y="0" on="1"/>
        <pt x="369" y="0" on="1"/>
        <pt x="365" y="34" on="1"/>
        <pt x="380" y="41" on="0"/>
        <pt x="421" y="57" on="0"/>
        <pt x="440" y="63" on="1"/>
        <pt x="440" y="637" on="1"/>
        <pt x="173" y="646" on="1"/>
        <pt x="203" y="470" on="1"/>
        <pt x="309" y="470" on="1"/>
        <pt x="311" y="435" on="1"/>
        <pt x="263" y="381" on="1"/>
        <pt x="200" y="381" on="1"/>
        <pt x="200" y="76" on="1"/>
        <pt x="224" y="72" on="0"/>
        <pt x="272" y="58" on="0"/>
        <pt x="289" y="48" on="1"/>
        <pt x="285" y="0" on="1"/>
        <pt x="19" y="0" on="1"/>
        <pt x="15" y="34" on="1"/>
        <pt x="28" y="41" on="0"/>
        <pt x="65" y="55" on="0"/>
        <pt x="83" y="61" on="1"/>
        <pt x="83" y="382" on="1"/>
        <pt x="17" y="381" on="1"/>
        <pt x="12" y="432" on="1"/>
        <pt x="30" y="441" on="0"/>
        <pt x="66" y="455" on="0"/>
        <pt x="83" y="461" on="1"/>
        <pt x="83" y="540" on="1"/>
        <pt x="83" y="636" on="0"/>
        <pt x="204" y="736" on="0"/>
        <pt x="278" y="736" on="1"/>
        <pt x="512" y="736" on="1"/>
        <pt x="557" y="696" on="1"/>
        <pt x="557" y="239" on="1"/>
        <pt x="613" y="272" on="1"/>
        <pt x="729" y="412" on="1"/>
        <pt x="653" y="408" on="1"/>
        <pt x="643" y="456" on="1"/>
        <pt x="683" y="470" on="0"/>
        <pt x="788" y="488" on="0"/>
        <pt x="825" y="489" on="1"/>
        <pt x="825" y="489" on="1"/>
        <pt x="825" y="489" on="1"/>
        <pt x="826" y="489" on="1"/>
        <pt x="826" y="488" on="1"/>
        <pt x="861" y="433" on="1"/>
        <pt x="707" y="251" on="1"/>
        <pt x="815" y="95" on="1"/>
        <pt x="828" y="76" on="0"/>
        <pt x="863" y="69" on="0"/>
        <pt x="891" y="73" on="1"/>
        <pt x="903" y="25" on="1"/>
      </contour>
    </TTGlyph>
    <TTGlyph name="f_l.liga" xMin="12" yMin="0" xMax="631" yMax="736">
      <contour>
        <pt x="19" y="0" on="1"/>
        <pt x="15" y="34" on="1"/>
        <pt x="28" y="41" on="0"/>
        <pt x="65" y="55" on="0"/>
        <pt x="83" y="61" on="1"/>
        <pt x="83" y="382" on="1"/>
        <pt x="17" y="381" on="1"/>
        <pt x="12" y="432" on="1"/>
        <pt x="30" y="441" on="0"/>
        <pt x="66" y="455" on="0"/>
        <pt x="83" y="461" on="1"/>
        <pt x="83" y="540" on="1"/>
        <pt x="83" y="636" on="0"/>
        <pt x="204" y="736" on="0"/>
        <pt x="278" y="736" on="1"/>
        <pt x="515" y="736" on="1"/>
        <pt x="560" y="696" on="1"/>
        <pt x="560" y="72" on="1"/>
        <pt x="580" y="68" on="0"/>
        <pt x="618" y="56" on="0"/>
        <pt x="631" y="48" on="1"/>
        <pt x="627" y="0" on="1"/>
        <pt x="371" y="0" on="1"/>
        <pt x="367" y="34" on="1"/>
        <pt x="382" y="41" on="0"/>
        <pt x="424" y="57" on="0"/>
        <pt x="443" y="63" on="1"/>
        <pt x="443" y="637" on="1"/>
        <pt x="173" y="646" on="1"/>
        <pt x="203" y="470" on="1"/>
        <pt x="309" y="470" on="1"/>
        <pt x="311" y="435" on="1"/>
        <pt x="263" y="381" on="1"/>
        <pt x="200" y="381" on="1"/>
        <pt x="200" y="76" on="1"/>
        <pt x="224" y="72" on="0"/>
        <pt x="272" y="58" on="0"/>
        <pt x="289" y="48" on="1"/>
        <pt x="285" y="0" on="1"/>
      </contour>
    </TTGlyph>
    <TTGlyph name="f_t.liga" xMin="12" yMin="-18" xMax="689" yMax="751">
      <component glyphName="f" x="0" y="0" flags="0x204"/>
      <component glyphName="t" x="346" y="0" flags="0x4"/>
    </TTGlyph>
    <TTGlyph name="five" xMin="44" yMin="-21" xMax="507" yMax="650">
      <contour>
        <pt x="276" y="-21" on="1"/>
        <pt x="221" y="-21" on="0"/>
        <pt x="95" y="17" on="0"/>
        <pt x="44" y="50" on="1"/>
        <pt x="88" y="157" on="1"/>
        <pt x="150" y="111" on="0"/>
        <pt x="289" y="65" on="0"/>
        <pt x="352" y="71" on="1"/>
        <pt x="380" y="98" on="0"/>
        <pt x="397" y="147" on="0"/>
        <pt x="397" y="167" on="1"/>
        <pt x="397" y="236" on="0"/>
        <pt x="298" y="298" on="0"/>
        <pt x="234" y="298" on="1"/>
        <pt x="209" y="298" on="0"/>
        <pt x="152" y="287" on="0"/>
        <pt x="128" y="278" on="1"/>
        <pt x="77" y="325" on="1"/>
        <pt x="111" y="650" on="1"/>
        <pt x="457" y="650" on="1"/>
        <pt x="457" y="649" on="1"/>
        <pt x="474" y="650" on="1"/>
        <pt x="476" y="613" on="0"/>
        <pt x="469" y="512" on="0"/>
        <pt x="462" y="475" on="1"/>
        <pt x="389" y="474" on="1"/>
        <pt x="374" y="566" on="1"/>
        <pt x="199" y="574" on="1"/>
        <pt x="181" y="380" on="1"/>
        <pt x="200" y="389" on="0"/>
        <pt x="250" y="395" on="0"/>
        <pt x="272" y="395" on="1"/>
        <pt x="313" y="395" on="0"/>
        <pt x="397" y="371" on="0"/>
        <pt x="464" y="321" on="0"/>
        <pt x="507" y="244" on="0"/>
        <pt x="507" y="191" on="1"/>
        <pt x="507" y="101" on="0"/>
        <pt x="380" y="-21" on="0"/>
      </contour>
    </TTGlyph>
    <TTGlyph name="four" xMin="21" yMin="0" xMax="552" yMax="670">
      <contour>
        <pt x="322" y="456" on="1"/>
        <pt x="332" y="542" on="1"/>
        <pt x="137" y="245" on="1"/>
        <pt x="322" y="250" on="1"/>
      </contour>
      <contour>
        <pt x="214" y="0" on="1"/>
        <pt x="208" y="34" on="1"/>
        <pt x="234" y="46" on="0"/>
        <pt x="292" y="66" on="0"/>
        <pt x="322" y="74" on="1"/>
        <pt x="322" y="169" on="1"/>
        <pt x="48" y="169" on="1"/>
        <pt x="21" y="238" on="1"/>
        <pt x="342" y="670" on="1"/>
        <pt x="417" y="658" on="1"/>
        <pt x="416" y="655" on="1"/>
        <pt x="437" y="658" on="1"/>
        <pt x="437" y="253" on="1"/>
        <pt x="550" y="256" on="1"/>
        <pt x="552" y="196" on="1"/>
        <pt x="523" y="169" on="1"/>
        <pt x="437" y="169" on="1"/>
        <pt x="437" y="61" on="1"/>
        <pt x="516" y="50" on="1"/>
        <pt x="511" y="0" on="1"/>
      </contour>
    </TTGlyph>
    <TTGlyph name="four.dnom" xMin="3" yMin="0" xMax="281" yMax="328">
      <component glyphName="foursuperior" x="0" y="-423" flags="0x4"/>
    </TTGlyph>
    <TTGlyph name="four.numr" xMin="3" yMin="342" xMax="281" yMax="670">
      <component glyphName="foursuperior" x="0" y="-81" flags="0x4"/>
    </TTGlyph>
    <TTGlyph name="foursuperior" xMin="3" yMin="423" xMax="281" yMax="751">
      <contour>
        <pt x="150" y="615" on="1"/>
        <pt x="161" y="666" on="1"/>
        <pt x="78" y="543" on="1"/>
        <pt x="150" y="544" on="1"/>
      </contour>
      <contour>
        <pt x="95" y="423" on="1"/>
        <pt x="92" y="439" on="1"/>
        <pt x="104" y="446" on="0"/>
        <pt x="135" y="458" on="0"/>
        <pt x="150" y="462" on="1"/>
        <pt x="150" y="496" on="1"/>
        <pt x="17" y="496" on="1"/>
        <pt x="3" y="532" on="1"/>
        <pt x="162" y="750" on="1"/>
        <pt x="162" y="751" on="1"/>
        <pt x="163" y="751" on="1"/>
        <pt x="163" y="751" on="1"/>
        <pt x="165" y="750" on="1"/>
        <pt x="225" y="739" on="1"/>
        <pt x="225" y="545" on="1"/>
        <pt x="281" y="546" on="1"/>
        <pt x="281" y="516" on="1"/>
        <pt x="266" y="496" on="1"/>
        <pt x="225" y="496" on="1"/>
        <pt x="225" y="457" on="1"/>
        <pt x="265" y="450" on="1"/>
        <pt x="264" y="423" on="1"/>
      </contour>
    </TTGlyph>
    <TTGlyph name="fraction" xMin="-223" yMin="18" xMax="407" yMax="673">
      <contour>
        <pt x="-170" y="18" on="1"/>
        <pt x="-223" y="68" on="1"/>
        <pt x="356" y="673" on="1"/>
        <pt x="407" y="621" on="1"/>
      </contour>
    </TTGlyph>
    <TTGlyph name="g" xMin="26" yMin="-236" xMax="542" yMax="548">
      <contour>
        <pt x="359" y="317" on="1"/>
        <pt x="359" y="346" on="0"/>
        <pt x="333" y="399" on="0"/>
        <pt x="287" y="433" on="0"/>
        <pt x="225" y="439" on="0"/>
        <pt x="190" y="422" on="1"/>
        <pt x="173" y="403" on="0"/>
        <pt x="159" y="354" on="0"/>
        <pt x="159" y="331" on="1"/>
        <pt x="159" y="268" on="0"/>
        <pt x="242" y="198" on="0"/>
        <pt x="316" y="223" on="1"/>
        <pt x="340" y="242" on="0"/>
        <pt x="359" y="293" on="0"/>
      </contour>
      <contour>
        <pt x="509" y="40" on="1"/>
        <pt x="525" y="-18" on="0"/>
        <pt x="487" y="-119" on="0"/>
        <pt x="404" y="-193" on="0"/>
        <pt x="286" y="-236" on="0"/>
        <pt x="224" y="-236" on="1"/>
        <pt x="186" y="-236" on="0"/>
        <pt x="113" y="-219" on="0"/>
        <pt x="58" y="-183" on="0"/>
        <pt x="26" y="-128" on="0"/>
        <pt x="27" y="-90" on="1"/>
        <pt x="142" y="14" on="1"/>
        <pt x="124" y="15" on="0"/>
        <pt x="88" y="17" on="0"/>
        <pt x="71" y="18" on="1"/>
        <pt x="52" y="74" on="1"/>
        <pt x="74" y="99" on="0"/>
        <pt x="132" y="152" on="0"/>
        <pt x="161" y="172" on="1"/>
        <pt x="109" y="191" on="0"/>
        <pt x="41" y="270" on="0"/>
        <pt x="41" y="325" on="1"/>
        <pt x="41" y="404" on="0"/>
        <pt x="173" y="499" on="0"/>
        <pt x="259" y="499" on="1"/>
        <pt x="297" y="499" on="0"/>
        <pt x="369" y="480" on="0"/>
        <pt x="397" y="462" on="1"/>
        <pt x="413" y="496" on="0"/>
        <pt x="476" y="543" on="0"/>
        <pt x="520" y="548" on="1"/>
        <pt x="542" y="432" on="1"/>
        <pt x="515" y="433" on="0"/>
        <pt x="467" y="426" on="0"/>
        <pt x="446" y="416" on="1"/>
        <pt x="459" y="397" on="0"/>
        <pt x="475" y="351" on="0"/>
        <pt x="475" y="325" on="1"/>
        <pt x="475" y="245" on="0"/>
        <pt x="343" y="155" on="0"/>
        <pt x="257" y="155" on="1"/>
        <pt x="249" y="155" on="0"/>
        <pt x="231" y="156" on="0"/>
        <pt x="223" y="157" on="1"/>
        <pt x="206" y="144" on="0"/>
        <pt x="174" y="116" on="0"/>
        <pt x="163" y="104" on="1"/>
        <pt x="201" y="103" on="0"/>
        <pt x="294" y="92" on="0"/>
        <pt x="387" y="75" on="0"/>
        <pt x="475" y="52" on="0"/>
      </contour>
      <contour>
        <pt x="237" y="-140" on="1"/>
        <pt x="293" y="-140" on="0"/>
        <pt x="411" y="-94" on="0"/>
        <pt x="437" y="-49" on="1"/>
        <pt x="402" y="-31" on="0"/>
        <pt x="275" y="-1" on="0"/>
        <pt x="201" y="8" on="1"/>
        <pt x="169" y="-15" on="0"/>
        <pt x="126" y="-63" on="0"/>
        <pt x="126" y="-84" on="1"/>
        <pt x="126" y="-111" on="0"/>
        <pt x="190" y="-140" on="0"/>
      </contour>
    </TTGlyph>
    <TTGlyph name="gbreve" xMin="26" yMin="-236" xMax="542" yMax="715">
      <component glyphName="g" x="0" y="0" flags="0x204"/>
      <component glyphName="uni0306" x="259" y="-2" flags="0x4"/>
    </TTGlyph>
    <TTGlyph name="gcommaaccent" xMin="26" yMin="-236" xMax="542" yMax="745">
      <component glyphName="g" x="0" y="0" flags="0x204"/>
      <component glyphName="uni00200326" x="306" y="807" flags="0x4"/>
    </TTGlyph>
    <TTGlyph name="germandbls" xMin="10" yMin="-17" xMax="557" yMax="686">
      <contour>
        <pt x="387" y="-17" on="1"/>
        <pt x="353" y="-17" on="0"/>
        <pt x="281" y="1" on="0"/>
        <pt x="248" y="17" on="1"/>
        <pt x="287" y="121" on="1"/>
        <pt x="311" y="104" on="0"/>
        <pt x="385" y="66" on="0"/>
        <pt x="425" y="59" on="1"/>
        <pt x="435" y="72" on="0"/>
        <pt x="445" y="100" on="0"/>
        <pt x="445" y="113" on="1"/>
        <pt x="445" y="147" on="0"/>
        <pt x="390" y="196" on="0"/>
        <pt x="325" y="241" on="0"/>
        <pt x="268" y="292" on="0"/>
        <pt x="267" y="330" on="1"/>
        <pt x="284" y="360" on="0"/>
        <pt x="330" y="426" on="0"/>
        <pt x="362" y="494" on="0"/>
        <pt x="365" y="565" on="0"/>
        <pt x="340" y="599" on="1"/>
        <pt x="312" y="608" on="0"/>
        <pt x="222" y="602" on="0"/>
        <pt x="188" y="579" on="1"/>
        <pt x="198" y="435" on="1"/>
        <pt x="198" y="0" on="1"/>
        <pt x="17" y="0" on="1"/>
        <pt x="13" y="34" on="1"/>
        <pt x="27" y="41" on="0"/>
        <pt x="64" y="56" on="0"/>
        <pt x="83" y="62" on="1"/>
        <pt x="83" y="380" on="1"/>
        <pt x="15" y="379" on="1"/>
        <pt x="10" y="430" on="1"/>
        <pt x="28" y="440" on="0"/>
        <pt x="65" y="456" on="0"/>
        <pt x="83" y="462" on="1"/>
        <pt x="83" y="479" on="1"/>
        <pt x="83" y="535" on="0"/>
        <pt x="121" y="614" on="0"/>
        <pt x="178" y="663" on="0"/>
        <pt x="249" y="686" on="0"/>
        <pt x="282" y="686" on="1"/>
        <pt x="367" y="686" on="0"/>
        <pt x="475" y="581" on="0"/>
        <pt x="475" y="517" on="1"/>
        <pt x="475" y="475" on="0"/>
        <pt x="422" y="397" on="0"/>
        <pt x="363" y="360" on="1"/>
        <pt x="372" y="333" on="0"/>
        <pt x="435" y="291" on="0"/>
        <pt x="503" y="242" on="0"/>
        <pt x="557" y="176" on="0"/>
        <pt x="557" y="126" on="1"/>
        <pt x="557" y="59" on="0"/>
        <pt x="457" y="-17" on="0"/>
      </contour>
    </TTGlyph>
    <TTGlyph name="grave" xMin="33" yMin="532" xMax="264" yMax="753">
      <component glyphName="gravecomb" x="173" y="0" flags="0x4"/>
    </TTGlyph>
    <TTGlyph name="gravecomb" xMin="-140" yMin="532" xMax="91" yMax="753">
      <contour>
        <pt x="91" y="583" on="1"/>
        <pt x="27" y="532" on="1"/>
        <pt x="-15" y="572" on="0"/>
        <pt x="-95" y="644" on="0"/>
        <pt x="-140" y="681" on="1"/>
        <pt x="-55" y="753" on="1"/>
      </contour>
    </TTGlyph>
    <TTGlyph name="gravecomb.case" xMin="-142" yMin="690" xMax="144" yMax="886">
      <contour>
        <pt x="-88" y="886" on="1"/>
        <pt x="144" y="755" on="1"/>
        <pt x="105" y="690" on="1"/>
        <pt x="43" y="716" on="0"/>
        <pt x="-79" y="765" on="0"/>
        <pt x="-142" y="789" on="1"/>
      </contour>
    </TTGlyph>
    <TTGlyph name="greater" xMin="75" yMin="-6" xMax="500" yMax="500">
      <contour>
        <pt x="394" y="242" on="1"/>
        <pt x="75" y="435" on="1"/>
        <pt x="114" y="500" on="1"/>
        <pt x="500" y="272" on="1"/>
        <pt x="494" y="202" on="1"/>
        <pt x="115" y="-6" on="1"/>
        <pt x="76" y="63" on="1"/>
        <pt x="393" y="236" on="1"/>
      </contour>
    </TTGlyph>
    <TTGlyph name="greaterequal" xMin="58" yMin="0" xMax="542" yMax="599">
      <contour>
        <pt x="88" y="537" on="1"/>
        <pt x="127" y="599" on="1"/>
        <pt x="514" y="391" on="1"/>
        <pt x="506" y="321" on="1"/>
        <pt x="127" y="133" on="1"/>
        <pt x="90" y="198" on="1"/>
        <pt x="411" y="355" on="1"/>
        <pt x="412" y="361" on="1"/>
      </contour>
      <contour>
        <pt x="58" y="0" on="1"/>
        <pt x="58" y="73" on="1"/>
        <pt x="542" y="73" on="1"/>
        <pt x="542" y="0" on="1"/>
      </contour>
    </TTGlyph>
    <TTGlyph name="guillemotleft" xMin="58" yMin="42" xMax="486" yMax="467">
      <contour>
        <pt x="271" y="227" on="1"/>
        <pt x="271" y="280" on="1"/>
        <pt x="416" y="467" on="1"/>
        <pt x="481" y="429" on="1"/>
        <pt x="391" y="253" on="1"/>
        <pt x="486" y="86" on="1"/>
        <pt x="420" y="42" on="1"/>
      </contour>
      <contour>
        <pt x="58" y="227" on="1"/>
        <pt x="58" y="280" on="1"/>
        <pt x="203" y="467" on="1"/>
        <pt x="268" y="429" on="1"/>
        <pt x="178" y="253" on="1"/>
        <pt x="273" y="86" on="1"/>
        <pt x="207" y="42" on="1"/>
      </contour>
    </TTGlyph>
    <TTGlyph name="guillemotright" xMin="58" yMin="42" xMax="486" yMax="467">
      <contour>
        <pt x="273" y="280" on="1"/>
        <pt x="273" y="227" on="1"/>
        <pt x="124" y="42" on="1"/>
        <pt x="58" y="86" on="1"/>
        <pt x="154" y="253" on="1"/>
        <pt x="64" y="429" on="1"/>
        <pt x="129" y="467" on="1"/>
      </contour>
      <contour>
        <pt x="486" y="280" on="1"/>
        <pt x="486" y="227" on="1"/>
        <pt x="337" y="42" on="1"/>
        <pt x="271" y="86" on="1"/>
        <pt x="367" y="253" on="1"/>
        <pt x="277" y="429" on="1"/>
        <pt x="342" y="467" on="1"/>
      </contour>
    </TTGlyph>
    <TTGlyph name="guilsinglleft" xMin="58" yMin="42" xMax="273" yMax="467">
      <contour>
        <pt x="58" y="227" on="1"/>
        <pt x="58" y="280" on="1"/>
        <pt x="203" y="467" on="1"/>
        <pt x="268" y="429" on="1"/>
        <pt x="170" y="253" on="1"/>
        <pt x="273" y="86" on="1"/>
        <pt x="207" y="42" on="1"/>
      </contour>
    </TTGlyph>
    <TTGlyph name="guilsinglright" xMin="58" yMin="42" xMax="273" yMax="467">
      <contour>
        <pt x="129" y="467" on="1"/>
        <pt x="273" y="280" on="1"/>
        <pt x="273" y="227" on="1"/>
        <pt x="124" y="42" on="1"/>
        <pt x="58" y="86" on="1"/>
        <pt x="162" y="253" on="1"/>
        <pt x="64" y="429" on="1"/>
      </contour>
    </TTGlyph>
    <TTGlyph name="h" xMin="12" yMin="0" xMax="589" yMax="736">
      <contour>
        <pt x="26" y="0" on="1"/>
        <pt x="22" y="34" on="1"/>
        <pt x="37" y="41" on="0"/>
        <pt x="78" y="57" on="0"/>
        <pt x="97" y="63" on="1"/>
        <pt x="97" y="653" on="1"/>
        <pt x="22" y="655" on="1"/>
        <pt x="12" y="703" on="1"/>
        <pt x="46" y="717" on="0"/>
        <pt x="130" y="735" on="0"/>
        <pt x="169" y="736" on="1"/>
        <pt x="214" y="696" on="1"/>
        <pt x="214" y="392" on="1"/>
        <pt x="269" y="432" on="0"/>
        <pt x="367" y="483" on="0"/>
        <pt x="397" y="488" on="1"/>
        <pt x="425" y="484" on="0"/>
        <pt x="488" y="447" on="0"/>
        <pt x="504" y="419" on="1"/>
        <pt x="511" y="406" on="0"/>
        <pt x="517" y="354" on="0"/>
        <pt x="517" y="299" on="1"/>
        <pt x="517" y="72" on="1"/>
        <pt x="537" y="68" on="0"/>
        <pt x="575" y="55" on="0"/>
        <pt x="589" y="48" on="1"/>
        <pt x="585" y="0" on="1"/>
        <pt x="348" y="0" on="1"/>
        <pt x="344" y="34" on="1"/>
        <pt x="355" y="40" on="0"/>
        <pt x="385" y="52" on="0"/>
        <pt x="400" y="57" on="1"/>
        <pt x="400" y="292" on="1"/>
        <pt x="400" y="348" on="0"/>
        <pt x="363" y="396" on="0"/>
        <pt x="335" y="395" on="1"/>
        <pt x="310" y="395" on="0"/>
        <pt x="245" y="364" on="0"/>
        <pt x="214" y="344" on="1"/>
        <pt x="214" y="71" on="1"/>
        <pt x="231" y="67" on="0"/>
        <pt x="263" y="55" on="0"/>
        <pt x="276" y="48" on="1"/>
        <pt x="272" y="0" on="1"/>
      </contour>
    </TTGlyph>
    <TTGlyph name="hungarumlaut" xMin="30" yMin="533" xMax="446" yMax="753">
      <component glyphName="uni030B" x="186" y="0" flags="0x4"/>
    </TTGlyph>
    <TTGlyph name="hyphen" xMin="31" yMin="240" xMax="353" yMax="331">
      <contour>
        <pt x="340" y="240" on="1"/>
        <pt x="70" y="240" on="1"/>
        <pt x="31" y="303" on="1"/>
        <pt x="44" y="331" on="1"/>
        <pt x="315" y="331" on="1"/>
        <pt x="353" y="267" on="1"/>
      </contour>
    </TTGlyph>
    <TTGlyph name="hyphen.deva" xMin="31" yMin="240" xMax="353" yMax="331">
      <contour>
        <pt x="340" y="240" on="1"/>
        <pt x="70" y="240" on="1"/>
        <pt x="31" y="303" on="1"/>
        <pt x="44" y="331" on="1"/>
        <pt x="315" y="331" on="1"/>
        <pt x="353" y="267" on="1"/>
      </contour>
    </TTGlyph>
    <TTGlyph name="i" xMin="12" yMin="0" xMax="285" yMax="727">
      <contour>
        <pt x="231" y="653" on="1"/>
        <pt x="221" y="629" on="0"/>
        <pt x="182" y="580" on="0"/>
        <pt x="161" y="566" on="1"/>
        <pt x="137" y="576" on="0"/>
        <pt x="86" y="615" on="0"/>
        <pt x="70" y="636" on="1"/>
        <pt x="83" y="663" on="0"/>
        <pt x="123" y="713" on="0"/>
        <pt x="144" y="727" on="1"/>
        <pt x="169" y="716" on="0"/>
        <pt x="217" y="673" on="0"/>
      </contour>
      <contour>
        <pt x="25" y="0" on="1"/>
        <pt x="21" y="34" on="1"/>
        <pt x="36" y="41" on="0"/>
        <pt x="78" y="57" on="0"/>
        <pt x="97" y="63" on="1"/>
        <pt x="97" y="407" on="1"/>
        <pt x="22" y="408" on="1"/>
        <pt x="12" y="456" on="1"/>
        <pt x="46" y="470" on="0"/>
        <pt x="130" y="488" on="0"/>
        <pt x="169" y="489" on="1"/>
        <pt x="214" y="449" on="1"/>
        <pt x="214" y="72" on="1"/>
        <pt x="234" y="68" on="0"/>
        <pt x="272" y="56" on="0"/>
        <pt x="285" y="48" on="1"/>
        <pt x="281" y="0" on="1"/>
      </contour>
    </TTGlyph>
    <TTGlyph name="iacute" xMin="12" yMin="0" xMax="281" yMax="751">
      <component glyphName="dotlessi" x="0" y="0" flags="0x204"/>
      <component glyphName="acutecomb" x="139" y="-2" flags="0x4"/>
    </TTGlyph>
    <TTGlyph name="icircumflex" xMin="-31" yMin="0" xMax="317" yMax="724">
      <component glyphName="dotlessi" x="0" y="0" flags="0x204"/>
      <component glyphName="uni0302" x="139" y="-2" flags="0x4"/>
    </TTGlyph>
    <TTGlyph name="idieresis" xMin="-38" yMin="0" xMax="317" yMax="696">
      <component glyphName="dotlessi" x="0" y="0" flags="0x204"/>
      <component glyphName="uni0308" x="139" y="-2" flags="0x4"/>
    </TTGlyph>
    <TTGlyph name="igrave" xMin="-1" yMin="0" xMax="276" yMax="751">
      <component glyphName="dotlessi" x="0" y="0" flags="0x204"/>
      <component glyphName="gravecomb" x="139" y="-2" flags="0x4"/>
    </TTGlyph>
    <TTGlyph name="imacron" xMin="14" yMin="0" xMax="310" yMax="657">
      <contour>
        <pt x="14" y="632" on="1"/>
        <pt x="43" y="646" on="0"/>
        <pt x="104" y="657" on="0"/>
        <pt x="127" y="657" on="1"/>
        <pt x="305" y="657" on="1"/>
        <pt x="310" y="616" on="1"/>
        <pt x="263" y="578" on="1"/>
        <pt x="20" y="578" on="1"/>
      </contour>
      <contour>
        <pt x="50" y="0" on="1"/>
        <pt x="46" y="34" on="1"/>
        <pt x="60" y="41" on="0"/>
        <pt x="99" y="56" on="0"/>
        <pt x="118" y="62" on="1"/>
        <pt x="118" y="405" on="1"/>
        <pt x="43" y="406" on="1"/>
        <pt x="33" y="454" on="1"/>
        <pt x="67" y="468" on="0"/>
        <pt x="151" y="486" on="0"/>
        <pt x="190" y="487" on="1"/>
        <pt x="235" y="447" on="1"/>
        <pt x="235" y="71" on="1"/>
        <pt x="252" y="67" on="0"/>
        <pt x="284" y="55" on="0"/>
        <pt x="297" y="48" on="1"/>
        <pt x="293" y="0" on="1"/>
      </contour>
    </TTGlyph>
    <TTGlyph name="infinity" xMin="31" yMin="159" xMax="726" yMax="516">
      <contour>
        <pt x="552" y="159" on="1"/>
        <pt x="488" y="159" on="0"/>
        <pt x="403" y="231" on="0"/>
        <pt x="370" y="274" on="1"/>
        <pt x="336" y="219" on="0"/>
        <pt x="249" y="162" on="0"/>
        <pt x="202" y="162" on="1"/>
        <pt x="173" y="162" on="0"/>
        <pt x="112" y="184" on="0"/>
        <pt x="63" y="228" on="0"/>
        <pt x="31" y="293" on="0"/>
        <pt x="31" y="335" on="1"/>
        <pt x="31" y="416" on="0"/>
        <pt x="141" y="516" on="0"/>
        <pt x="209" y="516" on="1"/>
        <pt x="269" y="516" on="0"/>
        <pt x="356" y="447" on="0"/>
        <pt x="391" y="404" on="1"/>
        <pt x="426" y="455" on="0"/>
        <pt x="518" y="515" on="0"/>
        <pt x="564" y="515" on="1"/>
        <pt x="627" y="515" on="0"/>
        <pt x="726" y="414" on="0"/>
        <pt x="726" y="333" on="1"/>
        <pt x="726" y="249" on="0"/>
        <pt x="618" y="159" on="0"/>
      </contour>
      <contour>
        <pt x="225" y="260" on="1"/>
        <pt x="259" y="260" on="0"/>
        <pt x="314" y="293" on="0"/>
        <pt x="335" y="322" on="1"/>
        <pt x="291" y="383" on="0"/>
        <pt x="199" y="443" on="0"/>
        <pt x="151" y="419" on="1"/>
        <pt x="139" y="405" on="0"/>
        <pt x="125" y="371" on="0"/>
        <pt x="125" y="353" on="1"/>
        <pt x="125" y="313" on="0"/>
        <pt x="179" y="260" on="0"/>
      </contour>
      <contour>
        <pt x="543" y="424" on="1"/>
        <pt x="514" y="424" on="0"/>
        <pt x="453" y="387" on="0"/>
        <pt x="428" y="356" on="1"/>
        <pt x="477" y="293" on="0"/>
        <pt x="549" y="236" on="0"/>
        <pt x="600" y="252" on="1"/>
        <pt x="613" y="265" on="0"/>
        <pt x="629" y="304" on="0"/>
        <pt x="629" y="325" on="1"/>
        <pt x="629" y="360" on="0"/>
        <pt x="584" y="424" on="0"/>
      </contour>
    </TTGlyph>
    <TTGlyph name="integral" xMin="-42" yMin="-178" xMax="371" yMax="752">
      <contour>
        <pt x="286" y="39" on="1"/>
        <pt x="286" y="-8" on="0"/>
        <pt x="253" y="-88" on="0"/>
        <pt x="198" y="-144" on="0"/>
        <pt x="129" y="-176" on="0"/>
        <pt x="93" y="-177" on="1"/>
        <pt x="60" y="-178" on="0"/>
        <pt x="-8" y="-153" on="0"/>
        <pt x="-42" y="-128" on="1"/>
        <pt x="24" y="-24" on="1"/>
        <pt x="29" y="-29" on="0"/>
        <pt x="58" y="-53" on="0"/>
        <pt x="99" y="-75" on="0"/>
        <pt x="151" y="-89" on="0"/>
        <pt x="179" y="-84" on="1"/>
        <pt x="46" y="535" on="1"/>
        <pt x="46" y="583" on="0"/>
        <pt x="79" y="662" on="0"/>
        <pt x="133" y="718" on="0"/>
        <pt x="202" y="750" on="0"/>
        <pt x="238" y="751" on="1"/>
        <pt x="272" y="752" on="0"/>
        <pt x="338" y="727" on="0"/>
        <pt x="371" y="701" on="1"/>
        <pt x="306" y="598" on="1"/>
        <pt x="302" y="602" on="0"/>
        <pt x="274" y="626" on="0"/>
        <pt x="233" y="648" on="0"/>
        <pt x="182" y="662" on="0"/>
        <pt x="154" y="657" on="1"/>
      </contour>
    </TTGlyph>
    <TTGlyph name="iogonek" xMin="12" yMin="-266" xMax="296" yMax="727">
      <component glyphName="i" x="0" y="0" flags="0x204"/>
      <component glyphName="ogonek" x="14" y="-13" flags="0x4"/>
    </TTGlyph>
    <TTGlyph name="j" xMin="-4" yMin="-213" xMax="234" yMax="726">
      <contour>
        <pt x="234" y="652" on="1"/>
        <pt x="224" y="628" on="0"/>
        <pt x="185" y="580" on="0"/>
        <pt x="164" y="565" on="1"/>
        <pt x="140" y="575" on="0"/>
        <pt x="89" y="615" on="0"/>
        <pt x="73" y="635" on="1"/>
        <pt x="86" y="662" on="0"/>
        <pt x="126" y="712" on="0"/>
        <pt x="147" y="726" on="1"/>
        <pt x="172" y="715" on="0"/>
        <pt x="220" y="672" on="0"/>
      </contour>
      <contour>
        <pt x="11" y="-213" on="1"/>
        <pt x="-4" y="-169" on="1"/>
        <pt x="54" y="-150" on="0"/>
        <pt x="100" y="-84" on="0"/>
        <pt x="100" y="-26" on="1"/>
        <pt x="100" y="407" on="1"/>
        <pt x="25" y="408" on="1"/>
        <pt x="15" y="456" on="1"/>
        <pt x="49" y="470" on="0"/>
        <pt x="133" y="488" on="0"/>
        <pt x="172" y="489" on="1"/>
        <pt x="217" y="449" on="1"/>
        <pt x="217" y="-56" on="1"/>
        <pt x="217" y="-93" on="0"/>
        <pt x="128" y="-192" on="0"/>
      </contour>
    </TTGlyph>
    <TTGlyph name="k" xMin="12" yMin="-12" xMax="560" yMax="736">
      <contour>
        <pt x="432" y="-12" on="1"/>
        <pt x="411" y="-5" on="0"/>
        <pt x="383" y="25" on="0"/>
        <pt x="367" y="50" on="1"/>
        <pt x="275" y="195" on="1"/>
        <pt x="214" y="187" on="1"/>
        <pt x="214" y="69" on="1"/>
        <pt x="229" y="65" on="0"/>
        <pt x="257" y="55" on="0"/>
        <pt x="268" y="48" on="1"/>
        <pt x="264" y="0" on="1"/>
        <pt x="26" y="0" on="1"/>
        <pt x="22" y="34" on="1"/>
        <pt x="37" y="41" on="0"/>
        <pt x="78" y="57" on="0"/>
        <pt x="97" y="63" on="1"/>
        <pt x="97" y="653" on="1"/>
        <pt x="22" y="655" on="1"/>
        <pt x="12" y="703" on="1"/>
        <pt x="46" y="717" on="0"/>
        <pt x="130" y="735" on="0"/>
        <pt x="169" y="736" on="1"/>
        <pt x="214" y="696" on="1"/>
        <pt x="214" y="239" on="1"/>
        <pt x="270" y="272" on="1"/>
        <pt x="386" y="412" on="1"/>
        <pt x="310" y="408" on="1"/>
        <pt x="300" y="456" on="1"/>
        <pt x="340" y="470" on="0"/>
        <pt x="445" y="488" on="0"/>
        <pt x="482" y="489" on="1"/>
        <pt x="482" y="489" on="1"/>
        <pt x="482" y="489" on="1"/>
        <pt x="483" y="489" on="1"/>
        <pt x="483" y="488" on="1"/>
        <pt x="518" y="433" on="1"/>
        <pt x="364" y="251" on="1"/>
        <pt x="472" y="95" on="1"/>
        <pt x="485" y="76" on="0"/>
        <pt x="520" y="69" on="0"/>
        <pt x="548" y="73" on="1"/>
        <pt x="560" y="25" on="1"/>
      </contour>
    </TTGlyph>
    <TTGlyph name="kcommaaccent" xMin="12" yMin="-281" xMax="560" yMax="736">
      <component glyphName="k" x="0" y="0" flags="0x204"/>
      <component glyphName="uni0326" x="291" y="0" flags="0x4"/>
    </TTGlyph>
    <TTGlyph name="l" xMin="12" yMin="0" xMax="285" yMax="736">
      <contour>
        <pt x="25" y="0" on="1"/>
        <pt x="21" y="34" on="1"/>
        <pt x="36" y="41" on="0"/>
        <pt x="78" y="57" on="0"/>
        <pt x="97" y="63" on="1"/>
        <pt x="97" y="653" on="1"/>
        <pt x="22" y="655" on="1"/>
        <pt x="12" y="703" on="1"/>
        <pt x="46" y="717" on="0"/>
        <pt x="130" y="735" on="0"/>
        <pt x="169" y="736" on="1"/>
        <pt x="214" y="696" on="1"/>
        <pt x="214" y="72" on="1"/>
        <pt x="234" y="68" on="0"/>
        <pt x="272" y="56" on="0"/>
        <pt x="285" y="48" on="1"/>
        <pt x="281" y="0" on="1"/>
      </contour>
    </TTGlyph>
    <TTGlyph name="lacute" xMin="12" yMin="0" xMax="315" yMax="971">
      <component glyphName="l" x="0" y="0" flags="0x204"/>
      <component glyphName="acutecomb.case" x="149" y="85" flags="0x4"/>
    </TTGlyph>
    <TTGlyph name="lcaron" xMin="12" yMin="0" xMax="445" yMax="795">
      <component glyphName="l" x="0" y="0" flags="0x204"/>
      <component glyphName="uni030C.calt" x="296" y="35" flags="0x4"/>
    </TTGlyph>
    <TTGlyph name="lcommaaccent" xMin="12" yMin="-281" xMax="285" yMax="736">
      <component glyphName="l" x="0" y="0" flags="0x204"/>
      <component glyphName="uni0326" x="161" y="0" flags="0x4"/>
    </TTGlyph>
    <TTGlyph name="less" xMin="74" yMin="-6" xMax="499" yMax="500">
      <contour>
        <pt x="74" y="272" on="1"/>
        <pt x="460" y="500" on="1"/>
        <pt x="499" y="435" on="1"/>
        <pt x="180" y="242" on="1"/>
        <pt x="181" y="236" on="1"/>
        <pt x="498" y="63" on="1"/>
        <pt x="460" y="-6" on="1"/>
        <pt x="81" y="202" on="1"/>
      </contour>
    </TTGlyph>
    <TTGlyph name="lessequal" xMin="58" yMin="0" xMax="542" yMax="599">
      <contour>
        <pt x="86" y="391" on="1"/>
        <pt x="474" y="599" on="1"/>
        <pt x="512" y="537" on="1"/>
        <pt x="188" y="361" on="1"/>
        <pt x="189" y="355" on="1"/>
        <pt x="510" y="198" on="1"/>
        <pt x="473" y="133" on="1"/>
        <pt x="94" y="321" on="1"/>
      </contour>
      <contour>
        <pt x="58" y="73" on="1"/>
        <pt x="542" y="73" on="1"/>
        <pt x="542" y="0" on="1"/>
        <pt x="58" y="0" on="1"/>
      </contour>
    </TTGlyph>
    <TTGlyph name="logicalnot" xMin="58" yMin="0" xMax="534" yMax="269">
      <contour>
        <pt x="534" y="0" on="1"/>
        <pt x="447" y="0" on="1"/>
        <pt x="447" y="192" on="1"/>
        <pt x="58" y="192" on="1"/>
        <pt x="58" y="269" on="1"/>
        <pt x="534" y="269" on="1"/>
      </contour>
    </TTGlyph>
    <TTGlyph name="lslash" xMin="12" yMin="0" xMax="333" yMax="736">
      <contour>
        <pt x="46" y="0" on="1"/>
        <pt x="42" y="34" on="1"/>
        <pt x="57" y="41" on="0"/>
        <pt x="99" y="57" on="0"/>
        <pt x="118" y="63" on="1"/>
        <pt x="118" y="303" on="1"/>
        <pt x="44" y="263" on="1"/>
        <pt x="12" y="320" on="1"/>
        <pt x="118" y="378" on="1"/>
        <pt x="118" y="653" on="1"/>
        <pt x="43" y="655" on="1"/>
        <pt x="33" y="703" on="1"/>
        <pt x="67" y="717" on="0"/>
        <pt x="151" y="735" on="0"/>
        <pt x="190" y="736" on="1"/>
        <pt x="235" y="696" on="1"/>
        <pt x="235" y="442" on="1"/>
        <pt x="310" y="483" on="1"/>
        <pt x="333" y="466" on="1"/>
        <pt x="333" y="419" on="1"/>
        <pt x="235" y="366" on="1"/>
        <pt x="235" y="72" on="1"/>
        <pt x="255" y="68" on="0"/>
        <pt x="293" y="56" on="0"/>
        <pt x="306" y="48" on="1"/>
        <pt x="302" y="0" on="1"/>
      </contour>
    </TTGlyph>
    <TTGlyph name="m" xMin="12" yMin="0" xMax="881" yMax="489">
      <contour>
        <pt x="29" y="0" on="1"/>
        <pt x="25" y="34" on="1"/>
        <pt x="39" y="41" on="0"/>
        <pt x="78" y="56" on="0"/>
        <pt x="97" y="62" on="1"/>
        <pt x="97" y="407" on="1"/>
        <pt x="22" y="408" on="1"/>
        <pt x="12" y="456" on="1"/>
        <pt x="46" y="470" on="0"/>
        <pt x="130" y="488" on="0"/>
        <pt x="169" y="489" on="1"/>
        <pt x="214" y="447" on="1"/>
        <pt x="214" y="396" on="1"/>
        <pt x="268" y="434" on="0"/>
        <pt x="363" y="484" on="0"/>
        <pt x="391" y="488" on="1"/>
        <pt x="419" y="484" on="0"/>
        <pt x="482" y="447" on="0"/>
        <pt x="498" y="419" on="1"/>
        <pt x="501" y="414" on="0"/>
        <pt x="506" y="401" on="0"/>
        <pt x="507" y="392" on="1"/>
        <pt x="562" y="432" on="0"/>
        <pt x="660" y="483" on="0"/>
        <pt x="690" y="488" on="1"/>
        <pt x="718" y="484" on="0"/>
        <pt x="781" y="447" on="0"/>
        <pt x="797" y="419" on="1"/>
        <pt x="804" y="406" on="0"/>
        <pt x="810" y="354" on="0"/>
        <pt x="810" y="299" on="1"/>
        <pt x="810" y="72" on="1"/>
        <pt x="830" y="68" on="0"/>
        <pt x="868" y="55" on="0"/>
        <pt x="881" y="48" on="1"/>
        <pt x="876" y="0" on="1"/>
        <pt x="641" y="0" on="1"/>
        <pt x="637" y="34" on="1"/>
        <pt x="648" y="40" on="0"/>
        <pt x="678" y="52" on="0"/>
        <pt x="693" y="57" on="1"/>
        <pt x="693" y="292" on="1"/>
        <pt x="693" y="348" on="0"/>
        <pt x="656" y="396" on="0"/>
        <pt x="628" y="395" on="1"/>
        <pt x="604" y="395" on="0"/>
        <pt x="541" y="366" on="0"/>
        <pt x="510" y="346" on="1"/>
        <pt x="511" y="336" on="0"/>
        <pt x="511" y="312" on="0"/>
        <pt x="511" y="299" on="1"/>
        <pt x="511" y="71" on="1"/>
        <pt x="530" y="67" on="0"/>
        <pt x="565" y="55" on="0"/>
        <pt x="578" y="48" on="1"/>
        <pt x="573" y="0" on="1"/>
        <pt x="342" y="0" on="1"/>
        <pt x="338" y="34" on="1"/>
        <pt x="349" y="40" on="0"/>
        <pt x="379" y="52" on="0"/>
        <pt x="394" y="57" on="1"/>
        <pt x="394" y="292" on="1"/>
        <pt x="394" y="348" on="0"/>
        <pt x="357" y="396" on="0"/>
        <pt x="329" y="395" on="1"/>
        <pt x="306" y="395" on="0"/>
        <pt x="244" y="367" on="0"/>
        <pt x="214" y="348" on="1"/>
        <pt x="214" y="71" on="1"/>
        <pt x="231" y="67" on="0"/>
        <pt x="263" y="55" on="0"/>
        <pt x="276" y="48" on="1"/>
        <pt x="272" y="0" on="1"/>
      </contour>
    </TTGlyph>
    <TTGlyph name="macron" xMin="52" yMin="564" xMax="408" yMax="643">
      <component glyphName="uni0304" x="214" y="0" flags="0x4"/>
    </TTGlyph>
    <TTGlyph name="minus" xMin="58" yMin="202" xMax="542" yMax="278">
      <contour>
        <pt x="58" y="278" on="1"/>
        <pt x="542" y="278" on="1"/>
        <pt x="542" y="202" on="1"/>
        <pt x="58" y="202" on="1"/>
      </contour>
    </TTGlyph>
    <TTGlyph name="multiply" xMin="70" yMin="21" xMax="496" yMax="457">
      <contour>
        <pt x="284" y="294" on="1"/>
        <pt x="437" y="457" on="1"/>
        <pt x="496" y="403" on="1"/>
        <pt x="337" y="239" on="1"/>
        <pt x="494" y="77" on="1"/>
        <pt x="436" y="21" on="1"/>
        <pt x="283" y="183" on="1"/>
        <pt x="129" y="21" on="1"/>
        <pt x="72" y="77" on="1"/>
        <pt x="228" y="238" on="1"/>
        <pt x="70" y="402" on="1"/>
        <pt x="130" y="456" on="1"/>
      </contour>
    </TTGlyph>
    <TTGlyph name="n" xMin="12" yMin="0" xMax="591" yMax="489">
      <contour>
        <pt x="29" y="0" on="1"/>
        <pt x="25" y="34" on="1"/>
        <pt x="39" y="41" on="0"/>
        <pt x="78" y="56" on="0"/>
        <pt x="97" y="62" on="1"/>
        <pt x="97" y="407" on="1"/>
        <pt x="22" y="408" on="1"/>
        <pt x="12" y="456" on="1"/>
        <pt x="46" y="470" on="0"/>
        <pt x="130" y="488" on="0"/>
        <pt x="169" y="489" on="1"/>
        <pt x="214" y="447" on="1"/>
        <pt x="214" y="390" on="1"/>
        <pt x="270" y="430" on="0"/>
        <pt x="370" y="483" on="0"/>
        <pt x="400" y="488" on="1"/>
        <pt x="428" y="484" on="0"/>
        <pt x="491" y="447" on="0"/>
        <pt x="507" y="419" on="1"/>
        <pt x="514" y="406" on="0"/>
        <pt x="520" y="354" on="0"/>
        <pt x="520" y="299" on="1"/>
        <pt x="520" y="72" on="1"/>
        <pt x="540" y="68" on="0"/>
        <pt x="578" y="55" on="0"/>
        <pt x="591" y="48" on="1"/>
        <pt x="586" y="0" on="1"/>
        <pt x="351" y="0" on="1"/>
        <pt x="347" y="34" on="1"/>
        <pt x="358" y="40" on="0"/>
        <pt x="388" y="52" on="0"/>
        <pt x="403" y="57" on="1"/>
        <pt x="403" y="292" on="1"/>
        <pt x="403" y="348" on="0"/>
        <pt x="366" y="396" on="0"/>
        <pt x="338" y="395" on="1"/>
        <pt x="313" y="395" on="0"/>
        <pt x="245" y="363" on="0"/>
        <pt x="214" y="342" on="1"/>
        <pt x="214" y="71" on="1"/>
        <pt x="231" y="67" on="0"/>
        <pt x="263" y="55" on="0"/>
        <pt x="276" y="48" on="1"/>
        <pt x="272" y="0" on="1"/>
      </contour>
    </TTGlyph>
    <TTGlyph name="nacute" xMin="12" yMin="0" xMax="591" yMax="751">
      <component glyphName="n" x="0" y="0" flags="0x204"/>
      <component glyphName="acutecomb" x="301" y="-2" flags="0x4"/>
    </TTGlyph>
    <TTGlyph name="ncaron" xMin="12" yMin="0" xMax="591" yMax="752">
      <component glyphName="n" x="0" y="0" flags="0x204"/>
      <component glyphName="uni030C" x="301" y="-2" flags="0x4"/>
    </TTGlyph>
    <TTGlyph name="ncommaaccent" xMin="12" yMin="-281" xMax="591" yMax="489">
      <component glyphName="n" x="0" y="0" flags="0x204"/>
      <component glyphName="uni0326" x="317" y="0" flags="0x4"/>
    </TTGlyph>
    <TTGlyph name="nine" xMin="29" yMin="-10" xMax="496" yMax="670">
      <contour>
        <pt x="151" y="461" on="1"/>
        <pt x="151" y="389" on="0"/>
        <pt x="250" y="302" on="0"/>
        <pt x="326" y="323" on="1"/>
        <pt x="337" y="257" on="1"/>
        <pt x="270" y="233" on="0"/>
        <pt x="157" y="248" on="0"/>
        <pt x="75" y="306" on="0"/>
        <pt x="29" y="400" on="0"/>
        <pt x="29" y="455" on="1"/>
        <pt x="29" y="552" on="0"/>
        <pt x="161" y="670" on="0"/>
        <pt x="254" y="670" on="1"/>
        <pt x="366" y="670" on="0"/>
        <pt x="496" y="503" on="0"/>
        <pt x="496" y="377" on="1"/>
        <pt x="496" y="288" on="0"/>
        <pt x="432" y="143" on="0"/>
        <pt x="325" y="43" on="0"/>
        <pt x="184" y="-10" on="0"/>
        <pt x="107" y="-9" on="1"/>
        <pt x="87" y="120" on="1"/>
        <pt x="257" y="99" on="1"/>
        <pt x="324" y="141" on="0"/>
        <pt x="378" y="293" on="0"/>
        <pt x="378" y="372" on="1"/>
        <pt x="378" y="420" on="0"/>
        <pt x="360" y="510" on="0"/>
        <pt x="320" y="574" on="0"/>
        <pt x="258" y="604" on="0"/>
        <pt x="214" y="593" on="1"/>
        <pt x="183" y="575" on="0"/>
        <pt x="151" y="501" on="0"/>
      </contour>
    </TTGlyph>
    <TTGlyph name="notequal" xMin="58" yMin="-23" xMax="530" yMax="503">
      <contour>
        <pt x="530" y="122" on="1"/>
        <pt x="259" y="122" on="1"/>
        <pt x="169" y="-23" on="1"/>
        <pt x="119" y="7" on="1"/>
        <pt x="190" y="122" on="1"/>
        <pt x="58" y="122" on="1"/>
        <pt x="58" y="195" on="1"/>
        <pt x="236" y="195" on="1"/>
        <pt x="303" y="304" on="1"/>
        <pt x="58" y="304" on="1"/>
        <pt x="58" y="377" on="1"/>
        <pt x="349" y="377" on="1"/>
        <pt x="427" y="503" on="1"/>
        <pt x="477" y="475" on="1"/>
        <pt x="416" y="377" on="1"/>
        <pt x="530" y="377" on="1"/>
        <pt x="530" y="304" on="1"/>
        <pt x="371" y="304" on="1"/>
        <pt x="304" y="195" on="1"/>
        <pt x="530" y="195" on="1"/>
      </contour>
    </TTGlyph>
    <TTGlyph name="ntilde" xMin="12" yMin="0" xMax="591" yMax="715">
      <component glyphName="n" x="0" y="0" flags="0x204"/>
      <component glyphName="tildecomb" x="301" y="-2" flags="0x4"/>
    </TTGlyph>
    <TTGlyph name="numbersign" xMin="58" yMin="-10" xMax="564" yMax="530">
      <contour>
        <pt x="367" y="196" on="1"/>
        <pt x="390" y="345" on="1"/>
        <pt x="258" y="345" on="1"/>
        <pt x="235" y="196" on="1"/>
      </contour>
      <contour>
        <pt x="535" y="133" on="1"/>
        <pt x="431" y="133" on="1"/>
        <pt x="409" y="-10" on="1"/>
        <pt x="337" y="0" on="1"/>
        <pt x="357" y="133" on="1"/>
        <pt x="226" y="133" on="1"/>
        <pt x="204" y="-10" on="1"/>
        <pt x="132" y="0" on="1"/>
        <pt x="152" y="133" on="1"/>
        <pt x="58" y="133" on="1"/>
        <pt x="58" y="196" on="1"/>
        <pt x="162" y="196" on="1"/>
        <pt x="185" y="345" on="1"/>
        <pt x="87" y="345" on="1"/>
        <pt x="87" y="407" on="1"/>
        <pt x="194" y="407" on="1"/>
        <pt x="213" y="530" on="1"/>
        <pt x="285" y="521" on="1"/>
        <pt x="268" y="407" on="1"/>
        <pt x="399" y="407" on="1"/>
        <pt x="418" y="530" on="1"/>
        <pt x="490" y="521" on="1"/>
        <pt x="473" y="407" on="1"/>
        <pt x="564" y="407" on="1"/>
        <pt x="564" y="345" on="1"/>
        <pt x="463" y="345" on="1"/>
        <pt x="440" y="196" on="1"/>
        <pt x="535" y="196" on="1"/>
      </contour>
    </TTGlyph>
    <TTGlyph name="o" xMin="17" yMin="-20" xMax="481" yMax="492">
      <contour>
        <pt x="254" y="-20" on="1"/>
        <pt x="158" y="-20" on="0"/>
        <pt x="17" y="119" on="0"/>
        <pt x="17" y="238" on="1"/>
        <pt x="17" y="298" on="0"/>
        <pt x="55" y="393" on="0"/>
        <pt x="120" y="458" on="0"/>
        <pt x="205" y="492" on="0"/>
        <pt x="251" y="492" on="1"/>
        <pt x="345" y="492" on="0"/>
        <pt x="481" y="356" on="0"/>
        <pt x="481" y="233" on="1"/>
        <pt x="481" y="109" on="0"/>
        <pt x="345" y="-20" on="0"/>
      </contour>
      <contour>
        <pt x="263" y="53" on="1"/>
        <pt x="273" y="53" on="0"/>
        <pt x="293" y="56" on="0"/>
        <pt x="305" y="60" on="1"/>
        <pt x="340" y="84" on="0"/>
        <pt x="360" y="179" on="0"/>
        <pt x="360" y="222" on="1"/>
        <pt x="360" y="300" on="0"/>
        <pt x="307" y="419" on="0"/>
        <pt x="244" y="419" on="1"/>
        <pt x="225" y="419" on="0"/>
        <pt x="191" y="408" on="0"/>
        <pt x="180" y="400" on="1"/>
        <pt x="158" y="372" on="0"/>
        <pt x="139" y="289" on="0"/>
        <pt x="139" y="245" on="1"/>
        <pt x="139" y="170" on="0"/>
        <pt x="198" y="53" on="0"/>
      </contour>
    </TTGlyph>
    <TTGlyph name="oacute" xMin="17" yMin="-20" xMax="481" yMax="751">
      <component glyphName="o" x="0" y="0" flags="0x204"/>
      <component glyphName="acutecomb" x="248" y="-2" flags="0x4"/>
    </TTGlyph>
    <TTGlyph name="ocircumflex" xMin="17" yMin="-20" xMax="481" yMax="724">
      <component glyphName="o" x="0" y="0" flags="0x204"/>
      <component glyphName="uni0302" x="248" y="-2" flags="0x4"/>
    </TTGlyph>
    <TTGlyph name="odieresis" xMin="17" yMin="-20" xMax="481" yMax="696">
      <component glyphName="o" x="0" y="0" flags="0x204"/>
      <component glyphName="uni0308" x="248" y="-2" flags="0x4"/>
    </TTGlyph>
    <TTGlyph name="oe" xMin="17" yMin="-20" xMax="788" yMax="492">
      <contour>
        <pt x="552" y="424" on="1"/>
        <pt x="523" y="408" on="0"/>
        <pt x="486" y="347" on="0"/>
        <pt x="478" y="312" on="1"/>
        <pt x="676" y="322" on="1"/>
        <pt x="668" y="367" on="0"/>
        <pt x="599" y="425" on="0"/>
      </contour>
      <contour>
        <pt x="263" y="53" on="1"/>
        <pt x="273" y="53" on="0"/>
        <pt x="293" y="56" on="0"/>
        <pt x="305" y="60" on="1"/>
        <pt x="340" y="84" on="0"/>
        <pt x="361" y="179" on="0"/>
        <pt x="361" y="222" on="1"/>
        <pt x="361" y="300" on="0"/>
        <pt x="307" y="419" on="0"/>
        <pt x="244" y="419" on="1"/>
        <pt x="225" y="419" on="0"/>
        <pt x="191" y="408" on="0"/>
        <pt x="180" y="400" on="1"/>
        <pt x="158" y="372" on="0"/>
        <pt x="139" y="289" on="0"/>
        <pt x="139" y="245" on="1"/>
        <pt x="139" y="170" on="0"/>
        <pt x="198" y="53" on="0"/>
      </contour>
      <contour>
        <pt x="622" y="-14" on="1"/>
        <pt x="556" y="-17" on="0"/>
        <pt x="459" y="26" on="0"/>
        <pt x="426" y="61" on="1"/>
        <pt x="395" y="21" on="0"/>
        <pt x="305" y="-20" on="0"/>
        <pt x="254" y="-20" on="1"/>
        <pt x="158" y="-20" on="0"/>
        <pt x="17" y="119" on="0"/>
        <pt x="17" y="238" on="1"/>
        <pt x="17" y="298" on="0"/>
        <pt x="55" y="393" on="0"/>
        <pt x="120" y="458" on="0"/>
        <pt x="205" y="492" on="0"/>
        <pt x="251" y="492" on="1"/>
        <pt x="302" y="492" on="0"/>
        <pt x="392" y="450" on="0"/>
        <pt x="423" y="411" on="1"/>
        <pt x="455" y="448" on="0"/>
        <pt x="544" y="492" on="0"/>
        <pt x="595" y="492" on="1"/>
        <pt x="671" y="492" on="0"/>
        <pt x="788" y="393" on="0"/>
        <pt x="787" y="304" on="1"/>
        <pt x="729" y="248" on="1"/>
        <pt x="470" y="252" on="1"/>
        <pt x="470" y="250" on="0"/>
        <pt x="470" y="246" on="0"/>
        <pt x="470" y="244" on="1"/>
        <pt x="470" y="158" on="0"/>
        <pt x="564" y="73" on="0"/>
        <pt x="631" y="73" on="1"/>
        <pt x="663" y="73" on="0"/>
        <pt x="726" y="91" on="0"/>
        <pt x="760" y="107" on="1"/>
        <pt x="778" y="60" on="1"/>
      </contour>
    </TTGlyph>
    <TTGlyph name="ogonek" xMin="33" yMin="-253" xMax="282" yMax="34">
      <component glyphName="uni0328" x="242" y="0" flags="0x4"/>
    </TTGlyph>
    <TTGlyph name="ograve" xMin="17" yMin="-20" xMax="481" yMax="751">
      <component glyphName="o" x="0" y="0" flags="0x204"/>
      <component glyphName="gravecomb" x="248" y="-2" flags="0x4"/>
    </TTGlyph>
    <TTGlyph name="ohungarumlaut" xMin="17" yMin="-20" xMax="508" yMax="751">
      <component glyphName="o" x="0" y="0" flags="0x204"/>
      <component glyphName="uni030B" x="248" y="-2" flags="0x4"/>
    </TTGlyph>
    <TTGlyph name="omacron" xMin="17" yMin="-20" xMax="481" yMax="641">
      <component glyphName="o" x="0" y="0" flags="0x204"/>
      <component glyphName="uni0304" x="247" y="-2" flags="0x4"/>
    </TTGlyph>
    <TTGlyph name="one" xMin="20" yMin="0" xMax="409" yMax="670">
      <contour>
        <pt x="40" y="0" on="1"/>
        <pt x="34" y="34" on="1"/>
        <pt x="65" y="47" on="0"/>
        <pt x="135" y="70" on="0"/>
        <pt x="171" y="80" on="1"/>
        <pt x="171" y="538" on="1"/>
        <pt x="50" y="484" on="1"/>
        <pt x="20" y="536" on="1"/>
        <pt x="232" y="670" on="1"/>
        <pt x="288" y="636" on="1"/>
        <pt x="288" y="67" on="1"/>
        <pt x="409" y="50" on="1"/>
        <pt x="404" y="0" on="1"/>
      </contour>
    </TTGlyph>
    <TTGlyph name="one.dnom" xMin="4" yMin="0" xMax="218" yMax="326">
      <component glyphName="onesuperior" x="0" y="-423" flags="0x4"/>
    </TTGlyph>
    <TTGlyph name="one.numr" xMin="4" yMin="342" xMax="218" yMax="668">
      <component glyphName="onesuperior" x="0" y="-81" flags="0x4"/>
    </TTGlyph>
    <TTGlyph name="onehalf" xMin="4" yMin="0" xMax="658" yMax="673">
      <component glyphName="one.numr" x="0" y="0" flags="0x204"/>
      <component glyphName="fraction" x="245" y="0" flags="0x4"/>
      <component glyphName="two.dnom" x="388" y="0" flags="0x4"/>
    </TTGlyph>
    <TTGlyph name="onequarter" xMin="4" yMin="0" xMax="669" yMax="673">
      <component glyphName="one.numr" x="0" y="0" flags="0x204"/>
      <component glyphName="fraction" x="245" y="0" flags="0x4"/>
      <component glyphName="four.dnom" x="388" y="0" flags="0x4"/>
    </TTGlyph>
    <TTGlyph name="onesuperior" xMin="4" yMin="423" xMax="218" yMax="749">
      <contour>
        <pt x="23" y="423" on="1"/>
        <pt x="20" y="439" on="1"/>
        <pt x="32" y="446" on="0"/>
        <pt x="67" y="461" on="0"/>
        <pt x="83" y="465" on="1"/>
        <pt x="83" y="671" on="1"/>
        <pt x="20" y="646" on="1"/>
        <pt x="4" y="677" on="1"/>
        <pt x="124" y="748" on="1"/>
        <pt x="124" y="749" on="1"/>
        <pt x="124" y="749" on="1"/>
        <pt x="125" y="749" on="1"/>
        <pt x="125" y="748" on="1"/>
        <pt x="160" y="726" on="1"/>
        <pt x="159" y="726" on="1"/>
        <pt x="161" y="726" on="1"/>
        <pt x="161" y="461" on="1"/>
        <pt x="218" y="449" on="1"/>
        <pt x="217" y="423" on="1"/>
      </contour>
    </TTGlyph>
    <TTGlyph name="ordfeminine" xMin="30" yMin="200" xMax="386" yMax="627">
      <contour>
        <pt x="293" y="292" on="1"/>
        <pt x="279" y="293" on="0"/>
        <pt x="243" y="320" on="0"/>
        <pt x="234" y="340" on="1"/>
        <pt x="161" y="293" on="1"/>
        <pt x="105" y="289" on="0"/>
        <pt x="47" y="339" on="0"/>
        <pt x="47" y="373" on="1"/>
        <pt x="47" y="390" on="0"/>
        <pt x="66" y="430" on="0"/>
        <pt x="91" y="447" on="1"/>
        <pt x="228" y="451" on="1"/>
        <pt x="228" y="508" on="1"/>
        <pt x="228" y="535" on="0"/>
        <pt x="211" y="569" on="0"/>
        <pt x="196" y="576" on="1"/>
        <pt x="175" y="575" on="0"/>
        <pt x="143" y="572" on="0"/>
        <pt x="133" y="569" on="1"/>
        <pt x="125" y="496" on="1"/>
        <pt x="73" y="492" on="1"/>
        <pt x="66" y="511" on="0"/>
        <pt x="59" y="561" on="0"/>
        <pt x="60" y="580" on="1"/>
        <pt x="74" y="590" on="0"/>
        <pt x="117" y="607" on="0"/>
        <pt x="164" y="620" on="0"/>
        <pt x="208" y="627" on="0"/>
        <pt x="223" y="627" on="1"/>
        <pt x="251" y="626" on="0"/>
        <pt x="297" y="589" on="0"/>
        <pt x="308" y="570" on="1"/>
        <pt x="312" y="560" on="0"/>
        <pt x="315" y="535" on="0"/>
        <pt x="315" y="503" on="1"/>
        <pt x="315" y="372" on="1"/>
        <pt x="315" y="365" on="0"/>
        <pt x="324" y="357" on="0"/>
        <pt x="331" y="357" on="1"/>
        <pt x="339" y="357" on="0"/>
        <pt x="355" y="360" on="0"/>
        <pt x="364" y="361" on="1"/>
        <pt x="371" y="332" on="1"/>
      </contour>
      <contour>
        <pt x="141" y="347" on="1"/>
        <pt x="161" y="348" on="0"/>
        <pt x="211" y="361" on="0"/>
        <pt x="228" y="367" on="1"/>
        <pt x="228" y="412" on="1"/>
        <pt x="226" y="412" on="1"/>
        <pt x="198" y="413" on="0"/>
        <pt x="128" y="405" on="0"/>
        <pt x="128" y="374" on="1"/>
        <pt x="128" y="365" on="0"/>
        <pt x="135" y="352" on="0"/>
      </contour>
      <contour>
        <pt x="30" y="255" on="1"/>
        <pt x="386" y="255" on="1"/>
        <pt x="386" y="200" on="1"/>
        <pt x="30" y="200" on="1"/>
      </contour>
    </TTGlyph>
    <TTGlyph name="ordmasculine" xMin="19" yMin="200" xMax="373" yMax="630">
      <contour>
        <pt x="196" y="286" on="1"/>
        <pt x="129" y="286" on="0"/>
        <pt x="35" y="380" on="0"/>
        <pt x="35" y="457" on="1"/>
        <pt x="35" y="541" on="0"/>
        <pt x="139" y="630" on="0"/>
        <pt x="198" y="630" on="1"/>
        <pt x="258" y="630" on="0"/>
        <pt x="355" y="537" on="0"/>
        <pt x="355" y="454" on="1"/>
        <pt x="355" y="370" on="0"/>
        <pt x="256" y="286" on="0"/>
      </contour>
      <contour>
        <pt x="207" y="340" on="1"/>
        <pt x="213" y="340" on="0"/>
        <pt x="227" y="342" on="0"/>
        <pt x="234" y="343" on="1"/>
        <pt x="241" y="347" on="0"/>
        <pt x="265" y="394" on="0"/>
        <pt x="265" y="440" on="1"/>
        <pt x="265" y="485" on="0"/>
        <pt x="231" y="574" on="0"/>
        <pt x="183" y="574" on="1"/>
        <pt x="175" y="574" on="0"/>
        <pt x="162" y="571" on="0"/>
        <pt x="156" y="568" on="1"/>
        <pt x="143" y="559" on="0"/>
        <pt x="124" y="497" on="0"/>
        <pt x="124" y="460" on="1"/>
        <pt x="124" y="411" on="0"/>
        <pt x="162" y="340" on="0"/>
      </contour>
      <contour>
        <pt x="19" y="255" on="1"/>
        <pt x="373" y="255" on="1"/>
        <pt x="373" y="200" on="1"/>
        <pt x="19" y="200" on="1"/>
      </contour>
    </TTGlyph>
    <TTGlyph name="oslash" xMin="17" yMin="-77" xMax="481" yMax="527">
      <contour>
        <pt x="139" y="245" on="1"/>
        <pt x="139" y="217" on="0"/>
        <pt x="147" y="164" on="0"/>
        <pt x="155" y="141" on="1"/>
        <pt x="313" y="390" on="1"/>
        <pt x="300" y="403" on="0"/>
        <pt x="266" y="419" on="0"/>
        <pt x="244" y="419" on="1"/>
        <pt x="225" y="419" on="0"/>
        <pt x="191" y="408" on="0"/>
        <pt x="180" y="400" on="1"/>
        <pt x="158" y="372" on="0"/>
        <pt x="139" y="289" on="0"/>
      </contour>
      <contour>
        <pt x="263" y="53" on="1"/>
        <pt x="273" y="53" on="0"/>
        <pt x="293" y="56" on="0"/>
        <pt x="305" y="60" on="1"/>
        <pt x="340" y="84" on="0"/>
        <pt x="360" y="179" on="0"/>
        <pt x="360" y="222" on="1"/>
        <pt x="360" y="245" on="0"/>
        <pt x="355" y="290" on="0"/>
        <pt x="351" y="310" on="1"/>
        <pt x="201" y="73" on="1"/>
        <pt x="214" y="63" on="0"/>
        <pt x="244" y="53" on="0"/>
      </contour>
      <contour>
        <pt x="254" y="-20" on="1"/>
        <pt x="228" y="-20" on="0"/>
        <pt x="178" y="-9" on="0"/>
        <pt x="155" y="1" on="1"/>
        <pt x="106" y="-77" on="1"/>
        <pt x="43" y="-35" on="1"/>
        <pt x="93" y="44" on="1"/>
        <pt x="59" y="77" on="0"/>
        <pt x="17" y="176" on="0"/>
        <pt x="17" y="238" on="1"/>
        <pt x="17" y="298" on="0"/>
        <pt x="55" y="393" on="0"/>
        <pt x="120" y="458" on="0"/>
        <pt x="205" y="492" on="0"/>
        <pt x="251" y="492" on="1"/>
        <pt x="281" y="492" on="0"/>
        <pt x="336" y="478" on="0"/>
        <pt x="361" y="465" on="1"/>
        <pt x="400" y="527" on="1"/>
        <pt x="464" y="488" on="1"/>
        <pt x="419" y="418" on="1"/>
        <pt x="448" y="385" on="0"/>
        <pt x="481" y="291" on="0"/>
        <pt x="481" y="233" on="1"/>
        <pt x="481" y="109" on="0"/>
        <pt x="345" y="-20" on="0"/>
      </contour>
    </TTGlyph>
    <TTGlyph name="otilde" xMin="17" yMin="-20" xMax="481" yMax="715">
      <component glyphName="o" x="0" y="0" flags="0x204"/>
      <component glyphName="tildecomb" x="248" y="-2" flags="0x4"/>
    </TTGlyph>
    <TTGlyph name="p" xMin="12" yMin="-203" xMax="545" yMax="494">
      <contour>
        <pt x="307" y="393" on="1"/>
        <pt x="285" y="393" on="0"/>
        <pt x="237" y="373" on="0"/>
        <pt x="212" y="359" on="1"/>
        <pt x="212" y="80" on="1"/>
        <pt x="237" y="68" on="0"/>
        <pt x="305" y="55" on="0"/>
        <pt x="345" y="59" on="1"/>
        <pt x="381" y="84" on="0"/>
        <pt x="421" y="180" on="0"/>
        <pt x="421" y="231" on="1"/>
        <pt x="421" y="294" on="0"/>
        <pt x="359" y="393" on="0"/>
      </contour>
      <contour>
        <pt x="33" y="-203" on="1"/>
        <pt x="29" y="-170" on="1"/>
        <pt x="42" y="-163" on="0"/>
        <pt x="78" y="-151" on="0"/>
        <pt x="95" y="-145" on="1"/>
        <pt x="95" y="407" on="1"/>
        <pt x="22" y="408" on="1"/>
        <pt x="12" y="456" on="1"/>
        <pt x="46" y="470" on="0"/>
        <pt x="130" y="488" on="0"/>
        <pt x="168" y="489" on="1"/>
        <pt x="168" y="489" on="1"/>
        <pt x="168" y="489" on="1"/>
        <pt x="169" y="489" on="1"/>
        <pt x="169" y="488" on="1"/>
        <pt x="212" y="449" on="1"/>
        <pt x="212" y="409" on="1"/>
        <pt x="323" y="484" on="1"/>
        <pt x="373" y="494" on="0"/>
        <pt x="456" y="463" on="0"/>
        <pt x="513" y="398" on="0"/>
        <pt x="545" y="305" on="0"/>
        <pt x="545" y="254" on="1"/>
        <pt x="545" y="143" on="0"/>
        <pt x="404" y="-15" on="0"/>
        <pt x="288" y="-15" on="1"/>
        <pt x="270" y="-15" on="0"/>
        <pt x="231" y="-10" on="0"/>
        <pt x="212" y="-6" on="1"/>
        <pt x="212" y="-128" on="1"/>
        <pt x="235" y="-134" on="0"/>
        <pt x="282" y="-147" on="0"/>
        <pt x="298" y="-155" on="1"/>
        <pt x="294" y="-203" on="1"/>
      </contour>
    </TTGlyph>
    <TTGlyph name="paragraph" xMin="0" yMin="-165" xMax="604" yMax="691">
      <contour>
        <pt x="165" y="-165" on="1"/>
        <pt x="159" y="-128" on="1"/>
        <pt x="186" y="-116" on="0"/>
        <pt x="256" y="-96" on="0"/>
        <pt x="275" y="-92" on="1"/>
        <pt x="275" y="593" on="1"/>
        <pt x="220" y="580" on="0"/>
        <pt x="153" y="507" on="0"/>
        <pt x="153" y="444" on="1"/>
        <pt x="153" y="408" on="0"/>
        <pt x="178" y="349" on="0"/>
        <pt x="204" y="314" on="1"/>
        <pt x="166" y="277" on="1"/>
        <pt x="86" y="302" on="0"/>
        <pt x="0" y="416" on="0"/>
        <pt x="0" y="480" on="1"/>
        <pt x="0" y="521" on="0"/>
        <pt x="36" y="599" on="0"/>
        <pt x="110" y="658" on="0"/>
        <pt x="225" y="691" on="0"/>
        <pt x="303" y="686" on="1"/>
        <pt x="596" y="646" on="1"/>
        <pt x="589" y="585" on="1"/>
        <pt x="512" y="591" on="1"/>
        <pt x="512" y="-106" on="1"/>
        <pt x="604" y="-117" on="1"/>
        <pt x="603" y="-165" on="1"/>
        <pt x="432" y="-165" on="1"/>
        <pt x="432" y="596" on="1"/>
        <pt x="380" y="600" on="1"/>
        <pt x="374" y="601" on="0"/>
        <pt x="361" y="601" on="0"/>
        <pt x="355" y="601" on="1"/>
        <pt x="355" y="-165" on="1"/>
      </contour>
    </TTGlyph>
    <TTGlyph name="parenleft" xMin="26" yMin="-155" xMax="276" yMax="732">
      <contour>
        <pt x="269" y="-118" on="1"/>
        <pt x="199" y="-155" on="1"/>
        <pt x="119" y="-51" on="0"/>
        <pt x="26" y="177" on="0"/>
        <pt x="26" y="297" on="1"/>
        <pt x="26" y="401" on="0"/>
        <pt x="112" y="622" on="0"/>
        <pt x="208" y="732" on="1"/>
        <pt x="276" y="696" on="1"/>
        <pt x="210" y="595" on="0"/>
        <pt x="147" y="395" on="0"/>
        <pt x="147" y="302" on="1"/>
        <pt x="147" y="195" on="0"/>
        <pt x="213" y="-18" on="0"/>
      </contour>
    </TTGlyph>
    <TTGlyph name="parenright" xMin="27" yMin="-155" xMax="277" yMax="732">
      <contour>
        <pt x="277" y="297" on="1"/>
        <pt x="277" y="177" on="0"/>
        <pt x="184" y="-51" on="0"/>
        <pt x="104" y="-155" on="1"/>
        <pt x="34" y="-118" on="1"/>
        <pt x="90" y="-18" on="0"/>
        <pt x="156" y="195" on="0"/>
        <pt x="156" y="302" on="1"/>
        <pt x="156" y="395" on="0"/>
        <pt x="93" y="595" on="0"/>
        <pt x="27" y="696" on="1"/>
        <pt x="95" y="732" on="1"/>
        <pt x="191" y="622" on="0"/>
        <pt x="277" y="401" on="0"/>
      </contour>
    </TTGlyph>
    <TTGlyph name="partialdiff" xMin="80" yMin="-34" xMax="548" yMax="761">
      <contour>
        <pt x="300" y="-34" on="1"/>
        <pt x="197" y="-34" on="0"/>
        <pt x="80" y="104" on="0"/>
        <pt x="80" y="202" on="1"/>
        <pt x="80" y="259" on="0"/>
        <pt x="119" y="357" on="0"/>
        <pt x="186" y="430" on="0"/>
        <pt x="273" y="471" on="0"/>
        <pt x="321" y="471" on="1"/>
        <pt x="420" y="434" on="1"/>
        <pt x="394" y="525" on="0"/>
        <pt x="274" y="672" on="0"/>
        <pt x="186" y="700" on="1"/>
        <pt x="209" y="761" on="1"/>
        <pt x="294" y="736" on="0"/>
        <pt x="422" y="640" on="0"/>
        <pt x="506" y="516" on="0"/>
        <pt x="548" y="369" on="0"/>
        <pt x="548" y="293" on="1"/>
        <pt x="548" y="226" on="0"/>
        <pt x="515" y="106" on="0"/>
        <pt x="452" y="18" on="0"/>
        <pt x="359" y="-34" on="0"/>
      </contour>
      <contour>
        <pt x="306" y="40" on="1"/>
        <pt x="371" y="65" on="0"/>
        <pt x="438" y="214" on="0"/>
        <pt x="438" y="303" on="1"/>
        <pt x="438" y="323" on="0"/>
        <pt x="435" y="364" on="0"/>
        <pt x="431" y="384" on="1"/>
        <pt x="372" y="395" on="0"/>
        <pt x="282" y="367" on="0"/>
        <pt x="223" y="309" on="0"/>
        <pt x="192" y="229" on="0"/>
        <pt x="192" y="189" on="1"/>
        <pt x="191" y="129" on="0"/>
        <pt x="250" y="44" on="0"/>
      </contour>
    </TTGlyph>
    <TTGlyph name="percent" xMin="54" yMin="-29" xMax="771" yMax="594">
      <contour>
        <pt x="206" y="278" on="1"/>
        <pt x="144" y="278" on="0"/>
        <pt x="54" y="369" on="0"/>
        <pt x="54" y="434" on="1"/>
        <pt x="54" y="497" on="0"/>
        <pt x="140" y="594" on="0"/>
        <pt x="201" y="594" on="1"/>
        <pt x="262" y="594" on="0"/>
        <pt x="349" y="497" on="0"/>
        <pt x="349" y="431" on="1"/>
        <pt x="349" y="368" on="0"/>
        <pt x="268" y="278" on="0"/>
      </contour>
      <contour>
        <pt x="206" y="-29" on="1"/>
        <pt x="149" y="18" on="1"/>
        <pt x="600" y="589" on="1"/>
        <pt x="657" y="542" on="1"/>
      </contour>
      <contour>
        <pt x="133" y="436" on="1"/>
        <pt x="133" y="397" on="0"/>
        <pt x="180" y="338" on="0"/>
        <pt x="230" y="345" on="1"/>
        <pt x="249" y="360" on="0"/>
        <pt x="267" y="407" on="0"/>
        <pt x="267" y="432" on="1"/>
        <pt x="267" y="472" on="0"/>
        <pt x="217" y="534" on="0"/>
        <pt x="166" y="521" on="1"/>
        <pt x="150" y="505" on="0"/>
        <pt x="133" y="460" on="0"/>
      </contour>
      <contour>
        <pt x="628" y="-20" on="1"/>
        <pt x="566" y="-20" on="0"/>
        <pt x="476" y="71" on="0"/>
        <pt x="476" y="136" on="1"/>
        <pt x="476" y="199" on="0"/>
        <pt x="562" y="296" on="0"/>
        <pt x="623" y="296" on="1"/>
        <pt x="684" y="296" on="0"/>
        <pt x="771" y="200" on="0"/>
        <pt x="771" y="134" on="1"/>
        <pt x="771" y="71" on="0"/>
        <pt x="690" y="-20" on="0"/>
      </contour>
      <contour>
        <pt x="556" y="139" on="1"/>
        <pt x="556" y="100" on="0"/>
        <pt x="603" y="41" on="0"/>
        <pt x="653" y="48" on="1"/>
        <pt x="672" y="62" on="0"/>
        <pt x="690" y="109" on="0"/>
        <pt x="690" y="134" on="1"/>
        <pt x="690" y="175" on="0"/>
        <pt x="640" y="236" on="0"/>
        <pt x="589" y="223" on="1"/>
        <pt x="573" y="207" on="0"/>
        <pt x="556" y="162" on="0"/>
      </contour>
    </TTGlyph>
    <TTGlyph name="period" xMin="86" yMin="-36" xMax="230" yMax="107">
      <contour>
        <pt x="230" y="44" on="1"/>
        <pt x="222" y="22" on="0"/>
        <pt x="186" y="-23" on="0"/>
        <pt x="167" y="-36" on="1"/>
        <pt x="148" y="-29" on="0"/>
        <pt x="99" y="9" on="0"/>
        <pt x="86" y="27" on="1"/>
        <pt x="98" y="51" on="0"/>
        <pt x="133" y="97" on="0"/>
        <pt x="152" y="107" on="1"/>
        <pt x="174" y="99" on="0"/>
        <pt x="218" y="60" on="0"/>
      </contour>
    </TTGlyph>
    <TTGlyph name="period.deva" xMin="86" yMin="-36" xMax="230" yMax="107">
      <contour>
        <pt x="230" y="44" on="1"/>
        <pt x="222" y="22" on="0"/>
        <pt x="186" y="-23" on="0"/>
        <pt x="167" y="-36" on="1"/>
        <pt x="148" y="-29" on="0"/>
        <pt x="99" y="9" on="0"/>
        <pt x="86" y="27" on="1"/>
        <pt x="98" y="51" on="0"/>
        <pt x="133" y="97" on="0"/>
        <pt x="152" y="107" on="1"/>
        <pt x="174" y="99" on="0"/>
        <pt x="218" y="60" on="0"/>
      </contour>
    </TTGlyph>
    <TTGlyph name="periodcentered" xMin="30" yMin="188" xMax="174" yMax="331">
      <contour>
        <pt x="174" y="268" on="1"/>
        <pt x="166" y="246" on="0"/>
        <pt x="130" y="201" on="0"/>
        <pt x="111" y="188" on="1"/>
        <pt x="92" y="195" on="0"/>
        <pt x="43" y="233" on="0"/>
        <pt x="30" y="251" on="1"/>
        <pt x="42" y="275" on="0"/>
        <pt x="77" y="321" on="0"/>
        <pt x="96" y="331" on="1"/>
        <pt x="118" y="323" on="0"/>
        <pt x="162" y="284" on="0"/>
      </contour>
    </TTGlyph>
    <TTGlyph name="perthousand" xMin="54" yMin="-38" xMax="1129" yMax="594">
      <contour>
        <pt x="204" y="278" on="1"/>
        <pt x="144" y="278" on="0"/>
        <pt x="54" y="369" on="0"/>
        <pt x="54" y="435" on="1"/>
        <pt x="54" y="496" on="0"/>
        <pt x="140" y="594" on="0"/>
        <pt x="200" y="594" on="1"/>
        <pt x="262" y="594" on="0"/>
        <pt x="349" y="496" on="0"/>
        <pt x="349" y="435" on="1"/>
        <pt x="349" y="369" on="0"/>
        <pt x="267" y="278" on="0"/>
      </contour>
      <contour>
        <pt x="224" y="-38" on="1"/>
        <pt x="166" y="6" on="1"/>
        <pt x="574" y="580" on="1"/>
        <pt x="633" y="538" on="1"/>
      </contour>
      <contour>
        <pt x="215" y="346" on="1"/>
        <pt x="220" y="346" on="0"/>
        <pt x="232" y="348" on="0"/>
        <pt x="238" y="349" on="1"/>
        <pt x="254" y="363" on="0"/>
        <pt x="268" y="403" on="0"/>
        <pt x="268" y="424" on="1"/>
        <pt x="268" y="461" on="0"/>
        <pt x="226" y="522" on="0"/>
        <pt x="190" y="522" on="1"/>
        <pt x="183" y="522" on="0"/>
        <pt x="168" y="519" on="0"/>
        <pt x="160" y="516" on="1"/>
        <pt x="147" y="503" on="0"/>
        <pt x="134" y="465" on="0"/>
        <pt x="134" y="445" on="1"/>
        <pt x="134" y="409" on="0"/>
        <pt x="175" y="346" on="0"/>
      </contour>
      <contour>
        <pt x="984" y="-26" on="1"/>
        <pt x="924" y="-26" on="0"/>
        <pt x="834" y="66" on="0"/>
        <pt x="834" y="132" on="1"/>
        <pt x="834" y="193" on="0"/>
        <pt x="920" y="290" on="0"/>
        <pt x="980" y="290" on="1"/>
        <pt x="1042" y="290" on="0"/>
        <pt x="1129" y="193" on="0"/>
        <pt x="1129" y="132" on="1"/>
        <pt x="1129" y="65" on="0"/>
        <pt x="1047" y="-26" on="0"/>
      </contour>
      <contour>
        <pt x="626" y="-26" on="1"/>
        <pt x="566" y="-26" on="0"/>
        <pt x="476" y="66" on="0"/>
        <pt x="476" y="132" on="1"/>
        <pt x="476" y="193" on="0"/>
        <pt x="562" y="290" on="0"/>
        <pt x="622" y="290" on="1"/>
        <pt x="684" y="290" on="0"/>
        <pt x="771" y="193" on="0"/>
        <pt x="771" y="132" on="1"/>
        <pt x="771" y="65" on="0"/>
        <pt x="689" y="-26" on="0"/>
      </contour>
      <contour>
        <pt x="995" y="43" on="1"/>
        <pt x="1001" y="43" on="0"/>
        <pt x="1012" y="45" on="0"/>
        <pt x="1018" y="46" on="1"/>
        <pt x="1034" y="60" on="0"/>
        <pt x="1048" y="100" on="0"/>
        <pt x="1048" y="120" on="1"/>
        <pt x="1048" y="157" on="0"/>
        <pt x="1007" y="219" on="0"/>
        <pt x="970" y="219" on="1"/>
        <pt x="963" y="219" on="0"/>
        <pt x="948" y="216" on="0"/>
        <pt x="940" y="213" on="1"/>
        <pt x="927" y="199" on="0"/>
        <pt x="914" y="160" on="0"/>
        <pt x="914" y="141" on="1"/>
        <pt x="914" y="104" on="0"/>
        <pt x="955" y="43" on="0"/>
      </contour>
      <contour>
        <pt x="637" y="43" on="1"/>
        <pt x="643" y="43" on="0"/>
        <pt x="654" y="45" on="0"/>
        <pt x="660" y="46" on="1"/>
        <pt x="676" y="60" on="0"/>
        <pt x="690" y="100" on="0"/>
        <pt x="690" y="120" on="1"/>
        <pt x="690" y="157" on="0"/>
        <pt x="649" y="219" on="0"/>
        <pt x="612" y="219" on="1"/>
        <pt x="605" y="219" on="0"/>
        <pt x="590" y="216" on="0"/>
        <pt x="582" y="213" on="1"/>
        <pt x="569" y="199" on="0"/>
        <pt x="556" y="160" on="0"/>
        <pt x="556" y="141" on="1"/>
        <pt x="556" y="104" on="0"/>
        <pt x="597" y="43" on="0"/>
      </contour>
    </TTGlyph>
    <TTGlyph name="pi" xMin="30" yMin="-15" xMax="654" yMax="470">
      <contour>
        <pt x="307" y="230" on="1"/>
        <pt x="303" y="123" on="0"/>
        <pt x="250" y="-15" on="0"/>
        <pt x="163" y="-15" on="1"/>
        <pt x="139" y="-15" on="0"/>
        <pt x="79" y="-3" on="0"/>
        <pt x="45" y="10" on="1"/>
        <pt x="84" y="105" on="1"/>
        <pt x="106" y="90" on="0"/>
        <pt x="153" y="62" on="0"/>
        <pt x="177" y="49" on="1"/>
        <pt x="184" y="66" on="0"/>
        <pt x="190" y="158" on="0"/>
        <pt x="191" y="197" on="1"/>
        <pt x="198" y="396" on="1"/>
        <pt x="145" y="398" on="1"/>
        <pt x="61" y="339" on="1"/>
        <pt x="30" y="377" on="1"/>
        <pt x="49" y="405" on="0"/>
        <pt x="116" y="462" on="0"/>
        <pt x="143" y="470" on="1"/>
        <pt x="650" y="470" on="1"/>
        <pt x="654" y="408" on="1"/>
        <pt x="615" y="379" on="1"/>
        <pt x="537" y="382" on="1"/>
        <pt x="568" y="0" on="1"/>
        <pt x="484" y="-3" on="1"/>
        <pt x="444" y="30" on="1"/>
        <pt x="441" y="386" on="1"/>
        <pt x="313" y="391" on="1"/>
      </contour>
    </TTGlyph>
    <TTGlyph name="plus" xMin="58" yMin="8" xMax="513" yMax="474">
      <contour>
        <pt x="329" y="279" on="1"/>
        <pt x="513" y="279" on="1"/>
        <pt x="513" y="202" on="1"/>
        <pt x="329" y="202" on="1"/>
        <pt x="329" y="8" on="1"/>
        <pt x="242" y="8" on="1"/>
        <pt x="242" y="202" on="1"/>
        <pt x="58" y="202" on="1"/>
        <pt x="58" y="279" on="1"/>
        <pt x="242" y="279" on="1"/>
        <pt x="242" y="474" on="1"/>
        <pt x="329" y="474" on="1"/>
      </contour>
    </TTGlyph>
    <TTGlyph name="plusminus" xMin="58" yMin="0" xMax="481" yMax="579">
      <contour>
        <pt x="313" y="400" on="1"/>
        <pt x="481" y="400" on="1"/>
        <pt x="481" y="326" on="1"/>
        <pt x="313" y="326" on="1"/>
        <pt x="313" y="145" on="1"/>
        <pt x="226" y="145" on="1"/>
        <pt x="226" y="326" on="1"/>
        <pt x="58" y="326" on="1"/>
        <pt x="58" y="400" on="1"/>
        <pt x="226" y="400" on="1"/>
        <pt x="226" y="579" on="1"/>
        <pt x="313" y="579" on="1"/>
      </contour>
      <contour>
        <pt x="63" y="74" on="1"/>
        <pt x="473" y="74" on="1"/>
        <pt x="473" y="0" on="1"/>
        <pt x="64" y="0" on="1"/>
      </contour>
    </TTGlyph>
</ttFont>
